%TF.GenerationSoftware,KiCad,Pcbnew,8.0.8*%
%TF.CreationDate,2025-01-29T22:29:46+01:00*%
%TF.ProjectId,xol-pcb,786f6c2d-7063-4622-9e6b-696361645f70,rev?*%
%TF.SameCoordinates,Original*%
%TF.FileFunction,Profile,NP*%
%FSLAX46Y46*%
G04 Gerber Fmt 4.6, Leading zero omitted, Abs format (unit mm)*
G04 Created by KiCad (PCBNEW 8.0.8) date 2025-01-29 22:29:46*
%MOMM*%
%LPD*%
G01*
G04 APERTURE LIST*
%TA.AperFunction,Profile*%
%ADD10C,0.200000*%
%TD*%
G04 APERTURE END LIST*
D10*
X65840627Y-30245996D02*
G75*
G02*
X68827052Y-31584959I-27J-4000004D01*
G01*
X57429120Y-71048348D02*
G75*
G02*
X53970226Y-74033313I-21720120J21672148D01*
G01*
X58624904Y-77121317D02*
G75*
G02*
X57731076Y-75389292I-247704J968817D01*
G01*
X46440937Y-31584947D02*
G75*
G02*
X49427376Y-30245979I2986463J-2661053D01*
G01*
X82383540Y-46799090D02*
X68827066Y-31584947D01*
X80392158Y-69546324D02*
X83351745Y-50060796D01*
X59835941Y-73449850D02*
X57731048Y-75389259D01*
X36853167Y-71245996D02*
X48320293Y-71245996D01*
X31916258Y-50060796D02*
X34875844Y-69546324D01*
X64119283Y-72417569D02*
G75*
G02*
X66947710Y-71246004I2828417J-2828431D01*
G01*
X65840627Y-30245996D02*
X49427376Y-30245996D01*
X60462428Y-76074423D02*
X64119283Y-72417569D01*
X46440937Y-31584947D02*
X32884463Y-46799090D01*
X57429120Y-71048348D02*
G75*
G02*
X59835911Y-73449820I1203380J-1200752D01*
G01*
X60462428Y-76074423D02*
G75*
G02*
X58624904Y-77121318I-2828428J2828423D01*
G01*
X53970225Y-74033311D02*
G75*
G02*
X52667991Y-73936779I-595125J803611D01*
G01*
X80392158Y-69546324D02*
G75*
G02*
X78414836Y-71246021I-1977258J300224D01*
G01*
X31916258Y-50060796D02*
G75*
G02*
X32884464Y-46799091I3954642J600656D01*
G01*
X48320293Y-71245996D02*
G75*
G02*
X51148724Y-72417565I7J-4000004D01*
G01*
X36853167Y-71245996D02*
G75*
G02*
X34875880Y-69546318I33J1999996D01*
G01*
X82383540Y-46799090D02*
G75*
G02*
X83351737Y-50060795I-2986340J-2661010D01*
G01*
X51148720Y-72417569D02*
X52667961Y-73936809D01*
X66947710Y-71245996D02*
X78414836Y-71245996D01*
M02*
