%TF.GenerationSoftware,KiCad,Pcbnew,8.0.8*%
%TF.CreationDate,2025-01-29T22:29:45+01:00*%
%TF.ProjectId,xol-pcb,786f6c2d-7063-4622-9e6b-696361645f70,rev?*%
%TF.SameCoordinates,Original*%
%TF.FileFunction,Copper,L2,Bot*%
%TF.FilePolarity,Positive*%
%FSLAX46Y46*%
G04 Gerber Fmt 4.6, Leading zero omitted, Abs format (unit mm)*
G04 Created by KiCad (PCBNEW 8.0.8) date 2025-01-29 22:29:45*
%MOMM*%
%LPD*%
G01*
G04 APERTURE LIST*
G04 Aperture macros list*
%AMRoundRect*
0 Rectangle with rounded corners*
0 $1 Rounding radius*
0 $2 $3 $4 $5 $6 $7 $8 $9 X,Y pos of 4 corners*
0 Add a 4 corners polygon primitive as box body*
4,1,4,$2,$3,$4,$5,$6,$7,$8,$9,$2,$3,0*
0 Add four circle primitives for the rounded corners*
1,1,$1+$1,$2,$3*
1,1,$1+$1,$4,$5*
1,1,$1+$1,$6,$7*
1,1,$1+$1,$8,$9*
0 Add four rect primitives between the rounded corners*
20,1,$1+$1,$2,$3,$4,$5,0*
20,1,$1+$1,$4,$5,$6,$7,0*
20,1,$1+$1,$6,$7,$8,$9,0*
20,1,$1+$1,$8,$9,$2,$3,0*%
%AMHorizOval*
0 Thick line with rounded ends*
0 $1 width*
0 $2 $3 position (X,Y) of the first rounded end (center of the circle)*
0 $4 $5 position (X,Y) of the second rounded end (center of the circle)*
0 Add line between two ends*
20,1,$1,$2,$3,$4,$5,0*
0 Add two circle primitives to create the rounded ends*
1,1,$1,$2,$3*
1,1,$1,$4,$5*%
%AMFreePoly0*
4,1,6,1.000000,0.000000,0.500000,-0.750000,-0.500000,-0.750000,-0.500000,0.750000,0.500000,0.750000,1.000000,0.000000,1.000000,0.000000,$1*%
%AMFreePoly1*
4,1,6,0.500000,-0.750000,-0.650000,-0.750000,-0.150000,0.000000,-0.650000,0.750000,0.500000,0.750000,0.500000,-0.750000,0.500000,-0.750000,$1*%
G04 Aperture macros list end*
%TA.AperFunction,ComponentPad*%
%ADD10RoundRect,0.250001X0.499999X0.759999X-0.499999X0.759999X-0.499999X-0.759999X0.499999X-0.759999X0*%
%TD*%
%TA.AperFunction,ComponentPad*%
%ADD11O,1.500000X2.020000*%
%TD*%
%TA.AperFunction,ComponentPad*%
%ADD12RoundRect,0.250000X0.750000X-0.600000X0.750000X0.600000X-0.750000X0.600000X-0.750000X-0.600000X0*%
%TD*%
%TA.AperFunction,ComponentPad*%
%ADD13O,2.000000X1.700000*%
%TD*%
%TA.AperFunction,ComponentPad*%
%ADD14C,1.600000*%
%TD*%
%TA.AperFunction,ComponentPad*%
%ADD15O,1.600000X1.600000*%
%TD*%
%TA.AperFunction,ComponentPad*%
%ADD16C,6.400000*%
%TD*%
%TA.AperFunction,ComponentPad*%
%ADD17RoundRect,0.250000X0.725000X-0.600000X0.725000X0.600000X-0.725000X0.600000X-0.725000X-0.600000X0*%
%TD*%
%TA.AperFunction,ComponentPad*%
%ADD18O,1.950000X1.700000*%
%TD*%
%TA.AperFunction,ComponentPad*%
%ADD19RoundRect,0.250001X-0.499999X-0.499999X0.499999X-0.499999X0.499999X0.499999X-0.499999X0.499999X0*%
%TD*%
%TA.AperFunction,ComponentPad*%
%ADD20C,1.500000*%
%TD*%
%TA.AperFunction,ComponentPad*%
%ADD21R,1.600000X1.600000*%
%TD*%
%TA.AperFunction,SMDPad,CuDef*%
%ADD22FreePoly0,180.000000*%
%TD*%
%TA.AperFunction,SMDPad,CuDef*%
%ADD23FreePoly1,180.000000*%
%TD*%
%TA.AperFunction,ComponentPad*%
%ADD24RoundRect,0.250000X0.809935X-0.479198X0.622213X0.706028X-0.809935X0.479198X-0.622213X-0.706028X0*%
%TD*%
%TA.AperFunction,ComponentPad*%
%ADD25HorizOval,1.700000X0.123461X0.019554X-0.123461X-0.019554X0*%
%TD*%
%TA.AperFunction,ViaPad*%
%ADD26C,0.800000*%
%TD*%
%TA.AperFunction,Conductor*%
%ADD27C,0.500000*%
%TD*%
%TA.AperFunction,Conductor*%
%ADD28C,0.300000*%
%TD*%
%TA.AperFunction,Conductor*%
%ADD29C,1.000000*%
%TD*%
%TA.AperFunction,Conductor*%
%ADD30C,2.500000*%
%TD*%
G04 APERTURE END LIST*
D10*
%TO.P,HE1,1,Pin_1*%
%TO.N,HE-*%
X75946000Y-56736000D03*
D11*
%TO.P,HE1,2,Pin_2*%
%TO.N,HE+*%
X72946000Y-56736000D03*
%TD*%
D12*
%TO.P,PCF1,1,Pin_1*%
%TO.N,PCF+*%
X43180000Y-50292000D03*
D13*
%TO.P,PCF1,2,Pin_2*%
%TO.N,PCF-*%
X43180000Y-47792000D03*
%TD*%
D14*
%TO.P,R1,1*%
%TO.N,Net-(RGB1-Pin_2)*%
X48330000Y-52690000D03*
D15*
%TO.P,R1,2*%
%TO.N,RGB*%
X48330000Y-45070000D03*
%TD*%
D10*
%TO.P,TH1,1,Pin_1*%
%TO.N,TH*%
X49000000Y-56736000D03*
D11*
%TO.P,TH1,2,Pin_2*%
%TO.N,TH-*%
X46000000Y-56736000D03*
%TD*%
D16*
%TO.P,H1,1,1*%
%TO.N,GND*%
X79559001Y-49376179D03*
%TD*%
%TO.P,H2,1,1*%
%TO.N,GND*%
X35709001Y-49376179D03*
%TD*%
D17*
%TO.P,AUX1,1,Pin_1*%
%TO.N,GND*%
X64245000Y-63206000D03*
D18*
%TO.P,AUX1,2,Pin_2*%
%TO.N,AUX1*%
X64245000Y-60706000D03*
%TO.P,AUX1,3,Pin_3*%
%TO.N,5V*%
X64245000Y-58206000D03*
%TD*%
D17*
%TO.P,RGB1,1,Pin_1*%
%TO.N,GND*%
X52595000Y-51950000D03*
D18*
%TO.P,RGB1,2,Pin_2*%
%TO.N,Net-(RGB1-Pin_2)*%
X52595000Y-49450000D03*
%TO.P,RGB1,3,Pin_3*%
%TO.N,5V*%
X52595000Y-46950000D03*
%TD*%
D12*
%TO.P,PCF2,1,Pin_1*%
%TO.N,PCF+*%
X70866000Y-50292000D03*
D13*
%TO.P,PCF2,2,Pin_2*%
%TO.N,PCF-*%
X70866000Y-47792000D03*
%TD*%
D19*
%TO.P,J1,1,Pin_1*%
%TO.N,RGB*%
X45500000Y-39161000D03*
D20*
%TO.P,J1,2,Pin_2*%
%TO.N,PCF-*%
X48500000Y-39161000D03*
%TO.P,J1,3,Pin_3*%
%TO.N,HEF-*%
X51500000Y-39161000D03*
%TO.P,J1,4,Pin_4*%
%TO.N,TH-*%
X54500000Y-39161000D03*
%TO.P,J1,5,Pin_5*%
%TO.N,A1*%
X57500000Y-39161000D03*
%TO.P,J1,6,Pin_6*%
%TO.N,A2*%
X60500000Y-39161000D03*
%TO.P,J1,7,Pin_7*%
%TO.N,GND*%
X63500000Y-39161000D03*
%TO.P,J1,8,Pin_8*%
%TO.N,5V*%
X66500000Y-39161000D03*
%TO.P,J1,9,Pin_9*%
%TO.N,HE+*%
X69500000Y-39161000D03*
%TO.P,J1,10,Pin_10*%
%TO.N,AUX2*%
X45500000Y-42161000D03*
%TO.P,J1,11,Pin_11*%
%TO.N,AUX3*%
X48500000Y-42161000D03*
%TO.P,J1,12,Pin_12*%
%TO.N,VALT*%
X51500000Y-42161000D03*
%TO.P,J1,13,Pin_13*%
%TO.N,TH*%
X54500000Y-42161000D03*
%TO.P,J1,14,Pin_14*%
%TO.N,B1*%
X57500000Y-42161000D03*
%TO.P,J1,15,Pin_15*%
%TO.N,B2*%
X60500000Y-42161000D03*
%TO.P,J1,16,Pin_16*%
%TO.N,Net-(D1-A)*%
X63500000Y-42161000D03*
%TO.P,J1,17,Pin_17*%
%TO.N,AUX1*%
X66500000Y-42161000D03*
%TO.P,J1,18,Pin_18*%
%TO.N,HE-*%
X69500000Y-42161000D03*
%TD*%
D17*
%TO.P,HEF1,1,Pin_1*%
%TO.N,HEF+*%
X60440000Y-52000000D03*
D18*
%TO.P,HEF1,2,Pin_2*%
%TO.N,Net-(D1-K)*%
X60440000Y-49500000D03*
%TO.P,HEF1,3,Pin_3*%
%TO.N,HEF-*%
X60440000Y-47000000D03*
%TD*%
D21*
%TO.P,D1,1,K*%
%TO.N,Net-(D1-K)*%
X66470000Y-53290000D03*
D15*
%TO.P,D1,2,A*%
%TO.N,Net-(D1-A)*%
X66470000Y-45670000D03*
%TD*%
D17*
%TO.P,AUX2-3,1,Pin_1*%
%TO.N,GND*%
X56475000Y-63206000D03*
D18*
%TO.P,AUX2-3,2,Pin_2*%
%TO.N,AUX2*%
X56475000Y-60706000D03*
%TO.P,AUX2-3,3,Pin_3*%
%TO.N,AUX3*%
X56475000Y-58206000D03*
%TD*%
D22*
%TO.P,JP4,1,A*%
%TO.N,5V*%
X68797000Y-61722000D03*
D23*
%TO.P,JP4,2,B*%
%TO.N,PCF+*%
X67347000Y-61722000D03*
%TD*%
D24*
%TO.P,MOTOR1,1,Pin_1*%
%TO.N,B1*%
X38419166Y-64929703D03*
D25*
%TO.P,MOTOR1,2,Pin_2*%
%TO.N,B2*%
X38028080Y-62460482D03*
%TO.P,MOTOR1,3,Pin_3*%
%TO.N,A1*%
X37636994Y-59991261D03*
%TO.P,MOTOR1,4,Pin_4*%
%TO.N,A2*%
X37245908Y-57522040D03*
%TD*%
D22*
%TO.P,JP1,1,A*%
%TO.N,5V*%
X68797000Y-59182000D03*
D23*
%TO.P,JP1,2,B*%
%TO.N,HEF+*%
X67347000Y-59182000D03*
%TD*%
D22*
%TO.P,JP3,1,A*%
%TO.N,HE+*%
X53557000Y-59182000D03*
D23*
%TO.P,JP3,2,B*%
%TO.N,HEF+*%
X52107000Y-59182000D03*
%TD*%
D22*
%TO.P,JP5,1,A*%
%TO.N,VALT*%
X61177000Y-61722000D03*
D23*
%TO.P,JP5,2,B*%
%TO.N,PCF+*%
X59727000Y-61722000D03*
%TD*%
D22*
%TO.P,JP6,1,A*%
%TO.N,HE+*%
X53557000Y-61722000D03*
D23*
%TO.P,JP6,2,B*%
%TO.N,PCF+*%
X52107000Y-61722000D03*
%TD*%
D22*
%TO.P,JP2,1,A*%
%TO.N,VALT*%
X61177000Y-59182000D03*
D23*
%TO.P,JP2,2,B*%
%TO.N,HEF+*%
X59727000Y-59182000D03*
%TD*%
D26*
%TO.N,HEF+*%
X67310000Y-56896000D03*
X59690000Y-56896000D03*
X52324000Y-56896000D03*
%TO.N,PCF+*%
X50970000Y-63790000D03*
X60263500Y-65286500D03*
%TO.N,GND*%
X74500000Y-64500000D03*
X67210000Y-51180000D03*
X56500000Y-48500000D03*
X65490000Y-47600000D03*
X54102000Y-57404000D03*
X45974000Y-59182000D03*
X52630000Y-54280000D03*
X50500000Y-45000000D03*
%TD*%
D27*
%TO.N,A1*%
X40200000Y-41789950D02*
X44143950Y-37846000D01*
X38737599Y-58890656D02*
X38737599Y-53286601D01*
X38737599Y-53286601D02*
X40200000Y-51824200D01*
X40200000Y-51824200D02*
X40200000Y-41789950D01*
X56185000Y-37846000D02*
X57500000Y-39161000D01*
X37636994Y-59991261D02*
X38737599Y-58890656D01*
X44143950Y-37846000D02*
X56185000Y-37846000D01*
%TO.N,A2*%
X39500000Y-51189200D02*
X37245908Y-53443292D01*
X58485000Y-37146000D02*
X43854000Y-37146000D01*
X43854000Y-37146000D02*
X39500000Y-41500000D01*
X37245908Y-53443292D02*
X37245908Y-57522040D01*
X60500000Y-39161000D02*
X58485000Y-37146000D01*
X39500000Y-41500000D02*
X39500000Y-51189200D01*
D28*
%TO.N,TH*%
X54500000Y-42161000D02*
X53339000Y-41000000D01*
X49506000Y-56736000D02*
X49150000Y-56380000D01*
X51000000Y-41000000D02*
X49600000Y-42400000D01*
X46970000Y-43790000D02*
X46580000Y-44180000D01*
X49000000Y-54986346D02*
X49000000Y-56736000D01*
X53339000Y-41000000D02*
X51000000Y-41000000D01*
X46580000Y-52566346D02*
X49000000Y-54986346D01*
X49600000Y-42900000D02*
X48710000Y-43790000D01*
X49600000Y-42400000D02*
X49600000Y-42900000D01*
X46580000Y-52566346D02*
X46580000Y-44180000D01*
X48710000Y-43790000D02*
X46970000Y-43790000D01*
D29*
%TO.N,HE+*%
X53557000Y-65232430D02*
X55824570Y-67500000D01*
X72196000Y-57486000D02*
X72946000Y-56736000D01*
X53557000Y-59182000D02*
X53557000Y-61722000D01*
X72196000Y-62304000D02*
X72196000Y-57486000D01*
X55824570Y-67500000D02*
X67000000Y-67500000D01*
X53557000Y-61722000D02*
X53557000Y-65232430D01*
X67000000Y-67500000D02*
X72196000Y-62304000D01*
%TO.N,HEF+*%
X52324000Y-56896000D02*
X52324000Y-58175050D01*
X59690000Y-56896000D02*
X59690000Y-58420000D01*
X52324000Y-58175050D02*
X52074525Y-58424525D01*
X67310000Y-56896000D02*
X67310000Y-58420000D01*
D30*
%TO.N,HE-*%
X73316000Y-45977000D02*
X69500000Y-42161000D01*
X75946000Y-52339272D02*
X73316000Y-49709272D01*
X75946000Y-56736000D02*
X75946000Y-52339272D01*
X73316000Y-49709272D02*
X73316000Y-45977000D01*
D29*
%TO.N,5V*%
X68797000Y-44477000D02*
X68080000Y-43760000D01*
X65000000Y-43000000D02*
X65000000Y-40661000D01*
X65000000Y-40661000D02*
X66500000Y-39161000D01*
X68797000Y-59182000D02*
X68797000Y-55000000D01*
X68080000Y-43760000D02*
X65760000Y-43760000D01*
X68797000Y-59182000D02*
X68797000Y-61722000D01*
X67370000Y-55081000D02*
X68716000Y-55081000D01*
X64245000Y-58206000D02*
X67370000Y-55081000D01*
X68716000Y-55081000D02*
X68797000Y-55000000D01*
X68797000Y-55000000D02*
X68797000Y-44477000D01*
X65760000Y-43760000D02*
X65000000Y-43000000D01*
%TO.N,PCF+*%
X46254000Y-63754000D02*
X40767000Y-58267000D01*
X40767000Y-58267000D02*
X40767000Y-53162200D01*
X43180000Y-50749200D02*
X43180000Y-50292000D01*
X70866000Y-61936944D02*
X68901472Y-63901472D01*
X52070000Y-63754000D02*
X46254000Y-63754000D01*
X66502944Y-66300000D02*
X68901472Y-63901472D01*
X40767000Y-53162200D02*
X43180000Y-50749200D01*
X61277000Y-66300000D02*
X66502944Y-66300000D01*
X59477000Y-61722000D02*
X59477000Y-64500000D01*
X68729449Y-63901472D02*
X67092097Y-62264120D01*
X70866000Y-50292000D02*
X70866000Y-61936944D01*
X67092097Y-62264120D02*
X67092097Y-61722000D01*
X68901472Y-63901472D02*
X68729449Y-63901472D01*
X59477000Y-64500000D02*
X61277000Y-66300000D01*
X52070000Y-63754000D02*
X52070000Y-62484000D01*
%TO.N,PCF-*%
X44999390Y-40611000D02*
X47050000Y-40611000D01*
X47050000Y-40611000D02*
X48500000Y-39161000D01*
X43180000Y-47792000D02*
X43180000Y-42430390D01*
X43180000Y-42430390D02*
X44999390Y-40611000D01*
D28*
%TO.N,TH-*%
X47400000Y-41705365D02*
X47552683Y-41552683D01*
X53400000Y-40261000D02*
X54500000Y-39161000D01*
X48844365Y-40261000D02*
X53400000Y-40261000D01*
X46000000Y-54000000D02*
X46000000Y-56736000D01*
X47400000Y-42100000D02*
X47400000Y-41705365D01*
X45000000Y-44500000D02*
X47400000Y-42100000D01*
X45000000Y-53000000D02*
X46000000Y-54000000D01*
X47552683Y-41552683D02*
X48844365Y-40261000D01*
X45000000Y-53000000D02*
X45000000Y-44500000D01*
D29*
%TO.N,VALT*%
X51500000Y-42161000D02*
X54600000Y-45261000D01*
X61177000Y-59182000D02*
X61177000Y-61722000D01*
X61177000Y-56685944D02*
X61177000Y-59182000D01*
X55500000Y-55000000D02*
X59491056Y-55000000D01*
X54600000Y-45261000D02*
X54600000Y-54100000D01*
X59491056Y-55000000D02*
X61177000Y-56685944D01*
X54600000Y-54100000D02*
X55500000Y-55000000D01*
D28*
%TO.N,Net-(RGB1-Pin_2)*%
X51570000Y-49450000D02*
X52595000Y-49450000D01*
X48330000Y-52690000D02*
X51570000Y-49450000D01*
%TD*%
%TA.AperFunction,Conductor*%
%TO.N,GND*%
G36*
X34488589Y-50418509D02*
G01*
X34666671Y-50596591D01*
X34771578Y-50672810D01*
X33271087Y-52173300D01*
X33271088Y-52173301D01*
X33526492Y-52380124D01*
X33526509Y-52380136D01*
X33852459Y-52591809D01*
X33852465Y-52591813D01*
X34198753Y-52768255D01*
X34198761Y-52768259D01*
X34561586Y-52907534D01*
X34937005Y-53008127D01*
X35320886Y-53068928D01*
X35708995Y-53089268D01*
X35709007Y-53089268D01*
X36097115Y-53068928D01*
X36391663Y-53022276D01*
X36462074Y-53031376D01*
X36516388Y-53077097D01*
X36537361Y-53144926D01*
X36527784Y-53194940D01*
X36520764Y-53211889D01*
X36520762Y-53211895D01*
X36516557Y-53222044D01*
X36487408Y-53368582D01*
X36487408Y-56263268D01*
X36467406Y-56331389D01*
X36418612Y-56375534D01*
X36410439Y-56379698D01*
X36237443Y-56505387D01*
X36237440Y-56505389D01*
X36086248Y-56656581D01*
X35960555Y-56829581D01*
X35863474Y-57020111D01*
X35797399Y-57223470D01*
X35763947Y-57434677D01*
X35763947Y-57546544D01*
X35763947Y-57648507D01*
X35795743Y-57849265D01*
X35797398Y-57859711D01*
X35863476Y-58063078D01*
X35960548Y-58253596D01*
X35960551Y-58253601D01*
X36086238Y-58426595D01*
X36086240Y-58426597D01*
X36086242Y-58426600D01*
X36237434Y-58577792D01*
X36237437Y-58577794D01*
X36237441Y-58577798D01*
X36410434Y-58703486D01*
X36580001Y-58789885D01*
X36631614Y-58838631D01*
X36648680Y-58907546D01*
X36625779Y-58974748D01*
X36611892Y-58991245D01*
X36477332Y-59125805D01*
X36351641Y-59298802D01*
X36254560Y-59489332D01*
X36188485Y-59692691D01*
X36155033Y-59903898D01*
X36155033Y-60078622D01*
X36155033Y-60117728D01*
X36180751Y-60280112D01*
X36188484Y-60328932D01*
X36254562Y-60532299D01*
X36351634Y-60722817D01*
X36351637Y-60722822D01*
X36477324Y-60895816D01*
X36477326Y-60895818D01*
X36477328Y-60895821D01*
X36628520Y-61047013D01*
X36628523Y-61047015D01*
X36628527Y-61047019D01*
X36801520Y-61172707D01*
X36971087Y-61259106D01*
X37022700Y-61307852D01*
X37039766Y-61376767D01*
X37016865Y-61443969D01*
X37002978Y-61460466D01*
X36868418Y-61595026D01*
X36868415Y-61595029D01*
X36868415Y-61595030D01*
X36838276Y-61636513D01*
X36742727Y-61768023D01*
X36645646Y-61958553D01*
X36579571Y-62161912D01*
X36546119Y-62373119D01*
X36546119Y-62497860D01*
X36546119Y-62586949D01*
X36576964Y-62781703D01*
X36579570Y-62798153D01*
X36645648Y-63001520D01*
X36742720Y-63192038D01*
X36742723Y-63192043D01*
X36868410Y-63365037D01*
X36868412Y-63365039D01*
X36868414Y-63365042D01*
X37019610Y-63516238D01*
X37019613Y-63516240D01*
X37168706Y-63624564D01*
X37212060Y-63680786D01*
X37218135Y-63751522D01*
X37185003Y-63814313D01*
X37176755Y-63822071D01*
X37087926Y-63898388D01*
X37047702Y-63932946D01*
X36976087Y-64031515D01*
X36943481Y-64076393D01*
X36875149Y-64240012D01*
X36846394Y-64414972D01*
X36846394Y-64414974D01*
X36852163Y-64519238D01*
X37055699Y-65804310D01*
X37082428Y-65905242D01*
X37082434Y-65905259D01*
X37163842Y-66062760D01*
X37163844Y-66062762D01*
X37163846Y-66062766D01*
X37279393Y-66197260D01*
X37422841Y-66301481D01*
X37586459Y-66369812D01*
X37761423Y-66398568D01*
X37865685Y-66392800D01*
X39397678Y-66150155D01*
X39498621Y-66123423D01*
X39498629Y-66123419D01*
X39656131Y-66042011D01*
X39656132Y-66042009D01*
X39656136Y-66042008D01*
X39790630Y-65926460D01*
X39894851Y-65783013D01*
X39963182Y-65619395D01*
X39991938Y-65444430D01*
X39986169Y-65340168D01*
X39782633Y-64055098D01*
X39755901Y-63954155D01*
X39755898Y-63954149D01*
X39755897Y-63954146D01*
X39674489Y-63796645D01*
X39674487Y-63796643D01*
X39674486Y-63796640D01*
X39558939Y-63662146D01*
X39558934Y-63662142D01*
X39415493Y-63557926D01*
X39258492Y-63492358D01*
X39203341Y-63447649D01*
X39181117Y-63380221D01*
X39198875Y-63311481D01*
X39205095Y-63302054D01*
X39313433Y-63152941D01*
X39410512Y-62962414D01*
X39476590Y-62759047D01*
X39510041Y-62547847D01*
X39510041Y-62334015D01*
X39476591Y-62122815D01*
X39410514Y-61919448D01*
X39410514Y-61919447D01*
X39313439Y-61728924D01*
X39313436Y-61728919D01*
X39234219Y-61619887D01*
X39187750Y-61555927D01*
X39187747Y-61555924D01*
X39187745Y-61555921D01*
X39036553Y-61404729D01*
X39036549Y-61404726D01*
X39036547Y-61404724D01*
X38863554Y-61279036D01*
X38693986Y-61192636D01*
X38642372Y-61143888D01*
X38625306Y-61074973D01*
X38648207Y-61007772D01*
X38662084Y-60991287D01*
X38796660Y-60856713D01*
X38922347Y-60683720D01*
X39019426Y-60493193D01*
X39085504Y-60289826D01*
X39118955Y-60078626D01*
X39118955Y-59864794D01*
X39090329Y-59684054D01*
X39099429Y-59613647D01*
X39125680Y-59575254D01*
X39326765Y-59374171D01*
X39409773Y-59249940D01*
X39466950Y-59111902D01*
X39496099Y-58965361D01*
X39496099Y-58815951D01*
X39496099Y-53652972D01*
X39516101Y-53584851D01*
X39533004Y-53563877D01*
X39543405Y-53553476D01*
X39605717Y-53519450D01*
X39676532Y-53524515D01*
X39733368Y-53567062D01*
X39758179Y-53633582D01*
X39758500Y-53642571D01*
X39758500Y-58366331D01*
X39797256Y-58561169D01*
X39842091Y-58669409D01*
X39873279Y-58744704D01*
X39983647Y-58909881D01*
X39983649Y-58909883D01*
X45611113Y-64537349D01*
X45611119Y-64537354D01*
X45776296Y-64647722D01*
X45898887Y-64698500D01*
X45898888Y-64698501D01*
X45959823Y-64723741D01*
X45959824Y-64723741D01*
X45959831Y-64723744D01*
X46154671Y-64762500D01*
X46154672Y-64762500D01*
X52169328Y-64762500D01*
X52169329Y-64762500D01*
X52364169Y-64723744D01*
X52364179Y-64723740D01*
X52374281Y-64719556D01*
X52444871Y-64711966D01*
X52508358Y-64743744D01*
X52544586Y-64804802D01*
X52548500Y-64835964D01*
X52548500Y-65331761D01*
X52587256Y-65526599D01*
X52587258Y-65526604D01*
X52625692Y-65619393D01*
X52656446Y-65693638D01*
X52656446Y-65693639D01*
X52656445Y-65693639D01*
X52663274Y-65710126D01*
X52663278Y-65710132D01*
X52663279Y-65710134D01*
X52773647Y-65875311D01*
X55041217Y-68142881D01*
X55181689Y-68283353D01*
X55346866Y-68393721D01*
X55530401Y-68469744D01*
X55725241Y-68508500D01*
X55725242Y-68508500D01*
X67099328Y-68508500D01*
X67099329Y-68508500D01*
X67294169Y-68469744D01*
X67477704Y-68393721D01*
X67642881Y-68283353D01*
X67783353Y-68142881D01*
X67783352Y-68142881D01*
X67842866Y-68083367D01*
X67842865Y-68083367D01*
X72979354Y-62946881D01*
X73089722Y-62781703D01*
X73152831Y-62629344D01*
X73165744Y-62598169D01*
X73181107Y-62520931D01*
X73214013Y-62458024D01*
X73275707Y-62422891D01*
X73346602Y-62426691D01*
X73381389Y-62445552D01*
X73471385Y-62514609D01*
X73471391Y-62514613D01*
X73670099Y-62629337D01*
X73670103Y-62629338D01*
X73670112Y-62629344D01*
X73882113Y-62717158D01*
X74103762Y-62776548D01*
X74103766Y-62776548D01*
X74103768Y-62776549D01*
X74142917Y-62781703D01*
X74331266Y-62806500D01*
X74331273Y-62806500D01*
X74560727Y-62806500D01*
X74560734Y-62806500D01*
X74766345Y-62779430D01*
X74788231Y-62776549D01*
X74788231Y-62776548D01*
X74788238Y-62776548D01*
X75009887Y-62717158D01*
X75221888Y-62629344D01*
X75420612Y-62514611D01*
X75602661Y-62374919D01*
X75764919Y-62212661D01*
X75904611Y-62030612D01*
X76019344Y-61831888D01*
X76107158Y-61619887D01*
X76166548Y-61398238D01*
X76196500Y-61170734D01*
X76196500Y-60941266D01*
X76166548Y-60713762D01*
X76107158Y-60492113D01*
X76019344Y-60280112D01*
X76019338Y-60280103D01*
X76019337Y-60280099D01*
X75904613Y-60081391D01*
X75904608Y-60081384D01*
X75764926Y-59899347D01*
X75764907Y-59899326D01*
X75602673Y-59737092D01*
X75602652Y-59737073D01*
X75420615Y-59597391D01*
X75420608Y-59597386D01*
X75221900Y-59482662D01*
X75221892Y-59482658D01*
X75221888Y-59482656D01*
X75009887Y-59394842D01*
X74788238Y-59335452D01*
X74788231Y-59335450D01*
X74560736Y-59305500D01*
X74560734Y-59305500D01*
X74331266Y-59305500D01*
X74331263Y-59305500D01*
X74103768Y-59335450D01*
X73959259Y-59374171D01*
X73882113Y-59394842D01*
X73674055Y-59481023D01*
X73670110Y-59482657D01*
X73670099Y-59482662D01*
X73471391Y-59597386D01*
X73471384Y-59597391D01*
X73407204Y-59646639D01*
X73340984Y-59672240D01*
X73271435Y-59657975D01*
X73220639Y-59608374D01*
X73204500Y-59546677D01*
X73204500Y-58326818D01*
X73224502Y-58258697D01*
X73278158Y-58212204D01*
X73291560Y-58206986D01*
X73429097Y-58162298D01*
X73605598Y-58072366D01*
X73765858Y-57955930D01*
X73905930Y-57815858D01*
X74022366Y-57655598D01*
X74112298Y-57479097D01*
X74112303Y-57479079D01*
X74114191Y-57474525D01*
X74115908Y-57475236D01*
X74151455Y-57423195D01*
X74216838Y-57395526D01*
X74286801Y-57407597D01*
X74339131Y-57455577D01*
X74347670Y-57472473D01*
X74365465Y-57515433D01*
X74365466Y-57515434D01*
X74365468Y-57515439D01*
X74365471Y-57515444D01*
X74463085Y-57684515D01*
X74480724Y-57715066D01*
X74560274Y-57818738D01*
X74621053Y-57897947D01*
X74621062Y-57897957D01*
X74784042Y-58060937D01*
X74784052Y-58060946D01*
X74784053Y-58060947D01*
X74966934Y-58201276D01*
X75166567Y-58316535D01*
X75379536Y-58404749D01*
X75602198Y-58464411D01*
X75602204Y-58464411D01*
X75602205Y-58464412D01*
X75628425Y-58467863D01*
X75830742Y-58494500D01*
X75830749Y-58494500D01*
X76061251Y-58494500D01*
X76061258Y-58494500D01*
X76289802Y-58464411D01*
X76512464Y-58404749D01*
X76725433Y-58316535D01*
X76925066Y-58201276D01*
X77107947Y-58060947D01*
X77270947Y-57897947D01*
X77411276Y-57715066D01*
X77526535Y-57515433D01*
X77614749Y-57302464D01*
X77674411Y-57079802D01*
X77704500Y-56851258D01*
X77704500Y-52798463D01*
X77724502Y-52730342D01*
X77778158Y-52683849D01*
X77848432Y-52673745D01*
X77887703Y-52686196D01*
X78048753Y-52768255D01*
X78048761Y-52768259D01*
X78411586Y-52907534D01*
X78787005Y-53008127D01*
X79170886Y-53068928D01*
X79558995Y-53089268D01*
X79559007Y-53089268D01*
X79947115Y-53068928D01*
X80330996Y-53008127D01*
X80706415Y-52907534D01*
X81069240Y-52768259D01*
X81069248Y-52768255D01*
X81415536Y-52591813D01*
X81415542Y-52591809D01*
X81741502Y-52380129D01*
X81996913Y-52173300D01*
X80496423Y-50672810D01*
X80601331Y-50596591D01*
X80779413Y-50418509D01*
X80855632Y-50313601D01*
X82356122Y-51814091D01*
X82562951Y-51558680D01*
X82774631Y-51232720D01*
X82774635Y-51232714D01*
X82951077Y-50886426D01*
X82951081Y-50886419D01*
X82989684Y-50785853D01*
X83032769Y-50729425D01*
X83099522Y-50705248D01*
X83168750Y-50720999D01*
X83218472Y-50771676D01*
X83232903Y-50841191D01*
X83231886Y-50849928D01*
X80392329Y-69545192D01*
X80391976Y-69547389D01*
X80369656Y-69678676D01*
X80366079Y-69693914D01*
X80288944Y-69949875D01*
X80282584Y-69966584D01*
X80170468Y-70208036D01*
X80161806Y-70223677D01*
X80016640Y-70446835D01*
X80005853Y-70461092D01*
X79830571Y-70661450D01*
X79817874Y-70674037D01*
X79615997Y-70847570D01*
X79601646Y-70858234D01*
X79377230Y-71001452D01*
X79361514Y-71009976D01*
X79119103Y-71119982D01*
X79102340Y-71126197D01*
X78846783Y-71200791D01*
X78829308Y-71204570D01*
X78564681Y-71242397D01*
X78549057Y-71243646D01*
X78419650Y-71245911D01*
X78415920Y-71245977D01*
X78413716Y-71245996D01*
X66947705Y-71245996D01*
X66751315Y-71248335D01*
X66751313Y-71248335D01*
X66360429Y-71286834D01*
X66360424Y-71286834D01*
X66360423Y-71286835D01*
X66298551Y-71299141D01*
X65975195Y-71363459D01*
X65599318Y-71477479D01*
X65599308Y-71477482D01*
X65236425Y-71627793D01*
X64890021Y-71812948D01*
X64890006Y-71812957D01*
X64563436Y-72031164D01*
X64563431Y-72031167D01*
X64563431Y-72031168D01*
X64563362Y-72031225D01*
X64259799Y-72280351D01*
X64119259Y-72417591D01*
X60463053Y-76073797D01*
X60461884Y-76074952D01*
X60313319Y-76219692D01*
X60304463Y-76227544D01*
X59980964Y-76488282D01*
X59970033Y-76496166D01*
X59621239Y-76720408D01*
X59609529Y-76727080D01*
X59238763Y-76912793D01*
X59226407Y-76918175D01*
X58837172Y-77063506D01*
X58825901Y-77067121D01*
X58627209Y-77120695D01*
X58622588Y-77121848D01*
X58535169Y-77141908D01*
X58512459Y-77144981D01*
X58330137Y-77152905D01*
X58304164Y-77151345D01*
X58125650Y-77121906D01*
X58100552Y-77115044D01*
X57931897Y-77049569D01*
X57908742Y-77037698D01*
X57757128Y-76938973D01*
X57736906Y-76922598D01*
X57608806Y-76794837D01*
X57592378Y-76774659D01*
X57493250Y-76623308D01*
X57481318Y-76600186D01*
X57440616Y-76496166D01*
X57415392Y-76431702D01*
X57408464Y-76406624D01*
X57378551Y-76228190D01*
X57376922Y-76202221D01*
X57384298Y-76021446D01*
X57388035Y-75995711D01*
X57432390Y-75820290D01*
X57441332Y-75795875D01*
X57520771Y-75633307D01*
X57534540Y-75611246D01*
X57646659Y-75467203D01*
X57662275Y-75450516D01*
X57731048Y-75389259D01*
X59835941Y-73449850D01*
X59928409Y-73353406D01*
X60085205Y-73137087D01*
X60206230Y-72898904D01*
X60288506Y-72644720D01*
X60330007Y-72380795D01*
X60329709Y-72113627D01*
X60287622Y-71849795D01*
X60204780Y-71595795D01*
X60204779Y-71595791D01*
X60083231Y-71357893D01*
X60083228Y-71357889D01*
X60083225Y-71357882D01*
X59968825Y-71200791D01*
X59925950Y-71141915D01*
X59925946Y-71141911D01*
X59736836Y-70953217D01*
X59736827Y-70953209D01*
X59736823Y-70953205D01*
X59736820Y-70953203D01*
X59736818Y-70953201D01*
X59520507Y-70796408D01*
X59520508Y-70796408D01*
X59516812Y-70794530D01*
X59282324Y-70675378D01*
X59202791Y-70649633D01*
X59028144Y-70593099D01*
X58764218Y-70551595D01*
X58764217Y-70551595D01*
X58719689Y-70551644D01*
X58497045Y-70551889D01*
X58233215Y-70593973D01*
X57979215Y-70676811D01*
X57741304Y-70798360D01*
X57741299Y-70798363D01*
X57525332Y-70955634D01*
X57429105Y-71048362D01*
X57024943Y-71449688D01*
X57021979Y-71452537D01*
X56188070Y-72228227D01*
X56184573Y-72231360D01*
X55322586Y-72975239D01*
X55318976Y-72978239D01*
X54429631Y-73689688D01*
X54426378Y-73692204D01*
X53971647Y-74032247D01*
X53968789Y-74034322D01*
X53896336Y-74085399D01*
X53876740Y-74096726D01*
X53714105Y-74172137D01*
X53689938Y-74180484D01*
X53516880Y-74221170D01*
X53491526Y-74224466D01*
X53313814Y-74229379D01*
X53288317Y-74227489D01*
X53113274Y-74196427D01*
X53088683Y-74189429D01*
X52923509Y-74123669D01*
X52900837Y-74111850D01*
X52751080Y-74013272D01*
X52733405Y-73999214D01*
X52669037Y-73937835D01*
X52666895Y-73935743D01*
X51148733Y-72417582D01*
X51008162Y-72280408D01*
X51008157Y-72280404D01*
X51008153Y-72280400D01*
X50704530Y-72031225D01*
X50695943Y-72025487D01*
X50377949Y-71813010D01*
X50031547Y-71627856D01*
X49668668Y-71477546D01*
X49426961Y-71404226D01*
X49292801Y-71363530D01*
X49292797Y-71363529D01*
X49292790Y-71363527D01*
X48907574Y-71286904D01*
X48907569Y-71286903D01*
X48907564Y-71286902D01*
X48907554Y-71286901D01*
X48516700Y-71248406D01*
X48516697Y-71248405D01*
X48462129Y-71247735D01*
X48320293Y-71245996D01*
X48320254Y-71245996D01*
X36854247Y-71245996D01*
X36852068Y-71245977D01*
X36718960Y-71243674D01*
X36703309Y-71242425D01*
X36438694Y-71204589D01*
X36421222Y-71200811D01*
X36165665Y-71126209D01*
X36148902Y-71119994D01*
X35906486Y-71009979D01*
X35890772Y-71001455D01*
X35666361Y-70858235D01*
X35652011Y-70847572D01*
X35450131Y-70674036D01*
X35437435Y-70661450D01*
X35262148Y-70461090D01*
X35251361Y-70446835D01*
X35106185Y-70223667D01*
X35097530Y-70208036D01*
X34985410Y-69966591D01*
X34979049Y-69949883D01*
X34901906Y-69693927D01*
X34898326Y-69678668D01*
X34876023Y-69547374D01*
X34875672Y-69545194D01*
X34718212Y-68508500D01*
X32036117Y-50849932D01*
X32045663Y-50779580D01*
X32091728Y-50725557D01*
X32159688Y-50705015D01*
X32227966Y-50724476D01*
X32274883Y-50777761D01*
X32278319Y-50785857D01*
X32316920Y-50886418D01*
X32316924Y-50886426D01*
X32493366Y-51232714D01*
X32493370Y-51232720D01*
X32705043Y-51558670D01*
X32705055Y-51558687D01*
X32911877Y-51814090D01*
X32911878Y-51814091D01*
X34412368Y-50313600D01*
X34488589Y-50418509D01*
G37*
%TD.AperFunction*%
%TA.AperFunction,Conductor*%
G36*
X51061701Y-50993725D02*
G01*
X51118536Y-51036272D01*
X51143347Y-51102792D01*
X51137273Y-51151412D01*
X51122607Y-51195671D01*
X51122605Y-51195681D01*
X51112000Y-51299483D01*
X51112000Y-52600516D01*
X51122605Y-52704318D01*
X51122606Y-52704321D01*
X51178344Y-52872529D01*
X51229813Y-52955974D01*
X51229814Y-52955975D01*
X52131253Y-52054535D01*
X52152370Y-52133343D01*
X52214905Y-52241657D01*
X52303343Y-52330095D01*
X52411657Y-52392630D01*
X52490462Y-52413745D01*
X51633909Y-53270298D01*
X51633910Y-53270299D01*
X51715669Y-53297392D01*
X51715681Y-53297394D01*
X51819483Y-53307999D01*
X51819483Y-53308000D01*
X53370517Y-53308000D01*
X53370516Y-53307999D01*
X53452693Y-53299604D01*
X53522494Y-53312578D01*
X53574200Y-53361230D01*
X53591500Y-53424951D01*
X53591500Y-54199331D01*
X53594945Y-54216649D01*
X53630256Y-54394169D01*
X53640860Y-54419769D01*
X53706279Y-54577704D01*
X53816647Y-54742881D01*
X54857119Y-55783353D01*
X55022296Y-55893721D01*
X55205831Y-55969744D01*
X55400671Y-56008500D01*
X55599329Y-56008500D01*
X58847076Y-56008500D01*
X58915197Y-56028502D01*
X58961690Y-56082158D01*
X58971794Y-56152432D01*
X58942300Y-56217012D01*
X58936171Y-56223595D01*
X58906649Y-56253116D01*
X58906644Y-56253123D01*
X58796279Y-56418296D01*
X58720258Y-56601825D01*
X58720256Y-56601830D01*
X58681500Y-56796668D01*
X58681500Y-58519331D01*
X58711079Y-58668031D01*
X58713500Y-58692613D01*
X58713500Y-59932000D01*
X58716632Y-59975790D01*
X58718727Y-60005081D01*
X58740321Y-60078622D01*
X58759904Y-60145316D01*
X58838923Y-60268271D01*
X58942935Y-60358399D01*
X58981318Y-60418124D01*
X58981318Y-60489120D01*
X58942934Y-60548847D01*
X58928545Y-60559618D01*
X58890732Y-60583919D01*
X58890729Y-60583922D01*
X58795016Y-60694380D01*
X58734300Y-60827329D01*
X58713500Y-60972002D01*
X58713500Y-61011185D01*
X58693498Y-61079306D01*
X58692265Y-61081187D01*
X58583279Y-61244296D01*
X58507258Y-61427825D01*
X58507256Y-61427830D01*
X58468500Y-61622668D01*
X58468500Y-61622671D01*
X58468500Y-64599329D01*
X58506285Y-64789289D01*
X58507257Y-64794172D01*
X58524568Y-64835964D01*
X58557283Y-64914944D01*
X58583279Y-64977704D01*
X58693647Y-65142881D01*
X58693649Y-65142883D01*
X59827171Y-66276405D01*
X59861197Y-66338717D01*
X59856132Y-66409532D01*
X59813585Y-66466368D01*
X59747065Y-66491179D01*
X59738076Y-66491500D01*
X56294494Y-66491500D01*
X56226373Y-66471498D01*
X56205399Y-66454595D01*
X54602405Y-64851601D01*
X54568379Y-64789289D01*
X54565500Y-64762506D01*
X54565500Y-62515790D01*
X54566782Y-62497860D01*
X54570500Y-62471998D01*
X54570500Y-60972005D01*
X54568301Y-60941263D01*
X54565821Y-60906581D01*
X54565500Y-60897593D01*
X54565500Y-59975790D01*
X54566782Y-59957860D01*
X54570500Y-59931998D01*
X54570500Y-58432005D01*
X54570500Y-58432000D01*
X54565273Y-58358921D01*
X54524096Y-58218684D01*
X54447233Y-58099084D01*
X54991500Y-58099084D01*
X54991500Y-58312916D01*
X55024193Y-58519329D01*
X55024952Y-58524121D01*
X55083231Y-58703486D01*
X55091028Y-58727483D01*
X55188106Y-58918009D01*
X55313794Y-59091004D01*
X55313796Y-59091006D01*
X55313798Y-59091009D01*
X55464990Y-59242201D01*
X55464993Y-59242203D01*
X55464996Y-59242206D01*
X55542894Y-59298802D01*
X55618955Y-59354064D01*
X55662309Y-59410286D01*
X55668384Y-59481023D01*
X55635252Y-59543814D01*
X55618955Y-59557936D01*
X55464993Y-59669796D01*
X55464990Y-59669798D01*
X55313798Y-59820990D01*
X55313796Y-59820993D01*
X55188108Y-59993987D01*
X55091029Y-60184515D01*
X55091026Y-60184521D01*
X55024952Y-60387878D01*
X55024951Y-60387883D01*
X55024951Y-60387884D01*
X54991500Y-60599084D01*
X54991500Y-60812916D01*
X55022385Y-61007915D01*
X55024952Y-61024121D01*
X55079706Y-61192637D01*
X55091028Y-61227483D01*
X55188106Y-61418009D01*
X55313794Y-61591004D01*
X55313796Y-61591006D01*
X55313798Y-61591009D01*
X55444468Y-61721679D01*
X55478494Y-61783991D01*
X55473429Y-61854806D01*
X55430882Y-61911642D01*
X55421520Y-61918015D01*
X55276660Y-62007365D01*
X55276654Y-62007370D01*
X55151370Y-62132654D01*
X55151365Y-62132660D01*
X55058342Y-62283474D01*
X55002606Y-62451678D01*
X55002605Y-62451681D01*
X54992000Y-62555483D01*
X54992000Y-62952000D01*
X56073164Y-62952000D01*
X56032370Y-63022657D01*
X56000000Y-63143465D01*
X56000000Y-63268535D01*
X56032370Y-63389343D01*
X56073164Y-63460000D01*
X54992000Y-63460000D01*
X54992000Y-63856516D01*
X55002605Y-63960318D01*
X55002606Y-63960321D01*
X55058342Y-64128525D01*
X55151365Y-64279339D01*
X55151370Y-64279345D01*
X55276654Y-64404629D01*
X55276660Y-64404634D01*
X55427474Y-64497657D01*
X55595678Y-64553393D01*
X55595681Y-64553394D01*
X55699483Y-64563999D01*
X55699483Y-64564000D01*
X56221000Y-64564000D01*
X56221000Y-63607836D01*
X56291657Y-63648630D01*
X56412465Y-63681000D01*
X56537535Y-63681000D01*
X56658343Y-63648630D01*
X56729000Y-63607836D01*
X56729000Y-64564000D01*
X57250517Y-64564000D01*
X57250516Y-64563999D01*
X57354318Y-64553394D01*
X57354321Y-64553393D01*
X57522525Y-64497657D01*
X57673339Y-64404634D01*
X57673345Y-64404629D01*
X57798629Y-64279345D01*
X57798634Y-64279339D01*
X57891657Y-64128525D01*
X57947393Y-63960321D01*
X57947394Y-63960318D01*
X57957999Y-63856516D01*
X57958000Y-63856516D01*
X57958000Y-63460000D01*
X56876836Y-63460000D01*
X56917630Y-63389343D01*
X56950000Y-63268535D01*
X56950000Y-63143465D01*
X56917630Y-63022657D01*
X56876836Y-62952000D01*
X57958000Y-62952000D01*
X57958000Y-62555483D01*
X57947394Y-62451681D01*
X57947393Y-62451678D01*
X57891657Y-62283474D01*
X57798634Y-62132660D01*
X57798629Y-62132654D01*
X57673345Y-62007370D01*
X57673339Y-62007365D01*
X57528479Y-61918015D01*
X57481001Y-61865229D01*
X57469598Y-61795154D01*
X57497890Y-61730039D01*
X57505520Y-61721689D01*
X57636206Y-61591004D01*
X57761894Y-61418009D01*
X57858972Y-61227483D01*
X57925049Y-61024116D01*
X57958500Y-60812916D01*
X57958500Y-60599084D01*
X57925049Y-60387884D01*
X57858972Y-60184517D01*
X57761894Y-59993991D01*
X57636206Y-59820996D01*
X57636203Y-59820993D01*
X57636201Y-59820990D01*
X57485009Y-59669798D01*
X57485006Y-59669796D01*
X57485004Y-59669794D01*
X57331043Y-59557935D01*
X57287690Y-59501714D01*
X57281615Y-59430978D01*
X57314746Y-59368186D01*
X57331044Y-59354064D01*
X57485004Y-59242206D01*
X57636206Y-59091004D01*
X57761894Y-58918009D01*
X57858972Y-58727483D01*
X57925049Y-58524116D01*
X57958500Y-58312916D01*
X57958500Y-58099084D01*
X57925049Y-57887884D01*
X57858972Y-57684517D01*
X57761894Y-57493991D01*
X57636206Y-57320996D01*
X57636203Y-57320993D01*
X57636201Y-57320990D01*
X57485009Y-57169798D01*
X57485006Y-57169796D01*
X57485004Y-57169794D01*
X57312009Y-57044106D01*
X57121483Y-56947028D01*
X57121480Y-56947027D01*
X57121478Y-56947026D01*
X56918120Y-56880952D01*
X56918123Y-56880952D01*
X56878801Y-56874724D01*
X56706916Y-56847500D01*
X56243084Y-56847500D01*
X56031884Y-56880951D01*
X56031878Y-56880952D01*
X55828521Y-56947026D01*
X55828515Y-56947029D01*
X55637987Y-57044108D01*
X55464993Y-57169796D01*
X55464990Y-57169798D01*
X55313798Y-57320990D01*
X55313796Y-57320993D01*
X55188108Y-57493987D01*
X55091029Y-57684515D01*
X55091026Y-57684521D01*
X55024952Y-57887878D01*
X55024951Y-57887883D01*
X55024951Y-57887884D01*
X54991500Y-58099084D01*
X54447233Y-58099084D01*
X54445077Y-58095729D01*
X54334619Y-58000016D01*
X54201670Y-57939300D01*
X54057000Y-57918500D01*
X54056997Y-57918500D01*
X53458500Y-57918500D01*
X53390379Y-57898498D01*
X53343886Y-57844842D01*
X53332500Y-57792500D01*
X53332500Y-56796672D01*
X53332499Y-56796668D01*
X53293744Y-56601831D01*
X53217721Y-56418296D01*
X53107353Y-56253119D01*
X52966881Y-56112647D01*
X52801704Y-56002279D01*
X52618169Y-55926256D01*
X52614102Y-55925447D01*
X52423331Y-55887500D01*
X52423329Y-55887500D01*
X52224671Y-55887500D01*
X52224668Y-55887500D01*
X52029830Y-55926256D01*
X52029825Y-55926258D01*
X51846296Y-56002279D01*
X51681123Y-56112644D01*
X51681116Y-56112649D01*
X51540649Y-56253116D01*
X51540644Y-56253123D01*
X51430279Y-56418296D01*
X51354258Y-56601825D01*
X51354256Y-56601830D01*
X51315500Y-56796668D01*
X51315500Y-57707012D01*
X51295498Y-57775133D01*
X51294265Y-57777014D01*
X51180804Y-57946820D01*
X51104783Y-58130351D01*
X51104781Y-58130356D01*
X51066025Y-58325193D01*
X51066025Y-58523856D01*
X51091079Y-58649807D01*
X51093500Y-58674389D01*
X51093500Y-59932000D01*
X51096632Y-59975790D01*
X51098727Y-60005081D01*
X51120321Y-60078622D01*
X51139904Y-60145316D01*
X51218923Y-60268271D01*
X51322935Y-60358399D01*
X51361318Y-60418124D01*
X51361318Y-60489120D01*
X51322934Y-60548847D01*
X51308545Y-60559618D01*
X51270732Y-60583919D01*
X51270729Y-60583922D01*
X51175016Y-60694380D01*
X51114300Y-60827329D01*
X51093500Y-60972002D01*
X51093500Y-62211385D01*
X51091079Y-62235966D01*
X51061500Y-62384665D01*
X51061500Y-62619500D01*
X51041498Y-62687621D01*
X50987842Y-62734114D01*
X50935500Y-62745500D01*
X48544428Y-62745500D01*
X48476307Y-62725498D01*
X48429814Y-62671842D01*
X48419710Y-62601568D01*
X48449204Y-62536988D01*
X48471493Y-62517322D01*
X48471340Y-62517122D01*
X48474266Y-62514876D01*
X48474429Y-62514733D01*
X48474595Y-62514620D01*
X48474612Y-62514611D01*
X48656661Y-62374919D01*
X48818919Y-62212661D01*
X48958611Y-62030612D01*
X49073344Y-61831888D01*
X49161158Y-61619887D01*
X49220548Y-61398238D01*
X49250500Y-61170734D01*
X49250500Y-60941266D01*
X49220548Y-60713762D01*
X49161158Y-60492113D01*
X49073344Y-60280112D01*
X49073338Y-60280103D01*
X49073337Y-60280099D01*
X48958613Y-60081391D01*
X48958608Y-60081384D01*
X48818926Y-59899347D01*
X48818907Y-59899326D01*
X48656673Y-59737092D01*
X48656652Y-59737073D01*
X48474615Y-59597391D01*
X48474608Y-59597386D01*
X48275900Y-59482662D01*
X48275892Y-59482658D01*
X48275888Y-59482656D01*
X48063887Y-59394842D01*
X47842238Y-59335452D01*
X47842231Y-59335450D01*
X47614736Y-59305500D01*
X47614734Y-59305500D01*
X47385266Y-59305500D01*
X47385263Y-59305500D01*
X47157768Y-59335450D01*
X47013259Y-59374171D01*
X46936113Y-59394842D01*
X46728055Y-59481023D01*
X46724110Y-59482657D01*
X46724099Y-59482662D01*
X46525391Y-59597386D01*
X46525384Y-59597391D01*
X46343347Y-59737073D01*
X46343326Y-59737092D01*
X46181092Y-59899326D01*
X46181073Y-59899347D01*
X46041391Y-60081384D01*
X46041386Y-60081391D01*
X45926662Y-60280099D01*
X45926657Y-60280110D01*
X45926656Y-60280112D01*
X45858150Y-60445500D01*
X45838842Y-60492113D01*
X45779450Y-60713768D01*
X45749500Y-60941263D01*
X45749500Y-61170736D01*
X45779450Y-61398231D01*
X45824279Y-61565536D01*
X45822589Y-61636513D01*
X45782794Y-61695308D01*
X45717530Y-61723256D01*
X45647516Y-61711482D01*
X45613477Y-61687242D01*
X41812405Y-57886170D01*
X41778379Y-57823858D01*
X41775500Y-57797075D01*
X41775500Y-53632123D01*
X41795502Y-53564002D01*
X41812400Y-53543033D01*
X43668029Y-51687403D01*
X43730341Y-51653378D01*
X43757124Y-51650499D01*
X43980544Y-51650499D01*
X44084426Y-51639887D01*
X44084429Y-51639886D01*
X44084431Y-51639886D01*
X44175867Y-51609587D01*
X44246821Y-51607146D01*
X44307832Y-51643454D01*
X44339527Y-51706983D01*
X44341500Y-51729191D01*
X44341500Y-53064860D01*
X44366806Y-53192077D01*
X44366807Y-53192080D01*
X44379219Y-53222046D01*
X44416445Y-53311917D01*
X44488509Y-53419769D01*
X44488513Y-53419773D01*
X45304595Y-54235855D01*
X45338621Y-54298167D01*
X45341500Y-54324950D01*
X45341500Y-55334635D01*
X45321498Y-55402756D01*
X45289562Y-55436570D01*
X45180141Y-55516069D01*
X45040071Y-55656139D01*
X44923636Y-55816398D01*
X44923634Y-55816402D01*
X44833702Y-55992903D01*
X44772488Y-56181300D01*
X44741500Y-56376954D01*
X44741500Y-57095046D01*
X44772488Y-57290700D01*
X44833702Y-57479097D01*
X44923634Y-57655598D01*
X44923636Y-57655601D01*
X45040071Y-57815860D01*
X45180139Y-57955928D01*
X45240821Y-58000016D01*
X45340402Y-58072366D01*
X45516903Y-58162298D01*
X45705300Y-58223512D01*
X45900954Y-58254500D01*
X45900957Y-58254500D01*
X46099043Y-58254500D01*
X46099046Y-58254500D01*
X46294700Y-58223512D01*
X46483097Y-58162298D01*
X46659598Y-58072366D01*
X46819858Y-57955930D01*
X46959930Y-57815858D01*
X47076366Y-57655598D01*
X47166298Y-57479097D01*
X47227512Y-57290700D01*
X47258500Y-57095046D01*
X47258500Y-56376954D01*
X47227512Y-56181300D01*
X47166298Y-55992903D01*
X47076366Y-55816402D01*
X46959930Y-55656142D01*
X46959928Y-55656139D01*
X46819858Y-55516069D01*
X46710438Y-55436570D01*
X46667085Y-55380348D01*
X46658500Y-55334635D01*
X46658500Y-53935145D01*
X46658499Y-53935140D01*
X46654301Y-53914036D01*
X46654300Y-53914031D01*
X46650383Y-53894338D01*
X46656711Y-53823624D01*
X46700266Y-53767557D01*
X46767219Y-53743939D01*
X46836313Y-53760266D01*
X46863057Y-53780663D01*
X48181490Y-55099096D01*
X48215516Y-55161408D01*
X48210451Y-55232223D01*
X48167904Y-55289059D01*
X48158546Y-55295429D01*
X48135405Y-55309703D01*
X48026348Y-55376970D01*
X48026342Y-55376975D01*
X47900975Y-55502342D01*
X47900970Y-55502348D01*
X47807886Y-55653260D01*
X47807885Y-55653262D01*
X47752112Y-55821578D01*
X47741500Y-55925447D01*
X47741500Y-57546552D01*
X47741499Y-57546552D01*
X47752112Y-57650421D01*
X47752112Y-57650423D01*
X47752113Y-57650425D01*
X47807885Y-57818738D01*
X47892507Y-57955930D01*
X47900970Y-57969651D01*
X47900975Y-57969657D01*
X48026342Y-58095024D01*
X48026348Y-58095029D01*
X48026349Y-58095030D01*
X48177262Y-58188115D01*
X48345575Y-58243887D01*
X48373906Y-58246781D01*
X48449448Y-58254500D01*
X48449456Y-58254500D01*
X49550552Y-58254500D01*
X49619798Y-58247424D01*
X49654425Y-58243887D01*
X49822738Y-58188115D01*
X49973651Y-58095030D01*
X50099030Y-57969651D01*
X50192115Y-57818738D01*
X50247887Y-57650425D01*
X50255518Y-57575734D01*
X50258500Y-57546552D01*
X50258500Y-55925447D01*
X50247887Y-55821578D01*
X50247887Y-55821575D01*
X50192115Y-55653262D01*
X50099030Y-55502349D01*
X50099029Y-55502348D01*
X50099024Y-55502342D01*
X49973657Y-55376975D01*
X49973651Y-55376970D01*
X49822738Y-55283885D01*
X49744865Y-55258081D01*
X49686496Y-55217668D01*
X49659240Y-55152111D01*
X49658500Y-55138477D01*
X49658500Y-54921488D01*
X49658499Y-54921485D01*
X49637038Y-54813595D01*
X49633194Y-54794269D01*
X49583555Y-54674429D01*
X49511491Y-54566577D01*
X48966878Y-54021964D01*
X48932852Y-53959652D01*
X48937917Y-53888837D01*
X48980464Y-53832001D01*
X48983702Y-53829656D01*
X48986746Y-53827524D01*
X48986749Y-53827523D01*
X49174300Y-53696198D01*
X49336198Y-53534300D01*
X49467523Y-53346749D01*
X49564284Y-53139243D01*
X49623543Y-52918087D01*
X49643498Y-52690000D01*
X49623543Y-52461913D01*
X49614011Y-52426340D01*
X49615699Y-52355369D01*
X49646620Y-52304638D01*
X50928574Y-51022685D01*
X50990885Y-50988660D01*
X51061701Y-50993725D01*
G37*
%TD.AperFunction*%
%TA.AperFunction,Conductor*%
G36*
X65841407Y-30246006D02*
G01*
X65850791Y-30246126D01*
X66045591Y-30248619D01*
X66057218Y-30249307D01*
X66464064Y-30292338D01*
X66477150Y-30294424D01*
X66876421Y-30379836D01*
X66889212Y-30383285D01*
X67277303Y-30510223D01*
X67289655Y-30514997D01*
X67662226Y-30682039D01*
X67674030Y-30688097D01*
X68026959Y-30893393D01*
X68038058Y-30900657D01*
X68367438Y-31141933D01*
X68377716Y-31150328D01*
X68680497Y-31425458D01*
X68688746Y-31433682D01*
X68826506Y-31584335D01*
X68827594Y-31585540D01*
X81738397Y-46075060D01*
X81768781Y-46139226D01*
X81759651Y-46209633D01*
X81713906Y-46263928D01*
X81646069Y-46284871D01*
X81577677Y-46265814D01*
X81575700Y-46264556D01*
X81415542Y-46160548D01*
X81415536Y-46160544D01*
X81069248Y-45984102D01*
X81069240Y-45984098D01*
X80706415Y-45844823D01*
X80330996Y-45744230D01*
X79947115Y-45683429D01*
X79559007Y-45663090D01*
X79558995Y-45663090D01*
X79170886Y-45683429D01*
X78787005Y-45744230D01*
X78411586Y-45844823D01*
X78048761Y-45984098D01*
X78048753Y-45984102D01*
X77702456Y-46160550D01*
X77376503Y-46372226D01*
X77121087Y-46579056D01*
X78621578Y-48079547D01*
X78516671Y-48155767D01*
X78338589Y-48333849D01*
X78262369Y-48438756D01*
X76761878Y-46938265D01*
X76555048Y-47193681D01*
X76343372Y-47519634D01*
X76166924Y-47865931D01*
X76166920Y-47865939D01*
X76027645Y-48228764D01*
X75927052Y-48604183D01*
X75866251Y-48988064D01*
X75845912Y-49376172D01*
X75845912Y-49376185D01*
X75849534Y-49445300D01*
X75833125Y-49514374D01*
X75781976Y-49563611D01*
X75712327Y-49577379D01*
X75646291Y-49551306D01*
X75634612Y-49540989D01*
X75111405Y-49017782D01*
X75077379Y-48955470D01*
X75074500Y-48928687D01*
X75074500Y-45861749D01*
X75074500Y-45861742D01*
X75049256Y-45670000D01*
X75044412Y-45633204D01*
X75044411Y-45633202D01*
X75044411Y-45633198D01*
X74994451Y-45446744D01*
X74984749Y-45410535D01*
X74955677Y-45340350D01*
X74938182Y-45298112D01*
X74938170Y-45298085D01*
X74896538Y-45197573D01*
X74896530Y-45197558D01*
X74781273Y-44997928D01*
X74721301Y-44919771D01*
X74721297Y-44919768D01*
X74640952Y-44815058D01*
X74640937Y-44815041D01*
X70661958Y-40836062D01*
X70661941Y-40836047D01*
X70479066Y-40695723D01*
X70279445Y-40580472D01*
X70279439Y-40580469D01*
X70279436Y-40580467D01*
X70279433Y-40580466D01*
X70096163Y-40504552D01*
X70040885Y-40460005D01*
X70018464Y-40392642D01*
X70036022Y-40323851D01*
X70087985Y-40275472D01*
X70091094Y-40273968D01*
X70131654Y-40255056D01*
X70312038Y-40128749D01*
X70467749Y-39973038D01*
X70594056Y-39792654D01*
X70687120Y-39593076D01*
X70744115Y-39380371D01*
X70763307Y-39161000D01*
X70744115Y-38941629D01*
X70687120Y-38728924D01*
X70594056Y-38529347D01*
X70467749Y-38348962D01*
X70312038Y-38193251D01*
X70131654Y-38066944D01*
X70131650Y-38066942D01*
X69932079Y-37973881D01*
X69932073Y-37973879D01*
X69842178Y-37949791D01*
X69719371Y-37916885D01*
X69500000Y-37897693D01*
X69280629Y-37916885D01*
X69067926Y-37973879D01*
X69067920Y-37973881D01*
X68868346Y-38066944D01*
X68687965Y-38193248D01*
X68687959Y-38193253D01*
X68532253Y-38348959D01*
X68532248Y-38348965D01*
X68405944Y-38529346D01*
X68312881Y-38728920D01*
X68312879Y-38728926D01*
X68255885Y-38941629D01*
X68236693Y-39161000D01*
X68245090Y-39256986D01*
X68255885Y-39380370D01*
X68312833Y-39592903D01*
X68312880Y-39593076D01*
X68405944Y-39792654D01*
X68481249Y-39900200D01*
X68532251Y-39973038D01*
X68532254Y-39973042D01*
X68687957Y-40128745D01*
X68687961Y-40128748D01*
X68687962Y-40128749D01*
X68868346Y-40255056D01*
X68868351Y-40255058D01*
X68868351Y-40255059D01*
X68908864Y-40273950D01*
X68962150Y-40320867D01*
X68981611Y-40389144D01*
X68961070Y-40457104D01*
X68907047Y-40503170D01*
X68903854Y-40504545D01*
X68765942Y-40561671D01*
X68720560Y-40580469D01*
X68720554Y-40580472D01*
X68520933Y-40695723D01*
X68338058Y-40836047D01*
X68338041Y-40836062D01*
X68175062Y-40999041D01*
X68175047Y-40999058D01*
X68034723Y-41181933D01*
X67919472Y-41381554D01*
X67919469Y-41381560D01*
X67919466Y-41381566D01*
X67919466Y-41381567D01*
X67858254Y-41529346D01*
X67843554Y-41564834D01*
X67799005Y-41620114D01*
X67731642Y-41642535D01*
X67662850Y-41624976D01*
X67614472Y-41573014D01*
X67612950Y-41569865D01*
X67607727Y-41558665D01*
X67594056Y-41529347D01*
X67467749Y-41348962D01*
X67312038Y-41193251D01*
X67312032Y-41193247D01*
X67262903Y-41158846D01*
X67131654Y-41066944D01*
X67131650Y-41066942D01*
X66932079Y-40973881D01*
X66932073Y-40973879D01*
X66806416Y-40940209D01*
X66719371Y-40916885D01*
X66500000Y-40897693D01*
X66499997Y-40897693D01*
X66499995Y-40897693D01*
X66494499Y-40897693D01*
X66494499Y-40895271D01*
X66434934Y-40883246D01*
X66383985Y-40833801D01*
X66367856Y-40764661D01*
X66391668Y-40697776D01*
X66404555Y-40682677D01*
X66646119Y-40441113D01*
X66708429Y-40407089D01*
X66713991Y-40406245D01*
X66713960Y-40406069D01*
X66719366Y-40405116D01*
X66719369Y-40405115D01*
X66719371Y-40405115D01*
X66932076Y-40348120D01*
X67131654Y-40255056D01*
X67312038Y-40128749D01*
X67467749Y-39973038D01*
X67594056Y-39792654D01*
X67687120Y-39593076D01*
X67744115Y-39380371D01*
X67763307Y-39161000D01*
X67744115Y-38941629D01*
X67687120Y-38728924D01*
X67594056Y-38529347D01*
X67467749Y-38348962D01*
X67312038Y-38193251D01*
X67131654Y-38066944D01*
X67131650Y-38066942D01*
X66932079Y-37973881D01*
X66932073Y-37973879D01*
X66842178Y-37949791D01*
X66719371Y-37916885D01*
X66500000Y-37897693D01*
X66280629Y-37916885D01*
X66067926Y-37973879D01*
X66067920Y-37973881D01*
X65868346Y-38066944D01*
X65687965Y-38193248D01*
X65687959Y-38193253D01*
X65532253Y-38348959D01*
X65532248Y-38348965D01*
X65405944Y-38529346D01*
X65312881Y-38728920D01*
X65312879Y-38728926D01*
X65255884Y-38941632D01*
X65254929Y-38947051D01*
X65252491Y-38946621D01*
X65230342Y-39003020D01*
X65219884Y-39014880D01*
X64977778Y-39256986D01*
X64915466Y-39291012D01*
X64844651Y-39285947D01*
X64787815Y-39243400D01*
X64763004Y-39176880D01*
X64763088Y-39166501D01*
X64762805Y-39166501D01*
X64762805Y-39161006D01*
X64743619Y-38941712D01*
X64686649Y-38729096D01*
X64686647Y-38729092D01*
X64593621Y-38529598D01*
X64551198Y-38469012D01*
X64551197Y-38469012D01*
X63992323Y-39027886D01*
X63975245Y-38964147D01*
X63908102Y-38847853D01*
X63813147Y-38752898D01*
X63696853Y-38685755D01*
X63633112Y-38668676D01*
X64191986Y-38109801D01*
X64191986Y-38109800D01*
X64131401Y-38067378D01*
X64131402Y-38067378D01*
X63931907Y-37974352D01*
X63931903Y-37974350D01*
X63719287Y-37917380D01*
X63500000Y-37898195D01*
X63280712Y-37917380D01*
X63068096Y-37974350D01*
X63068092Y-37974352D01*
X62868598Y-38067378D01*
X62808011Y-38109801D01*
X63366886Y-38668676D01*
X63303147Y-38685755D01*
X63186853Y-38752898D01*
X63091898Y-38847853D01*
X63024755Y-38964147D01*
X63007676Y-39027886D01*
X62448801Y-38469011D01*
X62406378Y-38529598D01*
X62313352Y-38729092D01*
X62313350Y-38729096D01*
X62256380Y-38941712D01*
X62237195Y-39161000D01*
X62256380Y-39380287D01*
X62313350Y-39592903D01*
X62313352Y-39592907D01*
X62406378Y-39792402D01*
X62448801Y-39852986D01*
X63007675Y-39294111D01*
X63024755Y-39357853D01*
X63091898Y-39474147D01*
X63186853Y-39569102D01*
X63303147Y-39636245D01*
X63366886Y-39653323D01*
X62808012Y-40212197D01*
X62868600Y-40254622D01*
X63068092Y-40347647D01*
X63068096Y-40347649D01*
X63280712Y-40404619D01*
X63500000Y-40423804D01*
X63719287Y-40404619D01*
X63844103Y-40371175D01*
X63915079Y-40372865D01*
X63973875Y-40412659D01*
X64001823Y-40477923D01*
X64000293Y-40517463D01*
X63991500Y-40561665D01*
X63991500Y-40825595D01*
X63971498Y-40893716D01*
X63917842Y-40940209D01*
X63847568Y-40950313D01*
X63832889Y-40947302D01*
X63743278Y-40923291D01*
X63719371Y-40916885D01*
X63500000Y-40897693D01*
X63280629Y-40916885D01*
X63067926Y-40973879D01*
X63067920Y-40973881D01*
X62868346Y-41066944D01*
X62687965Y-41193248D01*
X62687959Y-41193253D01*
X62532253Y-41348959D01*
X62532248Y-41348965D01*
X62405944Y-41529346D01*
X62312881Y-41728920D01*
X62312879Y-41728926D01*
X62255885Y-41941629D01*
X62236693Y-42161000D01*
X62255885Y-42380370D01*
X62312879Y-42593073D01*
X62312881Y-42593079D01*
X62375546Y-42727465D01*
X62405944Y-42792654D01*
X62522272Y-42958786D01*
X62532251Y-42973038D01*
X62532254Y-42973042D01*
X62687957Y-43128745D01*
X62687961Y-43128748D01*
X62687962Y-43128749D01*
X62868346Y-43255056D01*
X63067924Y-43348120D01*
X63280629Y-43405115D01*
X63500000Y-43424307D01*
X63719371Y-43405115D01*
X63932076Y-43348120D01*
X63932077Y-43348119D01*
X63933829Y-43347650D01*
X64004805Y-43349340D01*
X64063601Y-43389134D01*
X64082848Y-43421138D01*
X64106279Y-43477704D01*
X64216647Y-43642881D01*
X65117119Y-44543353D01*
X65282296Y-44653721D01*
X65370213Y-44690137D01*
X65371298Y-44690587D01*
X65426579Y-44735136D01*
X65449000Y-44802499D01*
X65431442Y-44871290D01*
X65426293Y-44879266D01*
X65332478Y-45013247D01*
X65235717Y-45220753D01*
X65235715Y-45220759D01*
X65184865Y-45410535D01*
X65176457Y-45441913D01*
X65156502Y-45670000D01*
X65176457Y-45898087D01*
X65180802Y-45914302D01*
X65235715Y-46119240D01*
X65235717Y-46119246D01*
X65332477Y-46326749D01*
X65403734Y-46428515D01*
X65463802Y-46514300D01*
X65625700Y-46676198D01*
X65813251Y-46807523D01*
X66020757Y-46904284D01*
X66241913Y-46963543D01*
X66470000Y-46983498D01*
X66698087Y-46963543D01*
X66919243Y-46904284D01*
X67126749Y-46807523D01*
X67314300Y-46676198D01*
X67476198Y-46514300D01*
X67559287Y-46395637D01*
X67614744Y-46351309D01*
X67685363Y-46344000D01*
X67748724Y-46376031D01*
X67784709Y-46437232D01*
X67788500Y-46467908D01*
X67788500Y-51991233D01*
X67768498Y-52059354D01*
X67714842Y-52105847D01*
X67644568Y-52115951D01*
X67586991Y-52092101D01*
X67516207Y-52039112D01*
X67516202Y-52039110D01*
X67379204Y-51988011D01*
X67379196Y-51988009D01*
X67318649Y-51981500D01*
X67318638Y-51981500D01*
X65621362Y-51981500D01*
X65621350Y-51981500D01*
X65560803Y-51988009D01*
X65560795Y-51988011D01*
X65423797Y-52039110D01*
X65423792Y-52039112D01*
X65306738Y-52126738D01*
X65219112Y-52243792D01*
X65219110Y-52243797D01*
X65168011Y-52380795D01*
X65168009Y-52380803D01*
X65161500Y-52441350D01*
X65161500Y-54138649D01*
X65168009Y-54199196D01*
X65168011Y-54199204D01*
X65219110Y-54336202D01*
X65219112Y-54336207D01*
X65306738Y-54453261D01*
X65423792Y-54540887D01*
X65423794Y-54540888D01*
X65423796Y-54540889D01*
X65482875Y-54562924D01*
X65560795Y-54591988D01*
X65560803Y-54591990D01*
X65621350Y-54598499D01*
X65621355Y-54598499D01*
X65621362Y-54598500D01*
X66122076Y-54598500D01*
X66190197Y-54618502D01*
X66236690Y-54672158D01*
X66246794Y-54742432D01*
X66217300Y-54807012D01*
X66211171Y-54813595D01*
X64214171Y-56810595D01*
X64151859Y-56844621D01*
X64125076Y-56847500D01*
X64013084Y-56847500D01*
X63801884Y-56880951D01*
X63801878Y-56880952D01*
X63598521Y-56947026D01*
X63598515Y-56947029D01*
X63407987Y-57044108D01*
X63234993Y-57169796D01*
X63234990Y-57169798D01*
X63083798Y-57320990D01*
X63083796Y-57320993D01*
X62958108Y-57493987D01*
X62861029Y-57684515D01*
X62861026Y-57684521D01*
X62794952Y-57887878D01*
X62794951Y-57887883D01*
X62794951Y-57887884D01*
X62761500Y-58099084D01*
X62761500Y-58312916D01*
X62794193Y-58519329D01*
X62794952Y-58524121D01*
X62853231Y-58703486D01*
X62861028Y-58727483D01*
X62958106Y-58918009D01*
X63083794Y-59091004D01*
X63083796Y-59091006D01*
X63083798Y-59091009D01*
X63234990Y-59242201D01*
X63234993Y-59242203D01*
X63234996Y-59242206D01*
X63312894Y-59298802D01*
X63388955Y-59354064D01*
X63432309Y-59410286D01*
X63438384Y-59481023D01*
X63405252Y-59543814D01*
X63388955Y-59557936D01*
X63234993Y-59669796D01*
X63234990Y-59669798D01*
X63083798Y-59820990D01*
X63083796Y-59820993D01*
X62958108Y-59993987D01*
X62861029Y-60184515D01*
X62861026Y-60184521D01*
X62794952Y-60387878D01*
X62794951Y-60387883D01*
X62794951Y-60387884D01*
X62761500Y-60599084D01*
X62761500Y-60812916D01*
X62792385Y-61007915D01*
X62794952Y-61024121D01*
X62849706Y-61192637D01*
X62861028Y-61227483D01*
X62958106Y-61418009D01*
X63083794Y-61591004D01*
X63083796Y-61591006D01*
X63083798Y-61591009D01*
X63234990Y-61742201D01*
X63234993Y-61742203D01*
X63234996Y-61742206D01*
X63237839Y-61744272D01*
X63238659Y-61745334D01*
X63238758Y-61745419D01*
X63238740Y-61745439D01*
X63281193Y-61800493D01*
X63287270Y-61871229D01*
X63286383Y-61875265D01*
X63283909Y-61885700D01*
X64140463Y-62742254D01*
X64061657Y-62763370D01*
X63953343Y-62825905D01*
X63864905Y-62914343D01*
X63802370Y-63022657D01*
X63781254Y-63101463D01*
X62879814Y-62200023D01*
X62828342Y-62283474D01*
X62772606Y-62451678D01*
X62772605Y-62451681D01*
X62762000Y-62555483D01*
X62762000Y-63856516D01*
X62772605Y-63960318D01*
X62772606Y-63960321D01*
X62828344Y-64128529D01*
X62879813Y-64211974D01*
X62879814Y-64211975D01*
X63781253Y-63310535D01*
X63802370Y-63389343D01*
X63864905Y-63497657D01*
X63953343Y-63586095D01*
X64061657Y-63648630D01*
X64140462Y-63669745D01*
X63283909Y-64526298D01*
X63283910Y-64526299D01*
X63365669Y-64553392D01*
X63365681Y-64553394D01*
X63469483Y-64563999D01*
X63469483Y-64564000D01*
X65020517Y-64564000D01*
X65020516Y-64563999D01*
X65124318Y-64553394D01*
X65124330Y-64553392D01*
X65206089Y-64526299D01*
X65206090Y-64526298D01*
X64349537Y-63669745D01*
X64428343Y-63648630D01*
X64536657Y-63586095D01*
X64625095Y-63497657D01*
X64687630Y-63389343D01*
X64708746Y-63310536D01*
X65610184Y-64211974D01*
X65610185Y-64211974D01*
X65661655Y-64128529D01*
X65661656Y-64128527D01*
X65717393Y-63960321D01*
X65717394Y-63960318D01*
X65727999Y-63856516D01*
X65728000Y-63856516D01*
X65728000Y-62555483D01*
X65717394Y-62451681D01*
X65717393Y-62451678D01*
X65661656Y-62283472D01*
X65610185Y-62200024D01*
X65610184Y-62200023D01*
X64708745Y-63101462D01*
X64687630Y-63022657D01*
X64625095Y-62914343D01*
X64536657Y-62825905D01*
X64428343Y-62763370D01*
X64349536Y-62742254D01*
X65206088Y-61885701D01*
X65203616Y-61875267D01*
X65207368Y-61804370D01*
X65248855Y-61746756D01*
X65252139Y-61744287D01*
X65255004Y-61742206D01*
X65406206Y-61591004D01*
X65531894Y-61418009D01*
X65628972Y-61227483D01*
X65695049Y-61024116D01*
X65728500Y-60812916D01*
X65728500Y-60599084D01*
X65695049Y-60387884D01*
X65628972Y-60184517D01*
X65531894Y-59993991D01*
X65406206Y-59820996D01*
X65406203Y-59820993D01*
X65406201Y-59820990D01*
X65255009Y-59669798D01*
X65255006Y-59669796D01*
X65255004Y-59669794D01*
X65101043Y-59557935D01*
X65057690Y-59501714D01*
X65051615Y-59430978D01*
X65084746Y-59368186D01*
X65101044Y-59354064D01*
X65255004Y-59242206D01*
X65406206Y-59091004D01*
X65531894Y-58918009D01*
X65628972Y-58727483D01*
X65695049Y-58524116D01*
X65728500Y-58312916D01*
X65728500Y-58200924D01*
X65748502Y-58132803D01*
X65765405Y-58111829D01*
X66086405Y-57790829D01*
X66148717Y-57756803D01*
X66219532Y-57761868D01*
X66276368Y-57804415D01*
X66301179Y-57870935D01*
X66301500Y-57879924D01*
X66301500Y-58519331D01*
X66331079Y-58668031D01*
X66333500Y-58692613D01*
X66333500Y-59932000D01*
X66336632Y-59975790D01*
X66338727Y-60005081D01*
X66360321Y-60078622D01*
X66379904Y-60145316D01*
X66458923Y-60268271D01*
X66562935Y-60358399D01*
X66601318Y-60418124D01*
X66601318Y-60489120D01*
X66562934Y-60548847D01*
X66548545Y-60559618D01*
X66510732Y-60583919D01*
X66510729Y-60583922D01*
X66415016Y-60694380D01*
X66354300Y-60827329D01*
X66333500Y-60972002D01*
X66333500Y-61003870D01*
X66313498Y-61071991D01*
X66312097Y-61073915D01*
X66312183Y-61073972D01*
X66198376Y-61244296D01*
X66122355Y-61427825D01*
X66122353Y-61427830D01*
X66083597Y-61622668D01*
X66083597Y-62363451D01*
X66113665Y-62514611D01*
X66122353Y-62558289D01*
X66151785Y-62629344D01*
X66198376Y-62741824D01*
X66308744Y-62907001D01*
X66308746Y-62907003D01*
X67300131Y-63898388D01*
X67334157Y-63960700D01*
X67329092Y-64031515D01*
X67300131Y-64076578D01*
X66122115Y-65254595D01*
X66059803Y-65288620D01*
X66033020Y-65291500D01*
X61746924Y-65291500D01*
X61678803Y-65271498D01*
X61657829Y-65254595D01*
X60522405Y-64119171D01*
X60488379Y-64056859D01*
X60485500Y-64030076D01*
X60485500Y-63103378D01*
X60505502Y-63035257D01*
X60559158Y-62988764D01*
X60629428Y-62978660D01*
X60629432Y-62978660D01*
X60629432Y-62978661D01*
X60650844Y-62981739D01*
X60677000Y-62985500D01*
X61676994Y-62985500D01*
X61677000Y-62985500D01*
X61750079Y-62980273D01*
X61890316Y-62939096D01*
X62013271Y-62860077D01*
X62108984Y-62749619D01*
X62169700Y-62616670D01*
X62190500Y-62472000D01*
X62190500Y-60972000D01*
X62185821Y-60906581D01*
X62185500Y-60897593D01*
X62185500Y-59975790D01*
X62186782Y-59957860D01*
X62190500Y-59931998D01*
X62190500Y-58432005D01*
X62190113Y-58426600D01*
X62185821Y-58366581D01*
X62185500Y-58357593D01*
X62185500Y-56586616D01*
X62185499Y-56586612D01*
X62169343Y-56505389D01*
X62146744Y-56391775D01*
X62115002Y-56315143D01*
X62070722Y-56208240D01*
X61960353Y-56043063D01*
X61960348Y-56043057D01*
X60133939Y-54216649D01*
X60133937Y-54216647D01*
X59968760Y-54106279D01*
X59887213Y-54072501D01*
X59785225Y-54030256D01*
X59590387Y-53991500D01*
X59590385Y-53991500D01*
X55969924Y-53991500D01*
X55901803Y-53971498D01*
X55880829Y-53954595D01*
X55645405Y-53719171D01*
X55611379Y-53656859D01*
X55608500Y-53630076D01*
X55608500Y-46893084D01*
X58956500Y-46893084D01*
X58956500Y-47106916D01*
X58982032Y-47268116D01*
X58989952Y-47318121D01*
X59040560Y-47473878D01*
X59056028Y-47521483D01*
X59153106Y-47712009D01*
X59278794Y-47885004D01*
X59278796Y-47885006D01*
X59278798Y-47885009D01*
X59429990Y-48036201D01*
X59429993Y-48036203D01*
X59429996Y-48036206D01*
X59530298Y-48109079D01*
X59583955Y-48148064D01*
X59627309Y-48204286D01*
X59633384Y-48275023D01*
X59600252Y-48337814D01*
X59583955Y-48351936D01*
X59429993Y-48463796D01*
X59429990Y-48463798D01*
X59278798Y-48614990D01*
X59278796Y-48614993D01*
X59153108Y-48787987D01*
X59056029Y-48978515D01*
X59056026Y-48978521D01*
X58989952Y-49181878D01*
X58989951Y-49181883D01*
X58989951Y-49181884D01*
X58956500Y-49393084D01*
X58956500Y-49606916D01*
X58979297Y-49750847D01*
X58989952Y-49818121D01*
X59056026Y-50021478D01*
X59056028Y-50021483D01*
X59153106Y-50212009D01*
X59278794Y-50385004D01*
X59278796Y-50385006D01*
X59278798Y-50385009D01*
X59409104Y-50515315D01*
X59443130Y-50577627D01*
X59438065Y-50648442D01*
X59395518Y-50705278D01*
X59386156Y-50711651D01*
X59241347Y-50800970D01*
X59241341Y-50800975D01*
X59115975Y-50926341D01*
X59115970Y-50926347D01*
X59022885Y-51077262D01*
X58967113Y-51245572D01*
X58967112Y-51245579D01*
X58956500Y-51349446D01*
X58956500Y-52650544D01*
X58967112Y-52754425D01*
X59022885Y-52922738D01*
X59115970Y-53073652D01*
X59115975Y-53073658D01*
X59241341Y-53199024D01*
X59241347Y-53199029D01*
X59241348Y-53199030D01*
X59392262Y-53292115D01*
X59560574Y-53347887D01*
X59664455Y-53358500D01*
X61215544Y-53358499D01*
X61319426Y-53347887D01*
X61487738Y-53292115D01*
X61638652Y-53199030D01*
X61764030Y-53073652D01*
X61857115Y-52922738D01*
X61912887Y-52754426D01*
X61923500Y-52650545D01*
X61923499Y-51349456D01*
X61912887Y-51245574D01*
X61857115Y-51077262D01*
X61764030Y-50926348D01*
X61764029Y-50926347D01*
X61764024Y-50926341D01*
X61638658Y-50800975D01*
X61638652Y-50800970D01*
X61614150Y-50785857D01*
X61493842Y-50711650D01*
X61446365Y-50658865D01*
X61434962Y-50588790D01*
X61463255Y-50523674D01*
X61470884Y-50515325D01*
X61601206Y-50385004D01*
X61726894Y-50212009D01*
X61823972Y-50021483D01*
X61890049Y-49818116D01*
X61923500Y-49606916D01*
X61923500Y-49393084D01*
X61890049Y-49181884D01*
X61823972Y-48978517D01*
X61726894Y-48787991D01*
X61601206Y-48614996D01*
X61601203Y-48614993D01*
X61601201Y-48614990D01*
X61450009Y-48463798D01*
X61450006Y-48463796D01*
X61450004Y-48463794D01*
X61296043Y-48351935D01*
X61252690Y-48295714D01*
X61246615Y-48224978D01*
X61279746Y-48162186D01*
X61296044Y-48148064D01*
X61450004Y-48036206D01*
X61601206Y-47885004D01*
X61726894Y-47712009D01*
X61823972Y-47521483D01*
X61890049Y-47318116D01*
X61923500Y-47106916D01*
X61923500Y-46893084D01*
X61890049Y-46681884D01*
X61823972Y-46478517D01*
X61726894Y-46287991D01*
X61601206Y-46114996D01*
X61601203Y-46114993D01*
X61601201Y-46114990D01*
X61450009Y-45963798D01*
X61450006Y-45963796D01*
X61450004Y-45963794D01*
X61277009Y-45838106D01*
X61086483Y-45741028D01*
X61086480Y-45741027D01*
X61086478Y-45741026D01*
X60883120Y-45674952D01*
X60883123Y-45674952D01*
X60843801Y-45668724D01*
X60671916Y-45641500D01*
X60208084Y-45641500D01*
X59996884Y-45674951D01*
X59996878Y-45674952D01*
X59793521Y-45741026D01*
X59793515Y-45741029D01*
X59602987Y-45838108D01*
X59429993Y-45963796D01*
X59429990Y-45963798D01*
X59278798Y-46114990D01*
X59278796Y-46114993D01*
X59153108Y-46287987D01*
X59056029Y-46478515D01*
X59056026Y-46478521D01*
X58989952Y-46681878D01*
X58989951Y-46681883D01*
X58989951Y-46681884D01*
X58956500Y-46893084D01*
X55608500Y-46893084D01*
X55608500Y-45161672D01*
X55608499Y-45161668D01*
X55604780Y-45142971D01*
X55569744Y-44966831D01*
X55493721Y-44783296D01*
X55383353Y-44618119D01*
X55242881Y-44477647D01*
X54404562Y-43639328D01*
X54370536Y-43577016D01*
X54375601Y-43506201D01*
X54418148Y-43449365D01*
X54484668Y-43424554D01*
X54494499Y-43424634D01*
X54494499Y-43424307D01*
X54499995Y-43424307D01*
X54499997Y-43424306D01*
X54500000Y-43424307D01*
X54719371Y-43405115D01*
X54932076Y-43348120D01*
X55131654Y-43255056D01*
X55312038Y-43128749D01*
X55467749Y-42973038D01*
X55594056Y-42792654D01*
X55687120Y-42593076D01*
X55744115Y-42380371D01*
X55763307Y-42161000D01*
X56236693Y-42161000D01*
X56255885Y-42380370D01*
X56312879Y-42593073D01*
X56312881Y-42593079D01*
X56375546Y-42727465D01*
X56405944Y-42792654D01*
X56522272Y-42958786D01*
X56532251Y-42973038D01*
X56532254Y-42973042D01*
X56687957Y-43128745D01*
X56687961Y-43128748D01*
X56687962Y-43128749D01*
X56868346Y-43255056D01*
X57067924Y-43348120D01*
X57280629Y-43405115D01*
X57500000Y-43424307D01*
X57719371Y-43405115D01*
X57932076Y-43348120D01*
X58131654Y-43255056D01*
X58312038Y-43128749D01*
X58467749Y-42973038D01*
X58594056Y-42792654D01*
X58687120Y-42593076D01*
X58744115Y-42380371D01*
X58763307Y-42161000D01*
X59236693Y-42161000D01*
X59255885Y-42380370D01*
X59312879Y-42593073D01*
X59312881Y-42593079D01*
X59375546Y-42727465D01*
X59405944Y-42792654D01*
X59522272Y-42958786D01*
X59532251Y-42973038D01*
X59532254Y-42973042D01*
X59687957Y-43128745D01*
X59687961Y-43128748D01*
X59687962Y-43128749D01*
X59868346Y-43255056D01*
X60067924Y-43348120D01*
X60280629Y-43405115D01*
X60500000Y-43424307D01*
X60719371Y-43405115D01*
X60932076Y-43348120D01*
X61131654Y-43255056D01*
X61312038Y-43128749D01*
X61467749Y-42973038D01*
X61594056Y-42792654D01*
X61687120Y-42593076D01*
X61744115Y-42380371D01*
X61763307Y-42161000D01*
X61744115Y-41941629D01*
X61687120Y-41728924D01*
X61594056Y-41529347D01*
X61467749Y-41348962D01*
X61312038Y-41193251D01*
X61312032Y-41193247D01*
X61262903Y-41158846D01*
X61131654Y-41066944D01*
X61131650Y-41066942D01*
X60932079Y-40973881D01*
X60932073Y-40973879D01*
X60806416Y-40940209D01*
X60719371Y-40916885D01*
X60500000Y-40897693D01*
X60280629Y-40916885D01*
X60067926Y-40973879D01*
X60067920Y-40973881D01*
X59868346Y-41066944D01*
X59687965Y-41193248D01*
X59687959Y-41193253D01*
X59532253Y-41348959D01*
X59532248Y-41348965D01*
X59405944Y-41529346D01*
X59312881Y-41728920D01*
X59312879Y-41728926D01*
X59255885Y-41941629D01*
X59236693Y-42161000D01*
X58763307Y-42161000D01*
X58744115Y-41941629D01*
X58687120Y-41728924D01*
X58594056Y-41529347D01*
X58467749Y-41348962D01*
X58312038Y-41193251D01*
X58312032Y-41193247D01*
X58262903Y-41158846D01*
X58131654Y-41066944D01*
X58131650Y-41066942D01*
X57932079Y-40973881D01*
X57932073Y-40973879D01*
X57806416Y-40940209D01*
X57719371Y-40916885D01*
X57500000Y-40897693D01*
X57280629Y-40916885D01*
X57067926Y-40973879D01*
X57067920Y-40973881D01*
X56868346Y-41066944D01*
X56687965Y-41193248D01*
X56687959Y-41193253D01*
X56532253Y-41348959D01*
X56532248Y-41348965D01*
X56405944Y-41529346D01*
X56312881Y-41728920D01*
X56312879Y-41728926D01*
X56255885Y-41941629D01*
X56236693Y-42161000D01*
X55763307Y-42161000D01*
X55744115Y-41941629D01*
X55687120Y-41728924D01*
X55594056Y-41529347D01*
X55467749Y-41348962D01*
X55312038Y-41193251D01*
X55312032Y-41193247D01*
X55262903Y-41158846D01*
X55131654Y-41066944D01*
X55131650Y-41066942D01*
X54932079Y-40973881D01*
X54932073Y-40973879D01*
X54806416Y-40940209D01*
X54719371Y-40916885D01*
X54500000Y-40897693D01*
X54280623Y-40916885D01*
X54280614Y-40916887D01*
X54277156Y-40917814D01*
X54275573Y-40917776D01*
X54275206Y-40917841D01*
X54275192Y-40917767D01*
X54206180Y-40916119D01*
X54155460Y-40885200D01*
X54020355Y-40750095D01*
X53986329Y-40687783D01*
X53991394Y-40616968D01*
X54020352Y-40571906D01*
X54155462Y-40436796D01*
X54217772Y-40402773D01*
X54277172Y-40404188D01*
X54280629Y-40405115D01*
X54500000Y-40424307D01*
X54719371Y-40405115D01*
X54932076Y-40348120D01*
X55131654Y-40255056D01*
X55312038Y-40128749D01*
X55467749Y-39973038D01*
X55594056Y-39792654D01*
X55687120Y-39593076D01*
X55744115Y-39380371D01*
X55763307Y-39161000D01*
X55744115Y-38941629D01*
X55696280Y-38763109D01*
X55697970Y-38692135D01*
X55737764Y-38633339D01*
X55803028Y-38605391D01*
X55817987Y-38604500D01*
X55818629Y-38604500D01*
X55886750Y-38624502D01*
X55907724Y-38641405D01*
X56210481Y-38944162D01*
X56244507Y-39006474D01*
X56246907Y-39044237D01*
X56239814Y-39125321D01*
X56236693Y-39161000D01*
X56245091Y-39256986D01*
X56255885Y-39380370D01*
X56312833Y-39592903D01*
X56312880Y-39593076D01*
X56405944Y-39792654D01*
X56481249Y-39900200D01*
X56532251Y-39973038D01*
X56532254Y-39973042D01*
X56687957Y-40128745D01*
X56687961Y-40128748D01*
X56687962Y-40128749D01*
X56868346Y-40255056D01*
X57067924Y-40348120D01*
X57280629Y-40405115D01*
X57500000Y-40424307D01*
X57719371Y-40405115D01*
X57932076Y-40348120D01*
X58131654Y-40255056D01*
X58312038Y-40128749D01*
X58467749Y-39973038D01*
X58594056Y-39792654D01*
X58687120Y-39593076D01*
X58744115Y-39380371D01*
X58763307Y-39161000D01*
X58744115Y-38941629D01*
X58696045Y-38762232D01*
X58697735Y-38691258D01*
X58737529Y-38632462D01*
X58802793Y-38604514D01*
X58872807Y-38616287D01*
X58906847Y-38640528D01*
X59210481Y-38944162D01*
X59244507Y-39006474D01*
X59246907Y-39044237D01*
X59239814Y-39125321D01*
X59236693Y-39161000D01*
X59245091Y-39256986D01*
X59255885Y-39380370D01*
X59312833Y-39592903D01*
X59312880Y-39593076D01*
X59405944Y-39792654D01*
X59481249Y-39900200D01*
X59532251Y-39973038D01*
X59532254Y-39973042D01*
X59687957Y-40128745D01*
X59687961Y-40128748D01*
X59687962Y-40128749D01*
X59868346Y-40255056D01*
X60067924Y-40348120D01*
X60280629Y-40405115D01*
X60500000Y-40424307D01*
X60719371Y-40405115D01*
X60932076Y-40348120D01*
X61131654Y-40255056D01*
X61312038Y-40128749D01*
X61467749Y-39973038D01*
X61594056Y-39792654D01*
X61687120Y-39593076D01*
X61744115Y-39380371D01*
X61763307Y-39161000D01*
X61744115Y-38941629D01*
X61687120Y-38728924D01*
X61594056Y-38529347D01*
X61467749Y-38348962D01*
X61312038Y-38193251D01*
X61131654Y-38066944D01*
X61131650Y-38066942D01*
X60932079Y-37973881D01*
X60932073Y-37973879D01*
X60842178Y-37949791D01*
X60719371Y-37916885D01*
X60500000Y-37897693D01*
X60499999Y-37897693D01*
X60383237Y-37907907D01*
X60313632Y-37893917D01*
X60283162Y-37871481D01*
X58968519Y-36556838D01*
X58968515Y-36556834D01*
X58844284Y-36473826D01*
X58706247Y-36416649D01*
X58632976Y-36402074D01*
X58632975Y-36402073D01*
X58559711Y-36387500D01*
X58559706Y-36387500D01*
X48891256Y-36387500D01*
X48823135Y-36367498D01*
X48776642Y-36313842D01*
X48766538Y-36243568D01*
X48796032Y-36178988D01*
X48814549Y-36161540D01*
X48815090Y-36161123D01*
X48816661Y-36159919D01*
X48978919Y-35997661D01*
X49118611Y-35815612D01*
X49233344Y-35616888D01*
X49321158Y-35404887D01*
X49380548Y-35183238D01*
X49410500Y-34955734D01*
X49410500Y-34726266D01*
X49410500Y-34726263D01*
X65609500Y-34726263D01*
X65609500Y-34955736D01*
X65639450Y-35183231D01*
X65639452Y-35183238D01*
X65698842Y-35404887D01*
X65786656Y-35616888D01*
X65786657Y-35616889D01*
X65786662Y-35616900D01*
X65901386Y-35815608D01*
X65901391Y-35815615D01*
X66041073Y-35997652D01*
X66041092Y-35997673D01*
X66203326Y-36159907D01*
X66203347Y-36159926D01*
X66385384Y-36299608D01*
X66385391Y-36299613D01*
X66584099Y-36414337D01*
X66584103Y-36414338D01*
X66584112Y-36414344D01*
X66796113Y-36502158D01*
X67017762Y-36561548D01*
X67017766Y-36561548D01*
X67017768Y-36561549D01*
X67076398Y-36569267D01*
X67245266Y-36591500D01*
X67245273Y-36591500D01*
X67474727Y-36591500D01*
X67474734Y-36591500D01*
X67680345Y-36564430D01*
X67702231Y-36561549D01*
X67702231Y-36561548D01*
X67702238Y-36561548D01*
X67923887Y-36502158D01*
X68135888Y-36414344D01*
X68334612Y-36299611D01*
X68513713Y-36162181D01*
X68516652Y-36159926D01*
X68516654Y-36159924D01*
X68516661Y-36159919D01*
X68678919Y-35997661D01*
X68818611Y-35815612D01*
X68933344Y-35616888D01*
X69021158Y-35404887D01*
X69080548Y-35183238D01*
X69110500Y-34955734D01*
X69110500Y-34726266D01*
X69080548Y-34498762D01*
X69021158Y-34277113D01*
X68933344Y-34065112D01*
X68933338Y-34065103D01*
X68933337Y-34065099D01*
X68818613Y-33866391D01*
X68818608Y-33866384D01*
X68678926Y-33684347D01*
X68678907Y-33684326D01*
X68516673Y-33522092D01*
X68516652Y-33522073D01*
X68334615Y-33382391D01*
X68334608Y-33382386D01*
X68135900Y-33267662D01*
X68135892Y-33267658D01*
X68135888Y-33267656D01*
X67923887Y-33179842D01*
X67702238Y-33120452D01*
X67702231Y-33120450D01*
X67474736Y-33090500D01*
X67474734Y-33090500D01*
X67245266Y-33090500D01*
X67245263Y-33090500D01*
X67017768Y-33120450D01*
X66796113Y-33179842D01*
X66584110Y-33267657D01*
X66584099Y-33267662D01*
X66385391Y-33382386D01*
X66385384Y-33382391D01*
X66203347Y-33522073D01*
X66203326Y-33522092D01*
X66041092Y-33684326D01*
X66041073Y-33684347D01*
X65901391Y-33866384D01*
X65901386Y-33866391D01*
X65786662Y-34065099D01*
X65786657Y-34065110D01*
X65698842Y-34277113D01*
X65639450Y-34498768D01*
X65609500Y-34726263D01*
X49410500Y-34726263D01*
X49380548Y-34498762D01*
X49321158Y-34277113D01*
X49233344Y-34065112D01*
X49233338Y-34065103D01*
X49233337Y-34065099D01*
X49118613Y-33866391D01*
X49118608Y-33866384D01*
X48978926Y-33684347D01*
X48978907Y-33684326D01*
X48816673Y-33522092D01*
X48816652Y-33522073D01*
X48634615Y-33382391D01*
X48634608Y-33382386D01*
X48435900Y-33267662D01*
X48435892Y-33267658D01*
X48435888Y-33267656D01*
X48223887Y-33179842D01*
X48002238Y-33120452D01*
X48002231Y-33120450D01*
X47774736Y-33090500D01*
X47774734Y-33090500D01*
X47545266Y-33090500D01*
X47545263Y-33090500D01*
X47317768Y-33120450D01*
X47096113Y-33179842D01*
X46884110Y-33267657D01*
X46884099Y-33267662D01*
X46685391Y-33382386D01*
X46685384Y-33382391D01*
X46503347Y-33522073D01*
X46503326Y-33522092D01*
X46341092Y-33684326D01*
X46341073Y-33684347D01*
X46201391Y-33866384D01*
X46201386Y-33866391D01*
X46086662Y-34065099D01*
X46086657Y-34065110D01*
X45998842Y-34277113D01*
X45939450Y-34498768D01*
X45909500Y-34726263D01*
X45909500Y-34955736D01*
X45939450Y-35183231D01*
X45939452Y-35183238D01*
X45998842Y-35404887D01*
X46086656Y-35616888D01*
X46086657Y-35616889D01*
X46086662Y-35616900D01*
X46201386Y-35815608D01*
X46201391Y-35815615D01*
X46341073Y-35997652D01*
X46341092Y-35997673D01*
X46503326Y-36159907D01*
X46503332Y-36159912D01*
X46503339Y-36159919D01*
X46504365Y-36160706D01*
X46505451Y-36161540D01*
X46505919Y-36162181D01*
X46506440Y-36162638D01*
X46506337Y-36162754D01*
X46547317Y-36218879D01*
X46551536Y-36289750D01*
X46516770Y-36351652D01*
X46454057Y-36384931D01*
X46428744Y-36387500D01*
X43779288Y-36387500D01*
X43706024Y-36402073D01*
X43706024Y-36402074D01*
X43632753Y-36416649D01*
X43632751Y-36416649D01*
X43632750Y-36416650D01*
X43494714Y-36473827D01*
X43370486Y-36556833D01*
X43370480Y-36556838D01*
X38910838Y-41016480D01*
X38910833Y-41016486D01*
X38827826Y-41140716D01*
X38779073Y-41258416D01*
X38770650Y-41278750D01*
X38770649Y-41278754D01*
X38741500Y-41425290D01*
X38741500Y-46873119D01*
X38721498Y-46941240D01*
X38667842Y-46987733D01*
X38597568Y-46997837D01*
X38532988Y-46968343D01*
X38517580Y-46952414D01*
X38506122Y-46938265D01*
X37005632Y-48438756D01*
X36929413Y-48333849D01*
X36751331Y-48155767D01*
X36646422Y-48079546D01*
X38146913Y-46579056D01*
X38146912Y-46579055D01*
X37891509Y-46372233D01*
X37891492Y-46372221D01*
X37565542Y-46160548D01*
X37565536Y-46160544D01*
X37219248Y-45984102D01*
X37219240Y-45984098D01*
X36856415Y-45844823D01*
X36480996Y-45744230D01*
X36097115Y-45683429D01*
X35709007Y-45663090D01*
X35708995Y-45663090D01*
X35320886Y-45683429D01*
X34937005Y-45744230D01*
X34561586Y-45844823D01*
X34198761Y-45984098D01*
X34198753Y-45984102D01*
X33852456Y-46160550D01*
X33692305Y-46264553D01*
X33624280Y-46284879D01*
X33556065Y-46265201D01*
X33509318Y-46211767D01*
X33498880Y-46141542D01*
X33528065Y-46076821D01*
X33529585Y-46075082D01*
X46440458Y-31585483D01*
X46441414Y-31584425D01*
X46579287Y-31433671D01*
X46587508Y-31425477D01*
X46890308Y-31150331D01*
X46900552Y-31141963D01*
X47229974Y-30900657D01*
X47241043Y-30893413D01*
X47593987Y-30688108D01*
X47605773Y-30682059D01*
X47978360Y-30515010D01*
X47990698Y-30510241D01*
X48378792Y-30383304D01*
X48391585Y-30379854D01*
X48790851Y-30294443D01*
X48803946Y-30292355D01*
X49210804Y-30249324D01*
X49222390Y-30248638D01*
X49424321Y-30246035D01*
X49426601Y-30246006D01*
X49428224Y-30245996D01*
X65839795Y-30245996D01*
X65841407Y-30246006D01*
G37*
%TD.AperFunction*%
%TA.AperFunction,Conductor*%
G36*
X50475017Y-42893698D02*
G01*
X50486793Y-42908118D01*
X50532251Y-42973038D01*
X50532254Y-42973042D01*
X50687957Y-43128745D01*
X50687961Y-43128748D01*
X50687962Y-43128749D01*
X50868346Y-43255056D01*
X51067924Y-43348120D01*
X51280629Y-43405115D01*
X51280633Y-43405116D01*
X51286040Y-43406069D01*
X51285604Y-43408539D01*
X51341875Y-43430544D01*
X51353881Y-43441115D01*
X53417653Y-45504887D01*
X53451679Y-45567199D01*
X53446614Y-45638014D01*
X53404067Y-45694850D01*
X53337547Y-45719661D01*
X53271356Y-45706249D01*
X53241483Y-45691028D01*
X53241480Y-45691027D01*
X53241478Y-45691026D01*
X53038120Y-45624952D01*
X53038123Y-45624952D01*
X52998801Y-45618724D01*
X52826916Y-45591500D01*
X52363084Y-45591500D01*
X52151884Y-45624951D01*
X52151878Y-45624952D01*
X51948521Y-45691026D01*
X51948515Y-45691029D01*
X51757987Y-45788108D01*
X51584993Y-45913796D01*
X51584990Y-45913798D01*
X51433798Y-46064990D01*
X51433796Y-46064993D01*
X51308108Y-46237987D01*
X51211029Y-46428515D01*
X51211026Y-46428521D01*
X51144952Y-46631878D01*
X51144951Y-46631883D01*
X51144951Y-46631884D01*
X51111500Y-46843084D01*
X51111500Y-47056916D01*
X51133162Y-47193681D01*
X51144952Y-47268121D01*
X51161198Y-47318121D01*
X51211028Y-47471483D01*
X51308106Y-47662009D01*
X51433794Y-47835004D01*
X51433796Y-47835006D01*
X51433798Y-47835009D01*
X51584990Y-47986201D01*
X51584993Y-47986203D01*
X51584996Y-47986206D01*
X51685298Y-48059079D01*
X51738955Y-48098064D01*
X51782309Y-48154286D01*
X51788384Y-48225023D01*
X51755252Y-48287814D01*
X51738955Y-48301936D01*
X51584993Y-48413796D01*
X51584990Y-48413798D01*
X51433798Y-48564990D01*
X51433796Y-48564993D01*
X51308107Y-48737987D01*
X51282631Y-48787987D01*
X51249617Y-48852779D01*
X51207354Y-48900340D01*
X51150232Y-48938508D01*
X51150225Y-48938513D01*
X48715362Y-51373376D01*
X48653050Y-51407402D01*
X48593657Y-51405988D01*
X48558088Y-51396457D01*
X48330000Y-51376502D01*
X48101913Y-51396457D01*
X47880759Y-51455715D01*
X47880753Y-51455717D01*
X47673250Y-51552477D01*
X47485703Y-51683799D01*
X47453594Y-51715908D01*
X47391282Y-51749932D01*
X47320466Y-51744866D01*
X47263631Y-51702319D01*
X47238821Y-51635798D01*
X47238500Y-51626811D01*
X47238500Y-46133188D01*
X47258502Y-46065067D01*
X47312158Y-46018574D01*
X47382432Y-46008470D01*
X47447012Y-46037964D01*
X47453595Y-46044093D01*
X47485700Y-46076198D01*
X47673251Y-46207523D01*
X47880757Y-46304284D01*
X48101913Y-46363543D01*
X48330000Y-46383498D01*
X48558087Y-46363543D01*
X48779243Y-46304284D01*
X48986749Y-46207523D01*
X49174300Y-46076198D01*
X49336198Y-45914300D01*
X49467523Y-45726749D01*
X49564284Y-45519243D01*
X49623543Y-45298087D01*
X49643498Y-45070000D01*
X49623543Y-44841913D01*
X49564284Y-44620757D01*
X49467523Y-44413251D01*
X49343037Y-44235468D01*
X49320350Y-44168195D01*
X49337635Y-44099335D01*
X49357149Y-44074110D01*
X50111491Y-43319769D01*
X50183555Y-43211917D01*
X50233194Y-43092077D01*
X50258500Y-42964857D01*
X50259708Y-42958786D01*
X50261761Y-42959194D01*
X50284759Y-42902220D01*
X50342708Y-42861202D01*
X50413633Y-42858026D01*
X50475017Y-42893698D01*
G37*
%TD.AperFunction*%
%TD*%
M02*
