M48
; DRILL file {KiCad 8.0.8} date 2025-01-29T22:29:30+0100
; FORMAT={-:-/ absolute / inch / decimal}
; #@! TF.CreationDate,2025-01-29T22:29:30+01:00
; #@! TF.GenerationSoftware,Kicad,Pcbnew,8.0.8
; #@! TF.FileFunction,Plated,1,2,PTH
FMAT,2
INCH
; #@! TA.AperFunction,Plated,PTH,ViaDrill
T1C0.0157
; #@! TA.AperFunction,Plated,PTH,ComponentDrill
T2C0.0315
; #@! TA.AperFunction,Plated,PTH,ComponentDrill
T3C0.0374
; #@! TA.AperFunction,Plated,PTH,ComponentDrill
T4C0.0394
; #@! TA.AperFunction,Plated,PTH,ComponentDrill
T5C0.0402
; #@! TA.AperFunction,Plated,PTH,ComponentDrill
T6C0.1260
%
G90
G05
T1
X1.81Y-2.33
X1.9882Y-1.7717
X2.0067Y-2.5114
X2.06Y-2.24
X2.072Y-2.137
X2.13Y-2.26
X2.2244Y-1.9094
X2.35Y-2.24
X2.3726Y-2.5703
X2.5783Y-1.874
X2.6461Y-2.015
X2.65Y-2.24
X2.9331Y-2.5394
T2
X1.9028Y-1.7744
X1.9028Y-2.0744
X2.6169Y-1.798
X2.6169Y-2.098
T3
X1.4664Y-2.2646
X1.4818Y-2.3619
X1.4972Y-2.4591
X1.5126Y-2.5563
X2.0707Y-1.8484
X2.0707Y-1.9469
X2.0707Y-2.0453
X2.2234Y-2.2916
X2.2234Y-2.39
X2.2234Y-2.4884
X2.3795Y-1.8504
X2.3795Y-1.9488
X2.3795Y-2.0472
X2.5293Y-2.2916
X2.5293Y-2.39
X2.5293Y-2.4884
T4
X1.7Y-1.8816
X1.7Y-1.98
X2.79Y-1.8816
X2.79Y-1.98
T5
X1.7913Y-1.5418
X1.7913Y-1.6599
X1.811Y-2.2337
X1.9094Y-1.5418
X1.9094Y-1.6599
X1.9291Y-2.2337
X2.0276Y-1.5418
X2.0276Y-1.6599
X2.1457Y-1.5418
X2.1457Y-1.6599
X2.2638Y-1.5418
X2.2638Y-1.6599
X2.3819Y-1.5418
X2.3819Y-1.6599
X2.5Y-1.5418
X2.5Y-1.6599
X2.6181Y-1.5418
X2.6181Y-1.6599
X2.7362Y-1.5418
X2.7362Y-1.6599
X2.8719Y-2.2337
X2.99Y-2.2337
T6
X1.4059Y-1.9439
X3.1322Y-1.9439
M30
