%TF.GenerationSoftware,KiCad,Pcbnew,8.0.8*%
%TF.CreationDate,2025-01-29T22:29:45+01:00*%
%TF.ProjectId,xol-pcb,786f6c2d-7063-4622-9e6b-696361645f70,rev?*%
%TF.SameCoordinates,Original*%
%TF.FileFunction,Copper,L1,Top*%
%TF.FilePolarity,Positive*%
%FSLAX46Y46*%
G04 Gerber Fmt 4.6, Leading zero omitted, Abs format (unit mm)*
G04 Created by KiCad (PCBNEW 8.0.8) date 2025-01-29 22:29:45*
%MOMM*%
%LPD*%
G01*
G04 APERTURE LIST*
G04 Aperture macros list*
%AMRoundRect*
0 Rectangle with rounded corners*
0 $1 Rounding radius*
0 $2 $3 $4 $5 $6 $7 $8 $9 X,Y pos of 4 corners*
0 Add a 4 corners polygon primitive as box body*
4,1,4,$2,$3,$4,$5,$6,$7,$8,$9,$2,$3,0*
0 Add four circle primitives for the rounded corners*
1,1,$1+$1,$2,$3*
1,1,$1+$1,$4,$5*
1,1,$1+$1,$6,$7*
1,1,$1+$1,$8,$9*
0 Add four rect primitives between the rounded corners*
20,1,$1+$1,$2,$3,$4,$5,0*
20,1,$1+$1,$4,$5,$6,$7,0*
20,1,$1+$1,$6,$7,$8,$9,0*
20,1,$1+$1,$8,$9,$2,$3,0*%
%AMHorizOval*
0 Thick line with rounded ends*
0 $1 width*
0 $2 $3 position (X,Y) of the first rounded end (center of the circle)*
0 $4 $5 position (X,Y) of the second rounded end (center of the circle)*
0 Add line between two ends*
20,1,$1,$2,$3,$4,$5,0*
0 Add two circle primitives to create the rounded ends*
1,1,$1,$2,$3*
1,1,$1,$4,$5*%
G04 Aperture macros list end*
%TA.AperFunction,ComponentPad*%
%ADD10RoundRect,0.250001X0.499999X0.759999X-0.499999X0.759999X-0.499999X-0.759999X0.499999X-0.759999X0*%
%TD*%
%TA.AperFunction,ComponentPad*%
%ADD11O,1.500000X2.020000*%
%TD*%
%TA.AperFunction,ComponentPad*%
%ADD12RoundRect,0.250000X0.750000X-0.600000X0.750000X0.600000X-0.750000X0.600000X-0.750000X-0.600000X0*%
%TD*%
%TA.AperFunction,ComponentPad*%
%ADD13O,2.000000X1.700000*%
%TD*%
%TA.AperFunction,ComponentPad*%
%ADD14C,1.600000*%
%TD*%
%TA.AperFunction,ComponentPad*%
%ADD15O,1.600000X1.600000*%
%TD*%
%TA.AperFunction,ComponentPad*%
%ADD16C,6.400000*%
%TD*%
%TA.AperFunction,ComponentPad*%
%ADD17RoundRect,0.250000X0.725000X-0.600000X0.725000X0.600000X-0.725000X0.600000X-0.725000X-0.600000X0*%
%TD*%
%TA.AperFunction,ComponentPad*%
%ADD18O,1.950000X1.700000*%
%TD*%
%TA.AperFunction,ComponentPad*%
%ADD19RoundRect,0.250001X-0.499999X-0.499999X0.499999X-0.499999X0.499999X0.499999X-0.499999X0.499999X0*%
%TD*%
%TA.AperFunction,ComponentPad*%
%ADD20C,1.500000*%
%TD*%
%TA.AperFunction,ComponentPad*%
%ADD21R,1.600000X1.600000*%
%TD*%
%TA.AperFunction,ComponentPad*%
%ADD22RoundRect,0.250000X0.809935X-0.479198X0.622213X0.706028X-0.809935X0.479198X-0.622213X-0.706028X0*%
%TD*%
%TA.AperFunction,ComponentPad*%
%ADD23HorizOval,1.700000X0.123461X0.019554X-0.123461X-0.019554X0*%
%TD*%
%TA.AperFunction,ViaPad*%
%ADD24C,0.800000*%
%TD*%
%TA.AperFunction,Conductor*%
%ADD25C,0.300000*%
%TD*%
%TA.AperFunction,Conductor*%
%ADD26C,0.500000*%
%TD*%
%TA.AperFunction,Conductor*%
%ADD27C,2.500000*%
%TD*%
%TA.AperFunction,Conductor*%
%ADD28C,1.000000*%
%TD*%
%TA.AperFunction,Conductor*%
%ADD29C,0.400000*%
%TD*%
G04 APERTURE END LIST*
D10*
%TO.P,HE1,1,Pin_1*%
%TO.N,HE-*%
X75946000Y-56736000D03*
D11*
%TO.P,HE1,2,Pin_2*%
%TO.N,HE+*%
X72946000Y-56736000D03*
%TD*%
D12*
%TO.P,PCF1,1,Pin_1*%
%TO.N,PCF+*%
X43180000Y-50292000D03*
D13*
%TO.P,PCF1,2,Pin_2*%
%TO.N,PCF-*%
X43180000Y-47792000D03*
%TD*%
D14*
%TO.P,R1,1*%
%TO.N,Net-(RGB1-Pin_2)*%
X48330000Y-52690000D03*
D15*
%TO.P,R1,2*%
%TO.N,RGB*%
X48330000Y-45070000D03*
%TD*%
D10*
%TO.P,TH1,1,Pin_1*%
%TO.N,TH*%
X49000000Y-56736000D03*
D11*
%TO.P,TH1,2,Pin_2*%
%TO.N,TH-*%
X46000000Y-56736000D03*
%TD*%
D16*
%TO.P,H1,1,1*%
%TO.N,GND*%
X79559001Y-49376179D03*
%TD*%
%TO.P,H2,1,1*%
%TO.N,GND*%
X35709001Y-49376179D03*
%TD*%
D17*
%TO.P,AUX1,1,Pin_1*%
%TO.N,GND*%
X64245000Y-63206000D03*
D18*
%TO.P,AUX1,2,Pin_2*%
%TO.N,AUX1*%
X64245000Y-60706000D03*
%TO.P,AUX1,3,Pin_3*%
%TO.N,5V*%
X64245000Y-58206000D03*
%TD*%
D17*
%TO.P,RGB1,1,Pin_1*%
%TO.N,GND*%
X52595000Y-51950000D03*
D18*
%TO.P,RGB1,2,Pin_2*%
%TO.N,Net-(RGB1-Pin_2)*%
X52595000Y-49450000D03*
%TO.P,RGB1,3,Pin_3*%
%TO.N,5V*%
X52595000Y-46950000D03*
%TD*%
D12*
%TO.P,PCF2,1,Pin_1*%
%TO.N,PCF+*%
X70866000Y-50292000D03*
D13*
%TO.P,PCF2,2,Pin_2*%
%TO.N,PCF-*%
X70866000Y-47792000D03*
%TD*%
D19*
%TO.P,J1,1,Pin_1*%
%TO.N,RGB*%
X45500000Y-39161000D03*
D20*
%TO.P,J1,2,Pin_2*%
%TO.N,PCF-*%
X48500000Y-39161000D03*
%TO.P,J1,3,Pin_3*%
%TO.N,HEF-*%
X51500000Y-39161000D03*
%TO.P,J1,4,Pin_4*%
%TO.N,TH-*%
X54500000Y-39161000D03*
%TO.P,J1,5,Pin_5*%
%TO.N,A1*%
X57500000Y-39161000D03*
%TO.P,J1,6,Pin_6*%
%TO.N,A2*%
X60500000Y-39161000D03*
%TO.P,J1,7,Pin_7*%
%TO.N,GND*%
X63500000Y-39161000D03*
%TO.P,J1,8,Pin_8*%
%TO.N,5V*%
X66500000Y-39161000D03*
%TO.P,J1,9,Pin_9*%
%TO.N,HE+*%
X69500000Y-39161000D03*
%TO.P,J1,10,Pin_10*%
%TO.N,AUX2*%
X45500000Y-42161000D03*
%TO.P,J1,11,Pin_11*%
%TO.N,AUX3*%
X48500000Y-42161000D03*
%TO.P,J1,12,Pin_12*%
%TO.N,VALT*%
X51500000Y-42161000D03*
%TO.P,J1,13,Pin_13*%
%TO.N,TH*%
X54500000Y-42161000D03*
%TO.P,J1,14,Pin_14*%
%TO.N,B1*%
X57500000Y-42161000D03*
%TO.P,J1,15,Pin_15*%
%TO.N,B2*%
X60500000Y-42161000D03*
%TO.P,J1,16,Pin_16*%
%TO.N,Net-(D1-A)*%
X63500000Y-42161000D03*
%TO.P,J1,17,Pin_17*%
%TO.N,AUX1*%
X66500000Y-42161000D03*
%TO.P,J1,18,Pin_18*%
%TO.N,HE-*%
X69500000Y-42161000D03*
%TD*%
D17*
%TO.P,HEF1,1,Pin_1*%
%TO.N,HEF+*%
X60440000Y-52000000D03*
D18*
%TO.P,HEF1,2,Pin_2*%
%TO.N,Net-(D1-K)*%
X60440000Y-49500000D03*
%TO.P,HEF1,3,Pin_3*%
%TO.N,HEF-*%
X60440000Y-47000000D03*
%TD*%
D21*
%TO.P,D1,1,K*%
%TO.N,Net-(D1-K)*%
X66470000Y-53290000D03*
D15*
%TO.P,D1,2,A*%
%TO.N,Net-(D1-A)*%
X66470000Y-45670000D03*
%TD*%
D17*
%TO.P,AUX2-3,1,Pin_1*%
%TO.N,GND*%
X56475000Y-63206000D03*
D18*
%TO.P,AUX2-3,2,Pin_2*%
%TO.N,AUX2*%
X56475000Y-60706000D03*
%TO.P,AUX2-3,3,Pin_3*%
%TO.N,AUX3*%
X56475000Y-58206000D03*
%TD*%
D22*
%TO.P,MOTOR1,1,Pin_1*%
%TO.N,B1*%
X38419166Y-64929703D03*
D23*
%TO.P,MOTOR1,2,Pin_2*%
%TO.N,B2*%
X38028080Y-62460482D03*
%TO.P,MOTOR1,3,Pin_3*%
%TO.N,A1*%
X37636994Y-59991261D03*
%TO.P,MOTOR1,4,Pin_4*%
%TO.N,A2*%
X37245908Y-57522040D03*
%TD*%
D24*
%TO.N,HEF+*%
X67310000Y-56896000D03*
X59690000Y-56896000D03*
X52324000Y-56896000D03*
%TO.N,PCF+*%
X50970000Y-63790000D03*
X60263500Y-65286500D03*
%TO.N,GND*%
X74500000Y-64500000D03*
X67210000Y-51180000D03*
X56500000Y-48500000D03*
X65490000Y-47600000D03*
X54102000Y-57404000D03*
X45974000Y-59182000D03*
X52630000Y-54280000D03*
X50500000Y-45000000D03*
%TD*%
D25*
%TO.N,AUX1*%
X68316000Y-43977000D02*
X68316000Y-57910000D01*
X65520000Y-60706000D02*
X64245000Y-60706000D01*
X68316000Y-57910000D02*
X65520000Y-60706000D01*
X66500000Y-42161000D02*
X68316000Y-43977000D01*
%TO.N,Net-(D1-K)*%
X62680000Y-49500000D02*
X66470000Y-53290000D01*
X60440000Y-49500000D02*
X62680000Y-49500000D01*
D26*
%TO.N,B1*%
X38419166Y-64929703D02*
X40000000Y-63348869D01*
X40000000Y-61500000D02*
X40059001Y-61440999D01*
X40059001Y-42000000D02*
X44359001Y-37700000D01*
X57500000Y-40858057D02*
X55900000Y-39258057D01*
X44359001Y-37700000D02*
X55000000Y-37700000D01*
X40059001Y-61440999D02*
X40059001Y-42000000D01*
X40000000Y-63348869D02*
X40000000Y-61500000D01*
X55900000Y-39258057D02*
X55900000Y-38600000D01*
X57500000Y-42161000D02*
X57500000Y-40858057D01*
X55000000Y-37700000D02*
X55900000Y-38600000D01*
D25*
%TO.N,RGB*%
X46600000Y-40261000D02*
X48271000Y-40261000D01*
X49600000Y-41590000D02*
X49600000Y-43800000D01*
X45500000Y-39161000D02*
X46600000Y-40261000D01*
X49600000Y-43800000D02*
X48330000Y-45070000D01*
X48271000Y-40261000D02*
X49600000Y-41590000D01*
D26*
%TO.N,B2*%
X57036057Y-37000000D02*
X59000000Y-38963943D01*
X59000000Y-38963943D02*
X59000000Y-40661000D01*
X59000000Y-40661000D02*
X60500000Y-42161000D01*
X39359001Y-61129561D02*
X39359001Y-41640999D01*
X44000000Y-37000000D02*
X57036057Y-37000000D01*
X38028080Y-62460482D02*
X39359001Y-61129561D01*
X39359001Y-41640999D02*
X44000000Y-37000000D01*
D27*
%TO.N,HE+*%
X74909001Y-51302273D02*
X74909001Y-43509341D01*
X72946000Y-56736000D02*
X72946000Y-53265274D01*
X70560660Y-39161000D02*
X69500000Y-39161000D01*
X72946000Y-53265274D02*
X74909001Y-51302273D01*
X74909001Y-43509341D02*
X70560660Y-39161000D01*
D28*
%TO.N,HEF+*%
X66548000Y-56134000D02*
X67310000Y-56896000D01*
X59690000Y-56896000D02*
X60452000Y-56134000D01*
X59690000Y-56896000D02*
X59690000Y-52750000D01*
X59690000Y-56896000D02*
X58744000Y-55950000D01*
X59690000Y-52750000D02*
X60440000Y-52000000D01*
X53270000Y-55950000D02*
X52324000Y-56896000D01*
X58744000Y-55950000D02*
X53270000Y-55950000D01*
X60452000Y-56134000D02*
X66548000Y-56134000D01*
%TO.N,HEF-*%
X52247666Y-39161000D02*
X53697666Y-40611000D01*
X55100610Y-40611000D02*
X56000000Y-41510390D01*
X56000000Y-41510390D02*
X56000000Y-44525000D01*
X53697666Y-40611000D02*
X55100610Y-40611000D01*
X57965000Y-44525000D02*
X60440000Y-47000000D01*
X56000000Y-44525000D02*
X57965000Y-44525000D01*
X51500000Y-39161000D02*
X52247666Y-39161000D01*
%TO.N,5V*%
X64245000Y-58206000D02*
X63947000Y-58504000D01*
D29*
X56582233Y-47000000D02*
X56532233Y-46950000D01*
X56532233Y-46950000D02*
X52595000Y-46950000D01*
X61150000Y-48250000D02*
X62350000Y-47050000D01*
X62350000Y-41650000D02*
X63689000Y-40311000D01*
X62350000Y-47050000D02*
X62350000Y-41650000D01*
X56582233Y-47000000D02*
X57832233Y-48250000D01*
X63689000Y-40311000D02*
X65350000Y-40311000D01*
X65350000Y-40311000D02*
X66500000Y-39161000D01*
X57832233Y-48250000D02*
X61150000Y-48250000D01*
D28*
%TO.N,PCF+*%
X52466500Y-65286500D02*
X50970000Y-63790000D01*
X60263500Y-65286500D02*
X52466500Y-65286500D01*
%TO.N,PCF-*%
X41480000Y-49291570D02*
X41480000Y-60980000D01*
X47500000Y-67000000D02*
X66500000Y-67000000D01*
X69166000Y-51666000D02*
X69166000Y-48834000D01*
X69500000Y-52000000D02*
X69166000Y-51666000D01*
X70208000Y-47792000D02*
X70866000Y-47792000D01*
X69166000Y-48834000D02*
X70208000Y-47792000D01*
X43180000Y-47792000D02*
X42979570Y-47792000D01*
X41480000Y-60980000D02*
X47500000Y-67000000D01*
X69500000Y-64000000D02*
X69500000Y-52000000D01*
X42979570Y-47792000D02*
X41480000Y-49291570D01*
X66500000Y-67000000D02*
X69500000Y-64000000D01*
D25*
%TO.N,Net-(D1-A)*%
X66470000Y-45670000D02*
X63500000Y-42700000D01*
X63500000Y-42700000D02*
X63500000Y-42161000D01*
%TO.N,AUX2*%
X47562448Y-54972448D02*
X49627552Y-54972448D01*
X53998893Y-60706000D02*
X56475000Y-60706000D01*
X50973999Y-57681106D02*
X53998893Y-60706000D01*
X45500000Y-42161000D02*
X45500000Y-52910000D01*
X49627552Y-54972448D02*
X50973999Y-56318895D01*
X50973999Y-56318895D02*
X50973999Y-57681106D01*
X45500000Y-52910000D02*
X47562448Y-54972448D01*
%TO.N,AUX3*%
X46030000Y-43830000D02*
X47699000Y-42161000D01*
X47699000Y-42161000D02*
X48500000Y-42161000D01*
X47730000Y-54430000D02*
X46000000Y-52700000D01*
X46000000Y-52700000D02*
X46000000Y-43830000D01*
X51473999Y-56526001D02*
X51473999Y-57473999D01*
X52206000Y-58206000D02*
X56475000Y-58206000D01*
X46000000Y-43830000D02*
X46030000Y-43830000D01*
X49792211Y-54430000D02*
X47730000Y-54430000D01*
X51473999Y-57473999D02*
X52206000Y-58206000D01*
X51473999Y-56111788D02*
X49792211Y-54430000D01*
X51473999Y-56526001D02*
X51473999Y-56111788D01*
%TD*%
%TA.AperFunction,Conductor*%
%TO.N,GND*%
G36*
X78338589Y-50418509D02*
G01*
X78516671Y-50596591D01*
X78621577Y-50672810D01*
X77121087Y-52173300D01*
X77121088Y-52173301D01*
X77376492Y-52380124D01*
X77376509Y-52380136D01*
X77702459Y-52591809D01*
X77702465Y-52591813D01*
X78048753Y-52768255D01*
X78048761Y-52768259D01*
X78411586Y-52907534D01*
X78787005Y-53008127D01*
X79170886Y-53068928D01*
X79558995Y-53089268D01*
X79559007Y-53089268D01*
X79947115Y-53068928D01*
X80330996Y-53008127D01*
X80706415Y-52907534D01*
X81069240Y-52768259D01*
X81069248Y-52768255D01*
X81415536Y-52591813D01*
X81415542Y-52591809D01*
X81741502Y-52380129D01*
X81996913Y-52173300D01*
X80496423Y-50672810D01*
X80601331Y-50596591D01*
X80779413Y-50418509D01*
X80855632Y-50313601D01*
X82356122Y-51814091D01*
X82562951Y-51558680D01*
X82774631Y-51232720D01*
X82774635Y-51232714D01*
X82951077Y-50886426D01*
X82951081Y-50886419D01*
X82989684Y-50785853D01*
X83032769Y-50729425D01*
X83099522Y-50705248D01*
X83168750Y-50720999D01*
X83218472Y-50771676D01*
X83232903Y-50841191D01*
X83231886Y-50849928D01*
X80392329Y-69545192D01*
X80391976Y-69547389D01*
X80369656Y-69678676D01*
X80366079Y-69693914D01*
X80288944Y-69949875D01*
X80282584Y-69966584D01*
X80170468Y-70208036D01*
X80161806Y-70223677D01*
X80016640Y-70446835D01*
X80005853Y-70461092D01*
X79830571Y-70661450D01*
X79817874Y-70674037D01*
X79615997Y-70847570D01*
X79601646Y-70858234D01*
X79377230Y-71001452D01*
X79361514Y-71009976D01*
X79119103Y-71119982D01*
X79102340Y-71126197D01*
X78846783Y-71200791D01*
X78829308Y-71204570D01*
X78564681Y-71242397D01*
X78549057Y-71243646D01*
X78419650Y-71245911D01*
X78415920Y-71245977D01*
X78413716Y-71245996D01*
X66947705Y-71245996D01*
X66751315Y-71248335D01*
X66751313Y-71248335D01*
X66360429Y-71286834D01*
X66360424Y-71286834D01*
X66360423Y-71286835D01*
X66298551Y-71299141D01*
X65975195Y-71363459D01*
X65599318Y-71477479D01*
X65599308Y-71477482D01*
X65236425Y-71627793D01*
X64890021Y-71812948D01*
X64890006Y-71812957D01*
X64563436Y-72031164D01*
X64563431Y-72031167D01*
X64563431Y-72031168D01*
X64563362Y-72031225D01*
X64259799Y-72280351D01*
X64119259Y-72417591D01*
X60463053Y-76073797D01*
X60461884Y-76074952D01*
X60313319Y-76219692D01*
X60304463Y-76227544D01*
X59980964Y-76488282D01*
X59970033Y-76496166D01*
X59621239Y-76720408D01*
X59609529Y-76727080D01*
X59238763Y-76912793D01*
X59226407Y-76918175D01*
X58837172Y-77063506D01*
X58825901Y-77067121D01*
X58627209Y-77120695D01*
X58622588Y-77121848D01*
X58535169Y-77141908D01*
X58512459Y-77144981D01*
X58330137Y-77152905D01*
X58304164Y-77151345D01*
X58125650Y-77121906D01*
X58100552Y-77115044D01*
X57931897Y-77049569D01*
X57908742Y-77037698D01*
X57757128Y-76938973D01*
X57736906Y-76922598D01*
X57608806Y-76794837D01*
X57592378Y-76774659D01*
X57493250Y-76623308D01*
X57481318Y-76600186D01*
X57440616Y-76496166D01*
X57415392Y-76431702D01*
X57408464Y-76406624D01*
X57378551Y-76228190D01*
X57376922Y-76202221D01*
X57384298Y-76021446D01*
X57388035Y-75995711D01*
X57432390Y-75820290D01*
X57441332Y-75795875D01*
X57520771Y-75633307D01*
X57534540Y-75611246D01*
X57646659Y-75467203D01*
X57662275Y-75450516D01*
X57731048Y-75389259D01*
X59835941Y-73449850D01*
X59928409Y-73353406D01*
X60085205Y-73137087D01*
X60206230Y-72898904D01*
X60288506Y-72644720D01*
X60330007Y-72380795D01*
X60329709Y-72113627D01*
X60287622Y-71849795D01*
X60204780Y-71595795D01*
X60204779Y-71595791D01*
X60083231Y-71357893D01*
X60083228Y-71357889D01*
X60083225Y-71357882D01*
X59968825Y-71200791D01*
X59925950Y-71141915D01*
X59925946Y-71141911D01*
X59736836Y-70953217D01*
X59736827Y-70953209D01*
X59736823Y-70953205D01*
X59736820Y-70953203D01*
X59736818Y-70953201D01*
X59520507Y-70796408D01*
X59520508Y-70796408D01*
X59516812Y-70794530D01*
X59282324Y-70675378D01*
X59202791Y-70649633D01*
X59028144Y-70593099D01*
X58764218Y-70551595D01*
X58764217Y-70551595D01*
X58719689Y-70551644D01*
X58497045Y-70551889D01*
X58233215Y-70593973D01*
X57979215Y-70676811D01*
X57741304Y-70798360D01*
X57741299Y-70798363D01*
X57525332Y-70955634D01*
X57429105Y-71048362D01*
X57024943Y-71449688D01*
X57021979Y-71452537D01*
X56188070Y-72228227D01*
X56184573Y-72231360D01*
X55322586Y-72975239D01*
X55318976Y-72978239D01*
X54429631Y-73689688D01*
X54426378Y-73692204D01*
X53971647Y-74032247D01*
X53968789Y-74034322D01*
X53896336Y-74085399D01*
X53876740Y-74096726D01*
X53714105Y-74172137D01*
X53689938Y-74180484D01*
X53516880Y-74221170D01*
X53491526Y-74224466D01*
X53313814Y-74229379D01*
X53288317Y-74227489D01*
X53113274Y-74196427D01*
X53088683Y-74189429D01*
X52923509Y-74123669D01*
X52900837Y-74111850D01*
X52751080Y-74013272D01*
X52733405Y-73999214D01*
X52669037Y-73937835D01*
X52666895Y-73935743D01*
X51148733Y-72417582D01*
X51008162Y-72280408D01*
X51008157Y-72280404D01*
X51008153Y-72280400D01*
X50704530Y-72031225D01*
X50695943Y-72025487D01*
X50377949Y-71813010D01*
X50031547Y-71627856D01*
X49668668Y-71477546D01*
X49426961Y-71404226D01*
X49292801Y-71363530D01*
X49292797Y-71363529D01*
X49292790Y-71363527D01*
X48907574Y-71286904D01*
X48907569Y-71286903D01*
X48907564Y-71286902D01*
X48907554Y-71286901D01*
X48516700Y-71248406D01*
X48516697Y-71248405D01*
X48462129Y-71247735D01*
X48320293Y-71245996D01*
X48320254Y-71245996D01*
X36854247Y-71245996D01*
X36852068Y-71245977D01*
X36718960Y-71243674D01*
X36703309Y-71242425D01*
X36438694Y-71204589D01*
X36421222Y-71200811D01*
X36165665Y-71126209D01*
X36148902Y-71119994D01*
X35906486Y-71009979D01*
X35890772Y-71001455D01*
X35666361Y-70858235D01*
X35652011Y-70847572D01*
X35450131Y-70674036D01*
X35437435Y-70661450D01*
X35262148Y-70461090D01*
X35251361Y-70446835D01*
X35106185Y-70223667D01*
X35097530Y-70208036D01*
X34985410Y-69966591D01*
X34979049Y-69949883D01*
X34901906Y-69693927D01*
X34898326Y-69678668D01*
X34876023Y-69547374D01*
X34875672Y-69545194D01*
X34642269Y-68008500D01*
X32036117Y-50849932D01*
X32045663Y-50779580D01*
X32091728Y-50725557D01*
X32159688Y-50705015D01*
X32227966Y-50724476D01*
X32274883Y-50777761D01*
X32278319Y-50785857D01*
X32316920Y-50886418D01*
X32316924Y-50886426D01*
X32493366Y-51232714D01*
X32493370Y-51232720D01*
X32705043Y-51558670D01*
X32705055Y-51558687D01*
X32911877Y-51814090D01*
X32911878Y-51814091D01*
X34412368Y-50313600D01*
X34488589Y-50418509D01*
X34666671Y-50596591D01*
X34771577Y-50672810D01*
X33271087Y-52173300D01*
X33271088Y-52173301D01*
X33526492Y-52380124D01*
X33526509Y-52380136D01*
X33852459Y-52591809D01*
X33852465Y-52591813D01*
X34198753Y-52768255D01*
X34198761Y-52768259D01*
X34561586Y-52907534D01*
X34937005Y-53008127D01*
X35320886Y-53068928D01*
X35708995Y-53089268D01*
X35709007Y-53089268D01*
X36097115Y-53068928D01*
X36480996Y-53008127D01*
X36856415Y-52907534D01*
X37219240Y-52768259D01*
X37219248Y-52768255D01*
X37565536Y-52591813D01*
X37565542Y-52591809D01*
X37891502Y-52380129D01*
X38146913Y-52173300D01*
X36646423Y-50672810D01*
X36751331Y-50596591D01*
X36929413Y-50418509D01*
X37005632Y-50313601D01*
X38520653Y-51828622D01*
X38536976Y-51832499D01*
X38586215Y-51883646D01*
X38600501Y-51941920D01*
X38600501Y-56508217D01*
X38580499Y-56576338D01*
X38526843Y-56622831D01*
X38456569Y-56632935D01*
X38391989Y-56603441D01*
X38385406Y-56597312D01*
X38254381Y-56466287D01*
X38254377Y-56466284D01*
X38254375Y-56466282D01*
X38081382Y-56340594D01*
X37890855Y-56243515D01*
X37890854Y-56243514D01*
X37890851Y-56243513D01*
X37687492Y-56177438D01*
X37687490Y-56177437D01*
X37687488Y-56177437D01*
X37476289Y-56143986D01*
X37262456Y-56143986D01*
X36804334Y-56216544D01*
X36804332Y-56216544D01*
X36804329Y-56216545D01*
X36600962Y-56282623D01*
X36410444Y-56379695D01*
X36237443Y-56505387D01*
X36237440Y-56505389D01*
X36086248Y-56656581D01*
X35960555Y-56829581D01*
X35863474Y-57020111D01*
X35797399Y-57223470D01*
X35763947Y-57434677D01*
X35763947Y-57546544D01*
X35763947Y-57648507D01*
X35790908Y-57818739D01*
X35797398Y-57859711D01*
X35863476Y-58063078D01*
X35960548Y-58253596D01*
X35960551Y-58253601D01*
X36086238Y-58426595D01*
X36086240Y-58426597D01*
X36086242Y-58426600D01*
X36237434Y-58577792D01*
X36237437Y-58577794D01*
X36237441Y-58577798D01*
X36410434Y-58703486D01*
X36580001Y-58789885D01*
X36631614Y-58838631D01*
X36648680Y-58907546D01*
X36625779Y-58974748D01*
X36611892Y-58991245D01*
X36477332Y-59125805D01*
X36351641Y-59298802D01*
X36254560Y-59489332D01*
X36188485Y-59692691D01*
X36155033Y-59903898D01*
X36155033Y-60027498D01*
X36155033Y-60117728D01*
X36180751Y-60280112D01*
X36188484Y-60328932D01*
X36254562Y-60532299D01*
X36351634Y-60722817D01*
X36351637Y-60722822D01*
X36477324Y-60895816D01*
X36477326Y-60895818D01*
X36477328Y-60895821D01*
X36628520Y-61047013D01*
X36628523Y-61047015D01*
X36628527Y-61047019D01*
X36801520Y-61172707D01*
X36971087Y-61259106D01*
X37022700Y-61307852D01*
X37039766Y-61376767D01*
X37016865Y-61443969D01*
X37002978Y-61460466D01*
X36868418Y-61595026D01*
X36742727Y-61768023D01*
X36645646Y-61958553D01*
X36579571Y-62161912D01*
X36546119Y-62373119D01*
X36546119Y-62514608D01*
X36546119Y-62586949D01*
X36566741Y-62717157D01*
X36579570Y-62798153D01*
X36645648Y-63001520D01*
X36742720Y-63192038D01*
X36742723Y-63192043D01*
X36868410Y-63365037D01*
X36868412Y-63365039D01*
X36868414Y-63365042D01*
X37019610Y-63516238D01*
X37019613Y-63516240D01*
X37168706Y-63624564D01*
X37212060Y-63680786D01*
X37218135Y-63751522D01*
X37185003Y-63814313D01*
X37176755Y-63822071D01*
X37047703Y-63932945D01*
X36943481Y-64076393D01*
X36875149Y-64240012D01*
X36846394Y-64414972D01*
X36846394Y-64414974D01*
X36846394Y-64414976D01*
X36851273Y-64503147D01*
X36852163Y-64519238D01*
X37055699Y-65804310D01*
X37082428Y-65905242D01*
X37082434Y-65905259D01*
X37163842Y-66062760D01*
X37163844Y-66062762D01*
X37163846Y-66062766D01*
X37279393Y-66197260D01*
X37422841Y-66301481D01*
X37586459Y-66369812D01*
X37761423Y-66398568D01*
X37865685Y-66392800D01*
X39397678Y-66150155D01*
X39498621Y-66123423D01*
X39498629Y-66123419D01*
X39656131Y-66042011D01*
X39656132Y-66042009D01*
X39656136Y-66042008D01*
X39790630Y-65926460D01*
X39894851Y-65783013D01*
X39963182Y-65619395D01*
X39991938Y-65444430D01*
X39986169Y-65340168D01*
X39872501Y-64622499D01*
X39881601Y-64552089D01*
X39907852Y-64513696D01*
X40589166Y-63832384D01*
X40672174Y-63708153D01*
X40729351Y-63570116D01*
X40758500Y-63423574D01*
X40758500Y-63274164D01*
X40758500Y-61988924D01*
X40778502Y-61920803D01*
X40832158Y-61874310D01*
X40902432Y-61864206D01*
X40967012Y-61893700D01*
X40973594Y-61899828D01*
X46857119Y-67783354D01*
X47022297Y-67893722D01*
X47129809Y-67938254D01*
X47205831Y-67969744D01*
X47400671Y-68008500D01*
X47400672Y-68008500D01*
X66599328Y-68008500D01*
X66599329Y-68008500D01*
X66794169Y-67969744D01*
X66977704Y-67893721D01*
X67142881Y-67783353D01*
X67283353Y-67642881D01*
X67283352Y-67642881D01*
X67342866Y-67583367D01*
X67342865Y-67583367D01*
X70283354Y-64642881D01*
X70393722Y-64477703D01*
X70469744Y-64294168D01*
X70475009Y-64267703D01*
X70475891Y-64263271D01*
X70508499Y-64099334D01*
X70508500Y-64099327D01*
X70508500Y-60941263D01*
X72695500Y-60941263D01*
X72695500Y-61170736D01*
X72725450Y-61398231D01*
X72730750Y-61418012D01*
X72784842Y-61619887D01*
X72872656Y-61831888D01*
X72872657Y-61831889D01*
X72872662Y-61831900D01*
X72987386Y-62030608D01*
X72987391Y-62030615D01*
X73127073Y-62212652D01*
X73127092Y-62212673D01*
X73289326Y-62374907D01*
X73289347Y-62374926D01*
X73471384Y-62514608D01*
X73471391Y-62514613D01*
X73670099Y-62629337D01*
X73670103Y-62629338D01*
X73670112Y-62629344D01*
X73882113Y-62717158D01*
X74103762Y-62776548D01*
X74103766Y-62776548D01*
X74103768Y-62776549D01*
X74162398Y-62784267D01*
X74331266Y-62806500D01*
X74331273Y-62806500D01*
X74560727Y-62806500D01*
X74560734Y-62806500D01*
X74766345Y-62779430D01*
X74788231Y-62776549D01*
X74788231Y-62776548D01*
X74788238Y-62776548D01*
X75009887Y-62717158D01*
X75221888Y-62629344D01*
X75420612Y-62514611D01*
X75602661Y-62374919D01*
X75764919Y-62212661D01*
X75904611Y-62030612D01*
X76019344Y-61831888D01*
X76107158Y-61619887D01*
X76166548Y-61398238D01*
X76196500Y-61170734D01*
X76196500Y-60941266D01*
X76166548Y-60713762D01*
X76107158Y-60492113D01*
X76019344Y-60280112D01*
X76019338Y-60280103D01*
X76019337Y-60280099D01*
X75904613Y-60081391D01*
X75904608Y-60081384D01*
X75764926Y-59899347D01*
X75764907Y-59899326D01*
X75602673Y-59737092D01*
X75602652Y-59737073D01*
X75420615Y-59597391D01*
X75420608Y-59597386D01*
X75221900Y-59482662D01*
X75221892Y-59482658D01*
X75221888Y-59482656D01*
X75009887Y-59394842D01*
X74788238Y-59335452D01*
X74788231Y-59335450D01*
X74560736Y-59305500D01*
X74560734Y-59305500D01*
X74331266Y-59305500D01*
X74331263Y-59305500D01*
X74103768Y-59335450D01*
X73882113Y-59394842D01*
X73674055Y-59481023D01*
X73670110Y-59482657D01*
X73670099Y-59482662D01*
X73471391Y-59597386D01*
X73471384Y-59597391D01*
X73289347Y-59737073D01*
X73289326Y-59737092D01*
X73127092Y-59899326D01*
X73127073Y-59899347D01*
X72987391Y-60081384D01*
X72987386Y-60081391D01*
X72872662Y-60280099D01*
X72872657Y-60280110D01*
X72784842Y-60492113D01*
X72725450Y-60713768D01*
X72695500Y-60941263D01*
X70508500Y-60941263D01*
X70508500Y-51900672D01*
X70508499Y-51900668D01*
X70505113Y-51883646D01*
X70488690Y-51801079D01*
X70495018Y-51730367D01*
X70538572Y-51674299D01*
X70605524Y-51650680D01*
X70612269Y-51650499D01*
X71666544Y-51650499D01*
X71767888Y-51640146D01*
X71837689Y-51653122D01*
X71889394Y-51701775D01*
X71906587Y-51770658D01*
X71883810Y-51837902D01*
X71869789Y-51854589D01*
X71621055Y-52103323D01*
X71621047Y-52103332D01*
X71528665Y-52223728D01*
X71513268Y-52243796D01*
X71491399Y-52272296D01*
X71480721Y-52286212D01*
X71365468Y-52485835D01*
X71365463Y-52485844D01*
X71307018Y-52626945D01*
X71277252Y-52698806D01*
X71262349Y-52754426D01*
X71217587Y-52921479D01*
X71187500Y-53150013D01*
X71187500Y-56851260D01*
X71217587Y-57079794D01*
X71217588Y-57079800D01*
X71217589Y-57079802D01*
X71277251Y-57302464D01*
X71365465Y-57515433D01*
X71365466Y-57515434D01*
X71365471Y-57515444D01*
X71460106Y-57679355D01*
X71480724Y-57715066D01*
X71590887Y-57858634D01*
X71621053Y-57897947D01*
X71621062Y-57897957D01*
X71784042Y-58060937D01*
X71784052Y-58060946D01*
X71784053Y-58060947D01*
X71966934Y-58201276D01*
X72166567Y-58316535D01*
X72379536Y-58404749D01*
X72602198Y-58464411D01*
X72602204Y-58464411D01*
X72602205Y-58464412D01*
X72628425Y-58467863D01*
X72830742Y-58494500D01*
X72830749Y-58494500D01*
X73061251Y-58494500D01*
X73061258Y-58494500D01*
X73289802Y-58464411D01*
X73512464Y-58404749D01*
X73725433Y-58316535D01*
X73925066Y-58201276D01*
X74107947Y-58060947D01*
X74270947Y-57897947D01*
X74411276Y-57715066D01*
X74466856Y-57618798D01*
X74518238Y-57569806D01*
X74587952Y-57556370D01*
X74653863Y-57582756D01*
X74695045Y-57640588D01*
X74696060Y-57644229D01*
X74698112Y-57650424D01*
X74698113Y-57650425D01*
X74753885Y-57818738D01*
X74838507Y-57955930D01*
X74846970Y-57969651D01*
X74846975Y-57969657D01*
X74972342Y-58095024D01*
X74972348Y-58095029D01*
X74972349Y-58095030D01*
X75123262Y-58188115D01*
X75291575Y-58243887D01*
X75319906Y-58246781D01*
X75395448Y-58254500D01*
X75395456Y-58254500D01*
X76496552Y-58254500D01*
X76565798Y-58247424D01*
X76600425Y-58243887D01*
X76768738Y-58188115D01*
X76919651Y-58095030D01*
X77045030Y-57969651D01*
X77138115Y-57818738D01*
X77193887Y-57650425D01*
X77197424Y-57615798D01*
X77204500Y-57546552D01*
X77204500Y-55925447D01*
X77193887Y-55821578D01*
X77193887Y-55821575D01*
X77138115Y-55653262D01*
X77045030Y-55502349D01*
X77045029Y-55502348D01*
X77045024Y-55502342D01*
X76919657Y-55376975D01*
X76919651Y-55376970D01*
X76810595Y-55309703D01*
X76768738Y-55283885D01*
X76600425Y-55228113D01*
X76600423Y-55228112D01*
X76600421Y-55228112D01*
X76496552Y-55217500D01*
X76496544Y-55217500D01*
X75395456Y-55217500D01*
X75395448Y-55217500D01*
X75291578Y-55228112D01*
X75123262Y-55283885D01*
X75123260Y-55283886D01*
X74972348Y-55376970D01*
X74972342Y-55376975D01*
X74919595Y-55429723D01*
X74857283Y-55463749D01*
X74786468Y-55458684D01*
X74729632Y-55416137D01*
X74704821Y-55349617D01*
X74704500Y-55340628D01*
X74704500Y-54045858D01*
X74724502Y-53977737D01*
X74741405Y-53956763D01*
X76233938Y-52464230D01*
X76233948Y-52464220D01*
X76374277Y-52281339D01*
X76489536Y-52081706D01*
X76573990Y-51877814D01*
X76618537Y-51822536D01*
X76685901Y-51800115D01*
X76735175Y-51812691D01*
X76761878Y-51814091D01*
X78262368Y-50313600D01*
X78338589Y-50418509D01*
G37*
%TD.AperFunction*%
%TA.AperFunction,Conductor*%
G36*
X44796236Y-51206612D02*
G01*
X44835718Y-51265618D01*
X44841500Y-51303348D01*
X44841500Y-52974860D01*
X44866806Y-53102077D01*
X44866807Y-53102080D01*
X44886663Y-53150016D01*
X44916445Y-53221917D01*
X44988509Y-53329769D01*
X44988513Y-53329773D01*
X46985812Y-55327072D01*
X47019838Y-55389384D01*
X47014773Y-55460199D01*
X47011325Y-55464804D01*
X47070010Y-55452913D01*
X47136169Y-55478671D01*
X47139161Y-55481051D01*
X47142669Y-55483929D01*
X47142679Y-55483939D01*
X47250531Y-55556003D01*
X47370371Y-55605642D01*
X47497591Y-55630948D01*
X47497592Y-55630948D01*
X47627305Y-55630948D01*
X47640791Y-55630948D01*
X47708912Y-55650950D01*
X47755405Y-55704606D01*
X47765509Y-55774880D01*
X47760397Y-55796572D01*
X47753828Y-55816399D01*
X47752112Y-55821578D01*
X47741500Y-55925447D01*
X47741500Y-57546552D01*
X47741499Y-57546552D01*
X47752112Y-57650421D01*
X47752112Y-57650423D01*
X47752113Y-57650425D01*
X47807885Y-57818738D01*
X47892507Y-57955930D01*
X47900970Y-57969651D01*
X47900975Y-57969657D01*
X48026342Y-58095024D01*
X48026348Y-58095029D01*
X48026349Y-58095030D01*
X48177262Y-58188115D01*
X48345575Y-58243887D01*
X48373906Y-58246781D01*
X48449448Y-58254500D01*
X48449456Y-58254500D01*
X49550552Y-58254500D01*
X49619798Y-58247424D01*
X49654425Y-58243887D01*
X49822738Y-58188115D01*
X49973651Y-58095030D01*
X50099030Y-57969651D01*
X50138222Y-57906110D01*
X50191007Y-57858634D01*
X50261082Y-57847231D01*
X50326198Y-57875524D01*
X50361870Y-57924040D01*
X50390444Y-57993023D01*
X50462508Y-58100875D01*
X50462512Y-58100879D01*
X53579116Y-61217484D01*
X53579119Y-61217486D01*
X53579124Y-61217491D01*
X53663948Y-61274168D01*
X53686976Y-61289555D01*
X53806816Y-61339194D01*
X53934036Y-61364500D01*
X55085029Y-61364500D01*
X55153150Y-61384502D01*
X55186965Y-61416439D01*
X55188106Y-61418009D01*
X55313794Y-61591004D01*
X55313796Y-61591006D01*
X55313798Y-61591009D01*
X55444468Y-61721679D01*
X55478494Y-61783991D01*
X55473429Y-61854806D01*
X55430882Y-61911642D01*
X55421520Y-61918015D01*
X55276660Y-62007365D01*
X55276654Y-62007370D01*
X55151370Y-62132654D01*
X55151365Y-62132660D01*
X55058342Y-62283474D01*
X55002606Y-62451678D01*
X55002605Y-62451681D01*
X54992000Y-62555483D01*
X54992000Y-62952000D01*
X56073164Y-62952000D01*
X56032370Y-63022657D01*
X56000000Y-63143465D01*
X56000000Y-63268535D01*
X56032370Y-63389343D01*
X56073164Y-63460000D01*
X54992000Y-63460000D01*
X54992000Y-63856516D01*
X55002605Y-63960318D01*
X55002607Y-63960330D01*
X55052988Y-64112367D01*
X55055429Y-64183322D01*
X55019121Y-64244332D01*
X54955592Y-64276027D01*
X54933384Y-64278000D01*
X52936425Y-64278000D01*
X52868304Y-64257998D01*
X52847330Y-64241095D01*
X51612883Y-63006649D01*
X51612881Y-63006647D01*
X51447704Y-62896279D01*
X51264168Y-62820256D01*
X51069331Y-62781500D01*
X51069329Y-62781500D01*
X50870671Y-62781500D01*
X50870668Y-62781500D01*
X50675831Y-62820256D01*
X50675826Y-62820258D01*
X50492296Y-62896279D01*
X50327123Y-63006644D01*
X50327116Y-63006649D01*
X50186649Y-63147116D01*
X50186644Y-63147123D01*
X50076279Y-63312296D01*
X50000258Y-63495826D01*
X50000256Y-63495831D01*
X49961500Y-63690668D01*
X49961500Y-63889331D01*
X49975621Y-63960321D01*
X50000256Y-64084168D01*
X50076279Y-64267704D01*
X50186647Y-64432881D01*
X50186649Y-64432883D01*
X51530170Y-65776405D01*
X51564196Y-65838717D01*
X51559131Y-65909533D01*
X51516584Y-65966368D01*
X51450064Y-65991179D01*
X51441075Y-65991500D01*
X47969925Y-65991500D01*
X47901804Y-65971498D01*
X47880830Y-65954595D01*
X42867498Y-60941263D01*
X45749500Y-60941263D01*
X45749500Y-61170736D01*
X45779450Y-61398231D01*
X45784750Y-61418012D01*
X45838842Y-61619887D01*
X45926656Y-61831888D01*
X45926657Y-61831889D01*
X45926662Y-61831900D01*
X46041386Y-62030608D01*
X46041391Y-62030615D01*
X46181073Y-62212652D01*
X46181092Y-62212673D01*
X46343326Y-62374907D01*
X46343347Y-62374926D01*
X46525384Y-62514608D01*
X46525391Y-62514613D01*
X46724099Y-62629337D01*
X46724103Y-62629338D01*
X46724112Y-62629344D01*
X46936113Y-62717158D01*
X47157762Y-62776548D01*
X47157766Y-62776548D01*
X47157768Y-62776549D01*
X47216398Y-62784267D01*
X47385266Y-62806500D01*
X47385273Y-62806500D01*
X47614727Y-62806500D01*
X47614734Y-62806500D01*
X47820345Y-62779430D01*
X47842231Y-62776549D01*
X47842231Y-62776548D01*
X47842238Y-62776548D01*
X48063887Y-62717158D01*
X48275888Y-62629344D01*
X48474612Y-62514611D01*
X48656661Y-62374919D01*
X48818919Y-62212661D01*
X48958611Y-62030612D01*
X49073344Y-61831888D01*
X49161158Y-61619887D01*
X49220548Y-61398238D01*
X49250500Y-61170734D01*
X49250500Y-60941266D01*
X49220548Y-60713762D01*
X49161158Y-60492113D01*
X49073344Y-60280112D01*
X49073338Y-60280103D01*
X49073337Y-60280099D01*
X48958613Y-60081391D01*
X48958608Y-60081384D01*
X48818926Y-59899347D01*
X48818907Y-59899326D01*
X48656673Y-59737092D01*
X48656652Y-59737073D01*
X48474615Y-59597391D01*
X48474608Y-59597386D01*
X48275900Y-59482662D01*
X48275892Y-59482658D01*
X48275888Y-59482656D01*
X48063887Y-59394842D01*
X47842238Y-59335452D01*
X47842231Y-59335450D01*
X47614736Y-59305500D01*
X47614734Y-59305500D01*
X47385266Y-59305500D01*
X47385263Y-59305500D01*
X47157768Y-59335450D01*
X46936113Y-59394842D01*
X46728055Y-59481023D01*
X46724110Y-59482657D01*
X46724099Y-59482662D01*
X46525391Y-59597386D01*
X46525384Y-59597391D01*
X46343347Y-59737073D01*
X46343326Y-59737092D01*
X46181092Y-59899326D01*
X46181073Y-59899347D01*
X46041391Y-60081384D01*
X46041386Y-60081391D01*
X45926662Y-60280099D01*
X45926657Y-60280110D01*
X45838842Y-60492113D01*
X45779450Y-60713768D01*
X45749500Y-60941263D01*
X42867498Y-60941263D01*
X42525405Y-60599170D01*
X42491379Y-60536858D01*
X42488500Y-60510075D01*
X42488500Y-56376954D01*
X44741500Y-56376954D01*
X44741500Y-57095046D01*
X44772488Y-57290700D01*
X44833702Y-57479097D01*
X44923634Y-57655598D01*
X44923636Y-57655601D01*
X45040071Y-57815860D01*
X45180139Y-57955928D01*
X45217270Y-57982905D01*
X45340402Y-58072366D01*
X45516903Y-58162298D01*
X45705300Y-58223512D01*
X45900954Y-58254500D01*
X45900957Y-58254500D01*
X46099043Y-58254500D01*
X46099046Y-58254500D01*
X46294700Y-58223512D01*
X46483097Y-58162298D01*
X46659598Y-58072366D01*
X46819858Y-57955930D01*
X46959930Y-57815858D01*
X47076366Y-57655598D01*
X47166298Y-57479097D01*
X47227512Y-57290700D01*
X47258500Y-57095046D01*
X47258500Y-56376954D01*
X47227512Y-56181300D01*
X47166298Y-55992903D01*
X47076366Y-55816402D01*
X47061964Y-55796580D01*
X46995141Y-55704606D01*
X46959930Y-55656142D01*
X46959927Y-55656139D01*
X46957292Y-55652512D01*
X46933434Y-55585645D01*
X46947219Y-55526362D01*
X46905706Y-55541846D01*
X46836332Y-55526755D01*
X46822656Y-55518103D01*
X46659601Y-55399636D01*
X46659600Y-55399635D01*
X46659598Y-55399634D01*
X46483097Y-55309702D01*
X46294700Y-55248488D01*
X46099046Y-55217500D01*
X45900954Y-55217500D01*
X45705300Y-55248488D01*
X45705297Y-55248488D01*
X45705296Y-55248489D01*
X45516903Y-55309702D01*
X45516901Y-55309703D01*
X45340398Y-55399636D01*
X45180139Y-55516071D01*
X45040071Y-55656139D01*
X44923636Y-55816398D01*
X44923634Y-55816402D01*
X44833702Y-55992903D01*
X44772488Y-56181300D01*
X44741500Y-56376954D01*
X42488500Y-56376954D01*
X42488500Y-51776499D01*
X42508502Y-51708378D01*
X42562158Y-51661885D01*
X42614500Y-51650499D01*
X43980544Y-51650499D01*
X44084426Y-51639887D01*
X44252738Y-51584115D01*
X44403652Y-51491030D01*
X44529030Y-51365652D01*
X44608260Y-51237199D01*
X44661045Y-51189723D01*
X44731120Y-51178320D01*
X44796236Y-51206612D01*
G37*
%TD.AperFunction*%
%TA.AperFunction,Conductor*%
G36*
X58342197Y-56978502D02*
G01*
X58363171Y-56995405D01*
X58906647Y-57538881D01*
X59047119Y-57679353D01*
X59212296Y-57789721D01*
X59395831Y-57865744D01*
X59590671Y-57904500D01*
X59590672Y-57904500D01*
X59789328Y-57904500D01*
X59789329Y-57904500D01*
X59984169Y-57865744D01*
X60167704Y-57789721D01*
X60332881Y-57679353D01*
X60473353Y-57538881D01*
X60473352Y-57538881D01*
X60832831Y-57179404D01*
X60895143Y-57145379D01*
X60921926Y-57142500D01*
X62966190Y-57142500D01*
X63034311Y-57162502D01*
X63080804Y-57216158D01*
X63090908Y-57286432D01*
X63068126Y-57342561D01*
X62958108Y-57493987D01*
X62861029Y-57684515D01*
X62861026Y-57684521D01*
X62794952Y-57887878D01*
X62794951Y-57887883D01*
X62794951Y-57887884D01*
X62761500Y-58099084D01*
X62761500Y-58312916D01*
X62794951Y-58524116D01*
X62794952Y-58524121D01*
X62853231Y-58703486D01*
X62861028Y-58727483D01*
X62958106Y-58918009D01*
X63083794Y-59091004D01*
X63083796Y-59091006D01*
X63083798Y-59091009D01*
X63234990Y-59242201D01*
X63234993Y-59242203D01*
X63234996Y-59242206D01*
X63312894Y-59298802D01*
X63388955Y-59354064D01*
X63432309Y-59410286D01*
X63438384Y-59481023D01*
X63405252Y-59543814D01*
X63388955Y-59557936D01*
X63234993Y-59669796D01*
X63234990Y-59669798D01*
X63083798Y-59820990D01*
X63083796Y-59820993D01*
X62958108Y-59993987D01*
X62861029Y-60184515D01*
X62861026Y-60184521D01*
X62794952Y-60387878D01*
X62794951Y-60387883D01*
X62794951Y-60387884D01*
X62761500Y-60599084D01*
X62761500Y-60812916D01*
X62781829Y-60941266D01*
X62794952Y-61024121D01*
X62857781Y-61217491D01*
X62861028Y-61227483D01*
X62958106Y-61418009D01*
X63083794Y-61591004D01*
X63083796Y-61591006D01*
X63083798Y-61591009D01*
X63234990Y-61742201D01*
X63234993Y-61742203D01*
X63234996Y-61742206D01*
X63237839Y-61744272D01*
X63238659Y-61745334D01*
X63238758Y-61745419D01*
X63238740Y-61745439D01*
X63281193Y-61800493D01*
X63287270Y-61871229D01*
X63286383Y-61875265D01*
X63283909Y-61885700D01*
X64140463Y-62742254D01*
X64061657Y-62763370D01*
X63953343Y-62825905D01*
X63864905Y-62914343D01*
X63802370Y-63022657D01*
X63781254Y-63101463D01*
X62879814Y-62200023D01*
X62828342Y-62283474D01*
X62772606Y-62451678D01*
X62772605Y-62451681D01*
X62762000Y-62555483D01*
X62762000Y-63856516D01*
X62772605Y-63960318D01*
X62772606Y-63960321D01*
X62828344Y-64128529D01*
X62879813Y-64211974D01*
X62879814Y-64211975D01*
X63781253Y-63310535D01*
X63802370Y-63389343D01*
X63864905Y-63497657D01*
X63953343Y-63586095D01*
X64061657Y-63648630D01*
X64140462Y-63669745D01*
X63283909Y-64526298D01*
X63283910Y-64526299D01*
X63365669Y-64553392D01*
X63365681Y-64553394D01*
X63469483Y-64563999D01*
X63469483Y-64564000D01*
X65020517Y-64564000D01*
X65020516Y-64563999D01*
X65124318Y-64553394D01*
X65124330Y-64553392D01*
X65206089Y-64526299D01*
X65206090Y-64526298D01*
X64349537Y-63669745D01*
X64428343Y-63648630D01*
X64536657Y-63586095D01*
X64625095Y-63497657D01*
X64687630Y-63389343D01*
X64708746Y-63310536D01*
X65610184Y-64211974D01*
X65610185Y-64211974D01*
X65661655Y-64128529D01*
X65661656Y-64128527D01*
X65717393Y-63960321D01*
X65717394Y-63960318D01*
X65727999Y-63856516D01*
X65728000Y-63856516D01*
X65728000Y-62555483D01*
X65717394Y-62451681D01*
X65717393Y-62451678D01*
X65661656Y-62283472D01*
X65610185Y-62200024D01*
X65610184Y-62200023D01*
X64708745Y-63101462D01*
X64687630Y-63022657D01*
X64625095Y-62914343D01*
X64536657Y-62825905D01*
X64428343Y-62763370D01*
X64349536Y-62742254D01*
X65206088Y-61885701D01*
X65203616Y-61875267D01*
X65207368Y-61804370D01*
X65248855Y-61746756D01*
X65252139Y-61744287D01*
X65255004Y-61742206D01*
X65406206Y-61591004D01*
X65531894Y-61418009D01*
X65531896Y-61418003D01*
X65533076Y-61416079D01*
X65533719Y-61415496D01*
X65534804Y-61414004D01*
X65535117Y-61414231D01*
X65585716Y-61368439D01*
X65615934Y-61358318D01*
X65712077Y-61339194D01*
X65831917Y-61289555D01*
X65939769Y-61217491D01*
X68276405Y-58880855D01*
X68338717Y-58846829D01*
X68409532Y-58851894D01*
X68466368Y-58894441D01*
X68491179Y-58960961D01*
X68491500Y-58969950D01*
X68491500Y-63530075D01*
X68471498Y-63598196D01*
X68454595Y-63619170D01*
X66119171Y-65954595D01*
X66056859Y-65988620D01*
X66030076Y-65991500D01*
X61241076Y-65991500D01*
X61172955Y-65971498D01*
X61126462Y-65917842D01*
X61116358Y-65847568D01*
X61136311Y-65795498D01*
X61144653Y-65783013D01*
X61157221Y-65764204D01*
X61233244Y-65580669D01*
X61272000Y-65385829D01*
X61272000Y-65187171D01*
X61233244Y-64992331D01*
X61157221Y-64808796D01*
X61046853Y-64643619D01*
X60906381Y-64503147D01*
X60741204Y-64392779D01*
X60557669Y-64316756D01*
X60362831Y-64278000D01*
X60362829Y-64278000D01*
X58016616Y-64278000D01*
X57948495Y-64257998D01*
X57902002Y-64204342D01*
X57891898Y-64134068D01*
X57897012Y-64112367D01*
X57947392Y-63960330D01*
X57947394Y-63960318D01*
X57957999Y-63856516D01*
X57958000Y-63856516D01*
X57958000Y-63460000D01*
X56876836Y-63460000D01*
X56917630Y-63389343D01*
X56950000Y-63268535D01*
X56950000Y-63143465D01*
X56917630Y-63022657D01*
X56876836Y-62952000D01*
X57958000Y-62952000D01*
X57958000Y-62555483D01*
X57947394Y-62451681D01*
X57947393Y-62451678D01*
X57891657Y-62283474D01*
X57798634Y-62132660D01*
X57798629Y-62132654D01*
X57673345Y-62007370D01*
X57673339Y-62007365D01*
X57528479Y-61918015D01*
X57481001Y-61865229D01*
X57469598Y-61795154D01*
X57497890Y-61730039D01*
X57505520Y-61721689D01*
X57636206Y-61591004D01*
X57761894Y-61418009D01*
X57858972Y-61227483D01*
X57925049Y-61024116D01*
X57958500Y-60812916D01*
X57958500Y-60599084D01*
X57925049Y-60387884D01*
X57858972Y-60184517D01*
X57761894Y-59993991D01*
X57636206Y-59820996D01*
X57636203Y-59820993D01*
X57636201Y-59820990D01*
X57485009Y-59669798D01*
X57485006Y-59669796D01*
X57485004Y-59669794D01*
X57331043Y-59557935D01*
X57287690Y-59501714D01*
X57281615Y-59430978D01*
X57314746Y-59368186D01*
X57331044Y-59354064D01*
X57485004Y-59242206D01*
X57636206Y-59091004D01*
X57761894Y-58918009D01*
X57858972Y-58727483D01*
X57925049Y-58524116D01*
X57958500Y-58312916D01*
X57958500Y-58099084D01*
X57925049Y-57887884D01*
X57858972Y-57684517D01*
X57761894Y-57493991D01*
X57636206Y-57320996D01*
X57636203Y-57320993D01*
X57636201Y-57320990D01*
X57488806Y-57173595D01*
X57454780Y-57111283D01*
X57459845Y-57040468D01*
X57502392Y-56983632D01*
X57568912Y-56958821D01*
X57577901Y-56958500D01*
X58274076Y-56958500D01*
X58342197Y-56978502D01*
G37*
%TD.AperFunction*%
%TA.AperFunction,Conductor*%
G36*
X55440220Y-56978502D02*
G01*
X55486713Y-57032158D01*
X55496817Y-57102432D01*
X55467323Y-57167012D01*
X55461194Y-57173595D01*
X55313798Y-57320990D01*
X55313796Y-57320993D01*
X55186965Y-57495561D01*
X55130743Y-57538915D01*
X55085029Y-57547500D01*
X53402924Y-57547500D01*
X53334803Y-57527498D01*
X53288310Y-57473842D01*
X53278206Y-57403568D01*
X53307700Y-57338988D01*
X53313829Y-57332405D01*
X53650829Y-56995405D01*
X53713141Y-56961379D01*
X53739924Y-56958500D01*
X55372099Y-56958500D01*
X55440220Y-56978502D01*
G37*
%TD.AperFunction*%
%TA.AperFunction,Conductor*%
G36*
X50309321Y-38478502D02*
G01*
X50355814Y-38532158D01*
X50365918Y-38602432D01*
X50355395Y-38637750D01*
X50312881Y-38728920D01*
X50312879Y-38728926D01*
X50269670Y-38890182D01*
X50255885Y-38941629D01*
X50236693Y-39161000D01*
X50255885Y-39380371D01*
X50272628Y-39442856D01*
X50312879Y-39593073D01*
X50312881Y-39593079D01*
X50391031Y-39760673D01*
X50405944Y-39792654D01*
X50509421Y-39940433D01*
X50532251Y-39973038D01*
X50532254Y-39973042D01*
X50687957Y-40128745D01*
X50687961Y-40128748D01*
X50687962Y-40128749D01*
X50868346Y-40255056D01*
X51067924Y-40348120D01*
X51280629Y-40405115D01*
X51500000Y-40424307D01*
X51719371Y-40405115D01*
X51922126Y-40350786D01*
X51993100Y-40352476D01*
X52043829Y-40383397D01*
X53054785Y-41394354D01*
X53219963Y-41504722D01*
X53263857Y-41522903D01*
X53319139Y-41567451D01*
X53341560Y-41634814D01*
X53329836Y-41692560D01*
X53312881Y-41728920D01*
X53312879Y-41728926D01*
X53255885Y-41941629D01*
X53236693Y-42161000D01*
X53255885Y-42380370D01*
X53312879Y-42593073D01*
X53312881Y-42593079D01*
X53390964Y-42760530D01*
X53405944Y-42792654D01*
X53490619Y-42913581D01*
X53532251Y-42973038D01*
X53532254Y-42973042D01*
X53687957Y-43128745D01*
X53687961Y-43128748D01*
X53687962Y-43128749D01*
X53868346Y-43255056D01*
X54067924Y-43348120D01*
X54280629Y-43405115D01*
X54500000Y-43424307D01*
X54719371Y-43405115D01*
X54832890Y-43374697D01*
X54903865Y-43376387D01*
X54962661Y-43416181D01*
X54990609Y-43481445D01*
X54991500Y-43496404D01*
X54991500Y-44624331D01*
X55020661Y-44770933D01*
X55030256Y-44819169D01*
X55106279Y-45002704D01*
X55216647Y-45167881D01*
X55357119Y-45308353D01*
X55522296Y-45418721D01*
X55705831Y-45494744D01*
X55900671Y-45533500D01*
X57495076Y-45533500D01*
X57563197Y-45553502D01*
X57584171Y-45570405D01*
X58919595Y-46905829D01*
X58953621Y-46968141D01*
X58956500Y-46994924D01*
X58956500Y-47106916D01*
X58980218Y-47256662D01*
X58989952Y-47318123D01*
X58989953Y-47318124D01*
X59008941Y-47376565D01*
X59010968Y-47447533D01*
X58974305Y-47508330D01*
X58910593Y-47539655D01*
X58889108Y-47541500D01*
X58177894Y-47541500D01*
X58109773Y-47521498D01*
X58088799Y-47504595D01*
X57026704Y-46442499D01*
X57026689Y-46442486D01*
X56983875Y-46399671D01*
X56929804Y-46363542D01*
X56867834Y-46322135D01*
X56776660Y-46284369D01*
X56776659Y-46284368D01*
X56738895Y-46268726D01*
X56738889Y-46268725D01*
X56662620Y-46253555D01*
X56662619Y-46253554D01*
X56662619Y-46253555D01*
X56602018Y-46241500D01*
X56602015Y-46241500D01*
X56602014Y-46241500D01*
X53948644Y-46241500D01*
X53880523Y-46221498D01*
X53846708Y-46189561D01*
X53795621Y-46119246D01*
X53756206Y-46064996D01*
X53756203Y-46064993D01*
X53756201Y-46064990D01*
X53605009Y-45913798D01*
X53605006Y-45913796D01*
X53605004Y-45913794D01*
X53432009Y-45788106D01*
X53241483Y-45691028D01*
X53241480Y-45691027D01*
X53241478Y-45691026D01*
X53038120Y-45624952D01*
X53038123Y-45624952D01*
X52998801Y-45618724D01*
X52826916Y-45591500D01*
X52363084Y-45591500D01*
X52151884Y-45624951D01*
X52151878Y-45624952D01*
X51948521Y-45691026D01*
X51948515Y-45691029D01*
X51757987Y-45788108D01*
X51584993Y-45913796D01*
X51584990Y-45913798D01*
X51433798Y-46064990D01*
X51433796Y-46064993D01*
X51308108Y-46237987D01*
X51211029Y-46428515D01*
X51211026Y-46428521D01*
X51144952Y-46631878D01*
X51144951Y-46631883D01*
X51144951Y-46631884D01*
X51111500Y-46843084D01*
X51111500Y-47056916D01*
X51144951Y-47268116D01*
X51144952Y-47268121D01*
X51203246Y-47447533D01*
X51211028Y-47471483D01*
X51308106Y-47662009D01*
X51433794Y-47835004D01*
X51433796Y-47835006D01*
X51433798Y-47835009D01*
X51584990Y-47986201D01*
X51584993Y-47986203D01*
X51584996Y-47986206D01*
X51614630Y-48007736D01*
X51738955Y-48098064D01*
X51782309Y-48154286D01*
X51788384Y-48225023D01*
X51755252Y-48287814D01*
X51738955Y-48301936D01*
X51584993Y-48413796D01*
X51584990Y-48413798D01*
X51433798Y-48564990D01*
X51433796Y-48564993D01*
X51308108Y-48737987D01*
X51211029Y-48928515D01*
X51211026Y-48928521D01*
X51144952Y-49131878D01*
X51144951Y-49131883D01*
X51144951Y-49131884D01*
X51111500Y-49343084D01*
X51111500Y-49556916D01*
X51124890Y-49641455D01*
X51144952Y-49768121D01*
X51161198Y-49818121D01*
X51211028Y-49971483D01*
X51308106Y-50162009D01*
X51433794Y-50335004D01*
X51433796Y-50335006D01*
X51433798Y-50335009D01*
X51584990Y-50486201D01*
X51584993Y-50486203D01*
X51584996Y-50486206D01*
X51587839Y-50488272D01*
X51588659Y-50489334D01*
X51588758Y-50489419D01*
X51588740Y-50489439D01*
X51631193Y-50544493D01*
X51637270Y-50615229D01*
X51636383Y-50619265D01*
X51633909Y-50629700D01*
X52490463Y-51486254D01*
X52411657Y-51507370D01*
X52303343Y-51569905D01*
X52214905Y-51658343D01*
X52152370Y-51766657D01*
X52131254Y-51845463D01*
X51229814Y-50944023D01*
X51178342Y-51027474D01*
X51122606Y-51195678D01*
X51122605Y-51195681D01*
X51112000Y-51299483D01*
X51112000Y-52600516D01*
X51122605Y-52704318D01*
X51122606Y-52704321D01*
X51178344Y-52872529D01*
X51229813Y-52955974D01*
X51229814Y-52955975D01*
X52131253Y-52054535D01*
X52152370Y-52133343D01*
X52214905Y-52241657D01*
X52303343Y-52330095D01*
X52411657Y-52392630D01*
X52490462Y-52413745D01*
X51633909Y-53270298D01*
X51633910Y-53270299D01*
X51715669Y-53297392D01*
X51715681Y-53297394D01*
X51819483Y-53307999D01*
X51819483Y-53308000D01*
X53370517Y-53308000D01*
X53370516Y-53307999D01*
X53474318Y-53297394D01*
X53474330Y-53297392D01*
X53556089Y-53270299D01*
X53556090Y-53270298D01*
X52699537Y-52413745D01*
X52778343Y-52392630D01*
X52886657Y-52330095D01*
X52975095Y-52241657D01*
X53037630Y-52133343D01*
X53058746Y-52054536D01*
X53960184Y-52955974D01*
X53960185Y-52955974D01*
X54011655Y-52872529D01*
X54011656Y-52872527D01*
X54067393Y-52704321D01*
X54067394Y-52704318D01*
X54077999Y-52600516D01*
X54078000Y-52600516D01*
X54078000Y-51299483D01*
X54067394Y-51195681D01*
X54067393Y-51195678D01*
X54011656Y-51027472D01*
X53960185Y-50944024D01*
X53960184Y-50944023D01*
X53058745Y-51845462D01*
X53037630Y-51766657D01*
X52975095Y-51658343D01*
X52886657Y-51569905D01*
X52778343Y-51507370D01*
X52699536Y-51486254D01*
X53556088Y-50629701D01*
X53553616Y-50619267D01*
X53557368Y-50548370D01*
X53598855Y-50490756D01*
X53602139Y-50488287D01*
X53605004Y-50486206D01*
X53756206Y-50335004D01*
X53881894Y-50162009D01*
X53978972Y-49971483D01*
X54045049Y-49768116D01*
X54078500Y-49556916D01*
X54078500Y-49343084D01*
X54045049Y-49131884D01*
X53978972Y-48928517D01*
X53881894Y-48737991D01*
X53756206Y-48564996D01*
X53756203Y-48564993D01*
X53756201Y-48564990D01*
X53605009Y-48413798D01*
X53605006Y-48413796D01*
X53605004Y-48413794D01*
X53451043Y-48301935D01*
X53407690Y-48245714D01*
X53401615Y-48174978D01*
X53434746Y-48112186D01*
X53451044Y-48098064D01*
X53605004Y-47986206D01*
X53756206Y-47835004D01*
X53846708Y-47710439D01*
X53902930Y-47667085D01*
X53948644Y-47658500D01*
X56186572Y-47658500D01*
X56254693Y-47678502D01*
X56275667Y-47695405D01*
X57380584Y-48800323D01*
X57380590Y-48800328D01*
X57496632Y-48877865D01*
X57587805Y-48915630D01*
X57625571Y-48931273D01*
X57690123Y-48944113D01*
X57762451Y-48958500D01*
X57762452Y-48958500D01*
X58889108Y-48958500D01*
X58957229Y-48978502D01*
X59003722Y-49032158D01*
X59013826Y-49102432D01*
X59008941Y-49123435D01*
X58989953Y-49181875D01*
X58989952Y-49181876D01*
X58979122Y-49250256D01*
X58956500Y-49393084D01*
X58956500Y-49606916D01*
X58979297Y-49750847D01*
X58989952Y-49818121D01*
X59056026Y-50021478D01*
X59056028Y-50021483D01*
X59153106Y-50212009D01*
X59278794Y-50385004D01*
X59278796Y-50385006D01*
X59278798Y-50385009D01*
X59409104Y-50515315D01*
X59443130Y-50577627D01*
X59438065Y-50648442D01*
X59395518Y-50705278D01*
X59386156Y-50711651D01*
X59241347Y-50800970D01*
X59241341Y-50800975D01*
X59115975Y-50926341D01*
X59115970Y-50926347D01*
X59022885Y-51077262D01*
X58967113Y-51245572D01*
X58967112Y-51245579D01*
X58956500Y-51349446D01*
X58956500Y-52005074D01*
X58936498Y-52073195D01*
X58919598Y-52094167D01*
X58906650Y-52107115D01*
X58906648Y-52107117D01*
X58906647Y-52107119D01*
X58796279Y-52272296D01*
X58720258Y-52455825D01*
X58720256Y-52455830D01*
X58681500Y-52650668D01*
X58681500Y-54815500D01*
X58661498Y-54883621D01*
X58607842Y-54930114D01*
X58555500Y-54941500D01*
X53170668Y-54941500D01*
X53025529Y-54970370D01*
X52975831Y-54980256D01*
X52975830Y-54980256D01*
X52975827Y-54980257D01*
X52929372Y-54999500D01*
X52870770Y-55023774D01*
X52792296Y-55056279D01*
X52627123Y-55166644D01*
X52627121Y-55166645D01*
X52132712Y-55661053D01*
X52070400Y-55695078D01*
X51999584Y-55690013D01*
X51954522Y-55661052D01*
X51893768Y-55600298D01*
X50211984Y-53918513D01*
X50211983Y-53918512D01*
X50211980Y-53918509D01*
X50104128Y-53846445D01*
X49984291Y-53796807D01*
X49984288Y-53796806D01*
X49857071Y-53771500D01*
X49857068Y-53771500D01*
X49403188Y-53771500D01*
X49335067Y-53751498D01*
X49288574Y-53697842D01*
X49278470Y-53627568D01*
X49307964Y-53562988D01*
X49314093Y-53556405D01*
X49336198Y-53534300D01*
X49467523Y-53346749D01*
X49564284Y-53139243D01*
X49623543Y-52918087D01*
X49643498Y-52690000D01*
X49623543Y-52461913D01*
X49564284Y-52240757D01*
X49467523Y-52033251D01*
X49336198Y-51845700D01*
X49174300Y-51683802D01*
X49160728Y-51674299D01*
X48986749Y-51552477D01*
X48779246Y-51455717D01*
X48779240Y-51455715D01*
X48685771Y-51430670D01*
X48558087Y-51396457D01*
X48330000Y-51376502D01*
X48101913Y-51396457D01*
X47880759Y-51455715D01*
X47880753Y-51455717D01*
X47673250Y-51552477D01*
X47485703Y-51683799D01*
X47485697Y-51683804D01*
X47323804Y-51845697D01*
X47323799Y-51845703D01*
X47192477Y-52033250D01*
X47095717Y-52240753D01*
X47095715Y-52240759D01*
X47094901Y-52243797D01*
X47038089Y-52455825D01*
X47036456Y-52461918D01*
X47032389Y-52508402D01*
X47006526Y-52574520D01*
X46949022Y-52616159D01*
X46878135Y-52620099D01*
X46817774Y-52586514D01*
X46695405Y-52464145D01*
X46661379Y-52401833D01*
X46658500Y-52375050D01*
X46658500Y-44184949D01*
X46678502Y-44116828D01*
X46695399Y-44095859D01*
X47598234Y-43193024D01*
X47660543Y-43159002D01*
X47731358Y-43164066D01*
X47759596Y-43178909D01*
X47841500Y-43236258D01*
X47868346Y-43255056D01*
X48067924Y-43348120D01*
X48280629Y-43405115D01*
X48500000Y-43424307D01*
X48719371Y-43405115D01*
X48735414Y-43400816D01*
X48806389Y-43402502D01*
X48865186Y-43442294D01*
X48893136Y-43507558D01*
X48881366Y-43577572D01*
X48857123Y-43611616D01*
X48715363Y-43753376D01*
X48653051Y-43787402D01*
X48593659Y-43785988D01*
X48558088Y-43776457D01*
X48330000Y-43756502D01*
X48101913Y-43776457D01*
X47880759Y-43835715D01*
X47880753Y-43835717D01*
X47673250Y-43932477D01*
X47485703Y-44063799D01*
X47485697Y-44063804D01*
X47323804Y-44225697D01*
X47323799Y-44225703D01*
X47192477Y-44413250D01*
X47095717Y-44620753D01*
X47095715Y-44620759D01*
X47064816Y-44736075D01*
X47036457Y-44841913D01*
X47016502Y-45070000D01*
X47036457Y-45298087D01*
X47046636Y-45336075D01*
X47095715Y-45519240D01*
X47095717Y-45519246D01*
X47192477Y-45726749D01*
X47323447Y-45913794D01*
X47323802Y-45914300D01*
X47485700Y-46076198D01*
X47673251Y-46207523D01*
X47880757Y-46304284D01*
X48101913Y-46363543D01*
X48330000Y-46383498D01*
X48558087Y-46363543D01*
X48779243Y-46304284D01*
X48986749Y-46207523D01*
X49174300Y-46076198D01*
X49336198Y-45914300D01*
X49467523Y-45726749D01*
X49564284Y-45519243D01*
X49623543Y-45298087D01*
X49643498Y-45070000D01*
X49623543Y-44841913D01*
X49614011Y-44806340D01*
X49615699Y-44735369D01*
X49646620Y-44684637D01*
X50111490Y-44219769D01*
X50183555Y-44111917D01*
X50233194Y-43992077D01*
X50245049Y-43932477D01*
X50258500Y-43864857D01*
X50258500Y-42981702D01*
X50278502Y-42913581D01*
X50332158Y-42867088D01*
X50402432Y-42856984D01*
X50467012Y-42886478D01*
X50487713Y-42909432D01*
X50532247Y-42973033D01*
X50532254Y-42973042D01*
X50687957Y-43128745D01*
X50687961Y-43128748D01*
X50687962Y-43128749D01*
X50868346Y-43255056D01*
X51067924Y-43348120D01*
X51280629Y-43405115D01*
X51500000Y-43424307D01*
X51719371Y-43405115D01*
X51932076Y-43348120D01*
X52131654Y-43255056D01*
X52312038Y-43128749D01*
X52467749Y-42973038D01*
X52594056Y-42792654D01*
X52687120Y-42593076D01*
X52744115Y-42380371D01*
X52763307Y-42161000D01*
X52744115Y-41941629D01*
X52687120Y-41728924D01*
X52594056Y-41529347D01*
X52467749Y-41348962D01*
X52312038Y-41193251D01*
X52131654Y-41066944D01*
X52131650Y-41066942D01*
X51932079Y-40973881D01*
X51932073Y-40973879D01*
X51842178Y-40949791D01*
X51719371Y-40916885D01*
X51500000Y-40897693D01*
X51280629Y-40916885D01*
X51067926Y-40973879D01*
X51067920Y-40973881D01*
X50868346Y-41066944D01*
X50687965Y-41193248D01*
X50687959Y-41193253D01*
X50532253Y-41348959D01*
X50532248Y-41348965D01*
X50461001Y-41450717D01*
X50405544Y-41495045D01*
X50334924Y-41502354D01*
X50271564Y-41470323D01*
X50235579Y-41409122D01*
X50234209Y-41403027D01*
X50233194Y-41397923D01*
X50183555Y-41278083D01*
X50178588Y-41270649D01*
X50111491Y-41170231D01*
X49275865Y-40334605D01*
X49241839Y-40272293D01*
X49246904Y-40201478D01*
X49289451Y-40144642D01*
X49292691Y-40142296D01*
X49295308Y-40140462D01*
X49312038Y-40128749D01*
X49467749Y-39973038D01*
X49594056Y-39792654D01*
X49687120Y-39593076D01*
X49744115Y-39380371D01*
X49763307Y-39161000D01*
X49744115Y-38941629D01*
X49687120Y-38728924D01*
X49644605Y-38637750D01*
X49633944Y-38567558D01*
X49662924Y-38502745D01*
X49722344Y-38463889D01*
X49758800Y-38458500D01*
X50241200Y-38458500D01*
X50309321Y-38478502D01*
G37*
%TD.AperFunction*%
%TA.AperFunction,Conductor*%
G36*
X63217112Y-43388095D02*
G01*
X63223229Y-43389734D01*
X63238770Y-43393899D01*
X63295249Y-43426509D01*
X64225242Y-44356502D01*
X65153376Y-45284635D01*
X65187401Y-45346947D01*
X65185988Y-45406340D01*
X65176458Y-45441907D01*
X65176457Y-45441910D01*
X65176457Y-45441913D01*
X65156502Y-45670000D01*
X65176457Y-45898087D01*
X65180802Y-45914302D01*
X65235715Y-46119240D01*
X65235717Y-46119246D01*
X65332477Y-46326749D01*
X65403734Y-46428515D01*
X65463802Y-46514300D01*
X65625700Y-46676198D01*
X65813251Y-46807523D01*
X66020757Y-46904284D01*
X66241913Y-46963543D01*
X66470000Y-46983498D01*
X66698087Y-46963543D01*
X66919243Y-46904284D01*
X67126749Y-46807523D01*
X67314300Y-46676198D01*
X67442405Y-46548093D01*
X67504717Y-46514067D01*
X67575532Y-46519132D01*
X67632368Y-46561679D01*
X67657179Y-46628199D01*
X67657500Y-46637188D01*
X67657500Y-51910337D01*
X67637498Y-51978458D01*
X67583842Y-52024951D01*
X67513568Y-52035055D01*
X67487470Y-52028393D01*
X67379201Y-51988011D01*
X67379199Y-51988010D01*
X67379197Y-51988010D01*
X67379196Y-51988009D01*
X67318649Y-51981500D01*
X67318638Y-51981500D01*
X66144949Y-51981500D01*
X66076828Y-51961498D01*
X66055854Y-51944595D01*
X63099773Y-48988513D01*
X63099772Y-48988512D01*
X63099769Y-48988509D01*
X62991917Y-48916445D01*
X62898774Y-48877864D01*
X62872080Y-48866807D01*
X62872077Y-48866806D01*
X62744860Y-48841500D01*
X62744857Y-48841500D01*
X61864660Y-48841500D01*
X61796539Y-48821498D01*
X61750046Y-48767842D01*
X61739942Y-48697568D01*
X61769436Y-48632988D01*
X61775550Y-48626419D01*
X62900328Y-47501643D01*
X62977865Y-47385601D01*
X62999986Y-47332192D01*
X63031273Y-47256662D01*
X63058500Y-47119781D01*
X63058500Y-43509801D01*
X63078502Y-43441680D01*
X63132158Y-43395187D01*
X63202432Y-43385083D01*
X63217112Y-43388095D01*
G37*
%TD.AperFunction*%
%TA.AperFunction,Conductor*%
G36*
X65841407Y-30246006D02*
G01*
X65850791Y-30246126D01*
X66045591Y-30248619D01*
X66057218Y-30249307D01*
X66464064Y-30292338D01*
X66477150Y-30294424D01*
X66876421Y-30379836D01*
X66889212Y-30383285D01*
X67277303Y-30510223D01*
X67289655Y-30514997D01*
X67662226Y-30682039D01*
X67674030Y-30688097D01*
X68026959Y-30893393D01*
X68038058Y-30900657D01*
X68367438Y-31141933D01*
X68377716Y-31150328D01*
X68680497Y-31425458D01*
X68688746Y-31433682D01*
X68826506Y-31584335D01*
X68827594Y-31585540D01*
X81738397Y-46075060D01*
X81768781Y-46139226D01*
X81759651Y-46209633D01*
X81713906Y-46263928D01*
X81646069Y-46284871D01*
X81577677Y-46265814D01*
X81575700Y-46264556D01*
X81415542Y-46160548D01*
X81415536Y-46160544D01*
X81069248Y-45984102D01*
X81069240Y-45984098D01*
X80706415Y-45844823D01*
X80330996Y-45744230D01*
X79947115Y-45683429D01*
X79559007Y-45663090D01*
X79558995Y-45663090D01*
X79170886Y-45683429D01*
X78787005Y-45744230D01*
X78411586Y-45844823D01*
X78048761Y-45984098D01*
X78048753Y-45984102D01*
X77702456Y-46160550D01*
X77376503Y-46372226D01*
X77121087Y-46579056D01*
X78621578Y-48079547D01*
X78516671Y-48155767D01*
X78338589Y-48333849D01*
X78262369Y-48438756D01*
X76747343Y-46923731D01*
X76731021Y-46919854D01*
X76681784Y-46868705D01*
X76667501Y-46810436D01*
X76667501Y-43394090D01*
X76667501Y-43394083D01*
X76646723Y-43236258D01*
X76637413Y-43165543D01*
X76625148Y-43119769D01*
X76618374Y-43094489D01*
X76577751Y-42942876D01*
X76504012Y-42764857D01*
X76489536Y-42729908D01*
X76374277Y-42530275D01*
X76233948Y-42347394D01*
X76070948Y-42184394D01*
X74988021Y-41101467D01*
X71722618Y-37836062D01*
X71722601Y-37836047D01*
X71539728Y-37695725D01*
X71528798Y-37689415D01*
X71498936Y-37672174D01*
X71340093Y-37580465D01*
X71340091Y-37580464D01*
X71340089Y-37580463D01*
X71189501Y-37518088D01*
X71189501Y-37518087D01*
X71127127Y-37492252D01*
X71127128Y-37492252D01*
X71127125Y-37492251D01*
X70904462Y-37432589D01*
X70904460Y-37432588D01*
X70904454Y-37432587D01*
X70675920Y-37402500D01*
X70675918Y-37402500D01*
X69384742Y-37402500D01*
X69384739Y-37402500D01*
X69156205Y-37432587D01*
X68933536Y-37492251D01*
X68720565Y-37580466D01*
X68720555Y-37580471D01*
X68520938Y-37695721D01*
X68338052Y-37836053D01*
X68338042Y-37836062D01*
X68175062Y-37999042D01*
X68175053Y-37999052D01*
X68034721Y-38181938D01*
X67919471Y-38381555D01*
X67919466Y-38381565D01*
X67919465Y-38381567D01*
X67858253Y-38529347D01*
X67843554Y-38564834D01*
X67799006Y-38620115D01*
X67731642Y-38642536D01*
X67662851Y-38624978D01*
X67614473Y-38573016D01*
X67612950Y-38569865D01*
X67607202Y-38557539D01*
X67594056Y-38529347D01*
X67467749Y-38348962D01*
X67312038Y-38193251D01*
X67307035Y-38189748D01*
X67202405Y-38116485D01*
X67131654Y-38066944D01*
X67021190Y-38015434D01*
X66932079Y-37973881D01*
X66932073Y-37973879D01*
X66842178Y-37949791D01*
X66719371Y-37916885D01*
X66500000Y-37897693D01*
X66280629Y-37916885D01*
X66067926Y-37973879D01*
X66067920Y-37973881D01*
X65868346Y-38066944D01*
X65687965Y-38193248D01*
X65687959Y-38193253D01*
X65532253Y-38348959D01*
X65532248Y-38348965D01*
X65405944Y-38529346D01*
X65312881Y-38728920D01*
X65312879Y-38728926D01*
X65255885Y-38941629D01*
X65236693Y-39161000D01*
X65252596Y-39342780D01*
X65238606Y-39412385D01*
X65216171Y-39442856D01*
X65093434Y-39565595D01*
X65031122Y-39599620D01*
X65004338Y-39602500D01*
X64848284Y-39602500D01*
X64780163Y-39582498D01*
X64733670Y-39528842D01*
X64723566Y-39458568D01*
X64726577Y-39443888D01*
X64743619Y-39380286D01*
X64762804Y-39161000D01*
X64743619Y-38941712D01*
X64686649Y-38729096D01*
X64686647Y-38729092D01*
X64593621Y-38529598D01*
X64551198Y-38469012D01*
X64551196Y-38469012D01*
X63992323Y-39027885D01*
X63975245Y-38964147D01*
X63908102Y-38847853D01*
X63813147Y-38752898D01*
X63696853Y-38685755D01*
X63633112Y-38668676D01*
X64191986Y-38109801D01*
X64191986Y-38109800D01*
X64131401Y-38067378D01*
X64131402Y-38067378D01*
X63931907Y-37974352D01*
X63931903Y-37974350D01*
X63719287Y-37917380D01*
X63500000Y-37898195D01*
X63280712Y-37917380D01*
X63068096Y-37974350D01*
X63068092Y-37974352D01*
X62868598Y-38067378D01*
X62808011Y-38109801D01*
X63366886Y-38668676D01*
X63303147Y-38685755D01*
X63186853Y-38752898D01*
X63091898Y-38847853D01*
X63024755Y-38964147D01*
X63007676Y-39027886D01*
X62448801Y-38469011D01*
X62406378Y-38529598D01*
X62313352Y-38729092D01*
X62313350Y-38729096D01*
X62256380Y-38941712D01*
X62237195Y-39161000D01*
X62256380Y-39380287D01*
X62313350Y-39592903D01*
X62313352Y-39592907D01*
X62406378Y-39792402D01*
X62448801Y-39852986D01*
X63007675Y-39294111D01*
X63024755Y-39357853D01*
X63091898Y-39474147D01*
X63186853Y-39569102D01*
X63303147Y-39636245D01*
X63366885Y-39653323D01*
X63312976Y-39707232D01*
X63293885Y-39722900D01*
X63237356Y-39760673D01*
X63237349Y-39760678D01*
X61799676Y-41198351D01*
X61799671Y-41198357D01*
X61722134Y-41314399D01*
X61722134Y-41314400D01*
X61706477Y-41352199D01*
X61661928Y-41407479D01*
X61594565Y-41429899D01*
X61525774Y-41412340D01*
X61486856Y-41376250D01*
X61467749Y-41348962D01*
X61312038Y-41193251D01*
X61131654Y-41066944D01*
X61131650Y-41066942D01*
X60932079Y-40973881D01*
X60932073Y-40973879D01*
X60842178Y-40949791D01*
X60719371Y-40916885D01*
X60500000Y-40897693D01*
X60499999Y-40897693D01*
X60383237Y-40907907D01*
X60313632Y-40893917D01*
X60283162Y-40871481D01*
X59979528Y-40567847D01*
X59945502Y-40505535D01*
X59950567Y-40434720D01*
X59993114Y-40377884D01*
X60059634Y-40353073D01*
X60101230Y-40357044D01*
X60280629Y-40405115D01*
X60500000Y-40424307D01*
X60719371Y-40405115D01*
X60932076Y-40348120D01*
X61131654Y-40255056D01*
X61312038Y-40128749D01*
X61467749Y-39973038D01*
X61594056Y-39792654D01*
X61687120Y-39593076D01*
X61744115Y-39380371D01*
X61763307Y-39161000D01*
X61744115Y-38941629D01*
X61687120Y-38728924D01*
X61594056Y-38529347D01*
X61467749Y-38348962D01*
X61312038Y-38193251D01*
X61307035Y-38189748D01*
X61202405Y-38116485D01*
X61131654Y-38066944D01*
X61021190Y-38015434D01*
X60932079Y-37973881D01*
X60932073Y-37973879D01*
X60842178Y-37949791D01*
X60719371Y-37916885D01*
X60500000Y-37897693D01*
X60280629Y-37916885D01*
X60067926Y-37973879D01*
X60067920Y-37973881D01*
X59868346Y-38066944D01*
X59687965Y-38193248D01*
X59584070Y-38297143D01*
X59521758Y-38331168D01*
X59450942Y-38326102D01*
X59405880Y-38297142D01*
X57519576Y-36410838D01*
X57519572Y-36410834D01*
X57395341Y-36327826D01*
X57257304Y-36270649D01*
X57184033Y-36256074D01*
X57184032Y-36256073D01*
X57110768Y-36241500D01*
X57110763Y-36241500D01*
X49039271Y-36241500D01*
X48971150Y-36221498D01*
X48924657Y-36167842D01*
X48914553Y-36097568D01*
X48944047Y-36032988D01*
X48950176Y-36026405D01*
X48978907Y-35997673D01*
X48978919Y-35997661D01*
X49118611Y-35815612D01*
X49233344Y-35616888D01*
X49321158Y-35404887D01*
X49380548Y-35183238D01*
X49410500Y-34955734D01*
X49410500Y-34726266D01*
X49410500Y-34726263D01*
X65609500Y-34726263D01*
X65609500Y-34955736D01*
X65639450Y-35183231D01*
X65639452Y-35183238D01*
X65698842Y-35404887D01*
X65786656Y-35616888D01*
X65786657Y-35616889D01*
X65786662Y-35616900D01*
X65901386Y-35815608D01*
X65901391Y-35815615D01*
X66041073Y-35997652D01*
X66041092Y-35997673D01*
X66203326Y-36159907D01*
X66203347Y-36159926D01*
X66385384Y-36299608D01*
X66385391Y-36299613D01*
X66584099Y-36414337D01*
X66584103Y-36414338D01*
X66584112Y-36414344D01*
X66796113Y-36502158D01*
X67017762Y-36561548D01*
X67017766Y-36561548D01*
X67017768Y-36561549D01*
X67076398Y-36569267D01*
X67245266Y-36591500D01*
X67245273Y-36591500D01*
X67474727Y-36591500D01*
X67474734Y-36591500D01*
X67680345Y-36564430D01*
X67702231Y-36561549D01*
X67702231Y-36561548D01*
X67702238Y-36561548D01*
X67923887Y-36502158D01*
X68135888Y-36414344D01*
X68334612Y-36299611D01*
X68516661Y-36159919D01*
X68678919Y-35997661D01*
X68818611Y-35815612D01*
X68933344Y-35616888D01*
X69021158Y-35404887D01*
X69080548Y-35183238D01*
X69110500Y-34955734D01*
X69110500Y-34726266D01*
X69080548Y-34498762D01*
X69021158Y-34277113D01*
X68933344Y-34065112D01*
X68933338Y-34065103D01*
X68933337Y-34065099D01*
X68818613Y-33866391D01*
X68818608Y-33866384D01*
X68678926Y-33684347D01*
X68678907Y-33684326D01*
X68516673Y-33522092D01*
X68516652Y-33522073D01*
X68334615Y-33382391D01*
X68334608Y-33382386D01*
X68135900Y-33267662D01*
X68135892Y-33267658D01*
X68135888Y-33267656D01*
X67923887Y-33179842D01*
X67702238Y-33120452D01*
X67702231Y-33120450D01*
X67474736Y-33090500D01*
X67474734Y-33090500D01*
X67245266Y-33090500D01*
X67245263Y-33090500D01*
X67017768Y-33120450D01*
X66796113Y-33179842D01*
X66584110Y-33267657D01*
X66584099Y-33267662D01*
X66385391Y-33382386D01*
X66385384Y-33382391D01*
X66203347Y-33522073D01*
X66203326Y-33522092D01*
X66041092Y-33684326D01*
X66041073Y-33684347D01*
X65901391Y-33866384D01*
X65901386Y-33866391D01*
X65786662Y-34065099D01*
X65786657Y-34065110D01*
X65698842Y-34277113D01*
X65639450Y-34498768D01*
X65609500Y-34726263D01*
X49410500Y-34726263D01*
X49380548Y-34498762D01*
X49321158Y-34277113D01*
X49233344Y-34065112D01*
X49233338Y-34065103D01*
X49233337Y-34065099D01*
X49118613Y-33866391D01*
X49118608Y-33866384D01*
X48978926Y-33684347D01*
X48978907Y-33684326D01*
X48816673Y-33522092D01*
X48816652Y-33522073D01*
X48634615Y-33382391D01*
X48634608Y-33382386D01*
X48435900Y-33267662D01*
X48435892Y-33267658D01*
X48435888Y-33267656D01*
X48223887Y-33179842D01*
X48002238Y-33120452D01*
X48002231Y-33120450D01*
X47774736Y-33090500D01*
X47774734Y-33090500D01*
X47545266Y-33090500D01*
X47545263Y-33090500D01*
X47317768Y-33120450D01*
X47096113Y-33179842D01*
X46884110Y-33267657D01*
X46884099Y-33267662D01*
X46685391Y-33382386D01*
X46685384Y-33382391D01*
X46503347Y-33522073D01*
X46503326Y-33522092D01*
X46341092Y-33684326D01*
X46341073Y-33684347D01*
X46201391Y-33866384D01*
X46201386Y-33866391D01*
X46086662Y-34065099D01*
X46086657Y-34065110D01*
X45998842Y-34277113D01*
X45939450Y-34498768D01*
X45909500Y-34726263D01*
X45909500Y-34955736D01*
X45939450Y-35183231D01*
X45939452Y-35183238D01*
X45998842Y-35404887D01*
X46086656Y-35616888D01*
X46086657Y-35616889D01*
X46086662Y-35616900D01*
X46201386Y-35815608D01*
X46201391Y-35815615D01*
X46341073Y-35997652D01*
X46341092Y-35997673D01*
X46369824Y-36026405D01*
X46403850Y-36088717D01*
X46398785Y-36159532D01*
X46356238Y-36216368D01*
X46289718Y-36241179D01*
X46280729Y-36241500D01*
X43925290Y-36241500D01*
X43778753Y-36270649D01*
X43778750Y-36270650D01*
X43640716Y-36327826D01*
X43516486Y-36410833D01*
X43516480Y-36410838D01*
X38769839Y-41157479D01*
X38769834Y-41157485D01*
X38686827Y-41281714D01*
X38629650Y-41419752D01*
X38629648Y-41419759D01*
X38624957Y-41443338D01*
X38624958Y-41443339D01*
X38600501Y-41566289D01*
X38600501Y-46810436D01*
X38580499Y-46878557D01*
X38526843Y-46925050D01*
X38517574Y-46926813D01*
X37005632Y-48438755D01*
X36929413Y-48333849D01*
X36751331Y-48155767D01*
X36646422Y-48079546D01*
X38146913Y-46579056D01*
X38146912Y-46579055D01*
X37891509Y-46372233D01*
X37891492Y-46372221D01*
X37565542Y-46160548D01*
X37565536Y-46160544D01*
X37219248Y-45984102D01*
X37219240Y-45984098D01*
X36856415Y-45844823D01*
X36480996Y-45744230D01*
X36097115Y-45683429D01*
X35709007Y-45663090D01*
X35708995Y-45663090D01*
X35320886Y-45683429D01*
X34937005Y-45744230D01*
X34561586Y-45844823D01*
X34198761Y-45984098D01*
X34198753Y-45984102D01*
X33852456Y-46160550D01*
X33692305Y-46264553D01*
X33624280Y-46284879D01*
X33556065Y-46265201D01*
X33509318Y-46211767D01*
X33498880Y-46141542D01*
X33528065Y-46076821D01*
X33529585Y-46075082D01*
X46440458Y-31585483D01*
X46441414Y-31584425D01*
X46579287Y-31433671D01*
X46587508Y-31425477D01*
X46890308Y-31150331D01*
X46900552Y-31141963D01*
X47229974Y-30900657D01*
X47241043Y-30893413D01*
X47593987Y-30688108D01*
X47605773Y-30682059D01*
X47978360Y-30515010D01*
X47990698Y-30510241D01*
X48378792Y-30383304D01*
X48391585Y-30379854D01*
X48790851Y-30294443D01*
X48803946Y-30292355D01*
X49210804Y-30249324D01*
X49222390Y-30248638D01*
X49424321Y-30246035D01*
X49426601Y-30246006D01*
X49428224Y-30245996D01*
X65839795Y-30245996D01*
X65841407Y-30246006D01*
G37*
%TD.AperFunction*%
%TD*%
M02*
