%TF.GenerationSoftware,KiCad,Pcbnew,8.0.8*%
%TF.CreationDate,2025-01-29T22:29:45+01:00*%
%TF.ProjectId,xol-pcb,786f6c2d-7063-4622-9e6b-696361645f70,rev?*%
%TF.SameCoordinates,Original*%
%TF.FileFunction,Legend,Bot*%
%TF.FilePolarity,Positive*%
%FSLAX46Y46*%
G04 Gerber Fmt 4.6, Leading zero omitted, Abs format (unit mm)*
G04 Created by KiCad (PCBNEW 8.0.8) date 2025-01-29 22:29:45*
%MOMM*%
%LPD*%
G01*
G04 APERTURE LIST*
%ADD10C,0.250000*%
%ADD11C,0.100000*%
%ADD12C,0.150000*%
%ADD13C,0.000000*%
%ADD14C,0.120000*%
G04 APERTURE END LIST*
D10*
X65630953Y-68459619D02*
X65726191Y-68412000D01*
X65726191Y-68412000D02*
X65773810Y-68316761D01*
X65773810Y-68316761D02*
X65773810Y-67459619D01*
X64821429Y-68459619D02*
X64821429Y-67935809D01*
X64821429Y-67935809D02*
X64869048Y-67840571D01*
X64869048Y-67840571D02*
X64964286Y-67792952D01*
X64964286Y-67792952D02*
X65154762Y-67792952D01*
X65154762Y-67792952D02*
X65250000Y-67840571D01*
X64821429Y-68412000D02*
X64916667Y-68459619D01*
X64916667Y-68459619D02*
X65154762Y-68459619D01*
X65154762Y-68459619D02*
X65250000Y-68412000D01*
X65250000Y-68412000D02*
X65297619Y-68316761D01*
X65297619Y-68316761D02*
X65297619Y-68221523D01*
X65297619Y-68221523D02*
X65250000Y-68126285D01*
X65250000Y-68126285D02*
X65154762Y-68078666D01*
X65154762Y-68078666D02*
X64916667Y-68078666D01*
X64916667Y-68078666D02*
X64821429Y-68031047D01*
X63154762Y-68412000D02*
X63250000Y-68459619D01*
X63250000Y-68459619D02*
X63440476Y-68459619D01*
X63440476Y-68459619D02*
X63535714Y-68412000D01*
X63535714Y-68412000D02*
X63583333Y-68364380D01*
X63583333Y-68364380D02*
X63630952Y-68269142D01*
X63630952Y-68269142D02*
X63630952Y-67983428D01*
X63630952Y-67983428D02*
X63583333Y-67888190D01*
X63583333Y-67888190D02*
X63535714Y-67840571D01*
X63535714Y-67840571D02*
X63440476Y-67792952D01*
X63440476Y-67792952D02*
X63250000Y-67792952D01*
X63250000Y-67792952D02*
X63154762Y-67840571D01*
X62583333Y-68459619D02*
X62678571Y-68412000D01*
X62678571Y-68412000D02*
X62726190Y-68364380D01*
X62726190Y-68364380D02*
X62773809Y-68269142D01*
X62773809Y-68269142D02*
X62773809Y-67983428D01*
X62773809Y-67983428D02*
X62726190Y-67888190D01*
X62726190Y-67888190D02*
X62678571Y-67840571D01*
X62678571Y-67840571D02*
X62583333Y-67792952D01*
X62583333Y-67792952D02*
X62440476Y-67792952D01*
X62440476Y-67792952D02*
X62345238Y-67840571D01*
X62345238Y-67840571D02*
X62297619Y-67888190D01*
X62297619Y-67888190D02*
X62250000Y-67983428D01*
X62250000Y-67983428D02*
X62250000Y-68269142D01*
X62250000Y-68269142D02*
X62297619Y-68364380D01*
X62297619Y-68364380D02*
X62345238Y-68412000D01*
X62345238Y-68412000D02*
X62440476Y-68459619D01*
X62440476Y-68459619D02*
X62583333Y-68459619D01*
X61392857Y-68412000D02*
X61488095Y-68459619D01*
X61488095Y-68459619D02*
X61678571Y-68459619D01*
X61678571Y-68459619D02*
X61773809Y-68412000D01*
X61773809Y-68412000D02*
X61821428Y-68364380D01*
X61821428Y-68364380D02*
X61869047Y-68269142D01*
X61869047Y-68269142D02*
X61869047Y-67983428D01*
X61869047Y-67983428D02*
X61821428Y-67888190D01*
X61821428Y-67888190D02*
X61773809Y-67840571D01*
X61773809Y-67840571D02*
X61678571Y-67792952D01*
X61678571Y-67792952D02*
X61488095Y-67792952D01*
X61488095Y-67792952D02*
X61392857Y-67840571D01*
X60535714Y-68412000D02*
X60630952Y-68459619D01*
X60630952Y-68459619D02*
X60821428Y-68459619D01*
X60821428Y-68459619D02*
X60916666Y-68412000D01*
X60916666Y-68412000D02*
X60964285Y-68364380D01*
X60964285Y-68364380D02*
X61011904Y-68269142D01*
X61011904Y-68269142D02*
X61011904Y-67983428D01*
X61011904Y-67983428D02*
X60964285Y-67888190D01*
X60964285Y-67888190D02*
X60916666Y-67840571D01*
X60916666Y-67840571D02*
X60821428Y-67792952D01*
X60821428Y-67792952D02*
X60630952Y-67792952D01*
X60630952Y-67792952D02*
X60535714Y-67840571D01*
X60107142Y-68459619D02*
X60107142Y-67792952D01*
X60107142Y-67459619D02*
X60154761Y-67507238D01*
X60154761Y-67507238D02*
X60107142Y-67554857D01*
X60107142Y-67554857D02*
X60059523Y-67507238D01*
X60059523Y-67507238D02*
X60107142Y-67459619D01*
X60107142Y-67459619D02*
X60107142Y-67554857D01*
X59630952Y-67792952D02*
X59630952Y-68459619D01*
X59630952Y-67888190D02*
X59583333Y-67840571D01*
X59583333Y-67840571D02*
X59488095Y-67792952D01*
X59488095Y-67792952D02*
X59345238Y-67792952D01*
X59345238Y-67792952D02*
X59250000Y-67840571D01*
X59250000Y-67840571D02*
X59202381Y-67935809D01*
X59202381Y-67935809D02*
X59202381Y-68459619D01*
X58345238Y-68412000D02*
X58440476Y-68459619D01*
X58440476Y-68459619D02*
X58630952Y-68459619D01*
X58630952Y-68459619D02*
X58726190Y-68412000D01*
X58726190Y-68412000D02*
X58773809Y-68316761D01*
X58773809Y-68316761D02*
X58773809Y-67935809D01*
X58773809Y-67935809D02*
X58726190Y-67840571D01*
X58726190Y-67840571D02*
X58630952Y-67792952D01*
X58630952Y-67792952D02*
X58440476Y-67792952D01*
X58440476Y-67792952D02*
X58345238Y-67840571D01*
X58345238Y-67840571D02*
X58297619Y-67935809D01*
X58297619Y-67935809D02*
X58297619Y-68031047D01*
X58297619Y-68031047D02*
X58773809Y-68126285D01*
X57726190Y-68459619D02*
X57821428Y-68412000D01*
X57821428Y-68412000D02*
X57869047Y-68316761D01*
X57869047Y-68316761D02*
X57869047Y-67459619D01*
X57202380Y-68459619D02*
X57297618Y-68412000D01*
X57297618Y-68412000D02*
X57345237Y-68316761D01*
X57345237Y-68316761D02*
X57345237Y-67459619D01*
X56392856Y-68459619D02*
X56392856Y-67935809D01*
X56392856Y-67935809D02*
X56440475Y-67840571D01*
X56440475Y-67840571D02*
X56535713Y-67792952D01*
X56535713Y-67792952D02*
X56726189Y-67792952D01*
X56726189Y-67792952D02*
X56821427Y-67840571D01*
X56392856Y-68412000D02*
X56488094Y-68459619D01*
X56488094Y-68459619D02*
X56726189Y-68459619D01*
X56726189Y-68459619D02*
X56821427Y-68412000D01*
X56821427Y-68412000D02*
X56869046Y-68316761D01*
X56869046Y-68316761D02*
X56869046Y-68221523D01*
X56869046Y-68221523D02*
X56821427Y-68126285D01*
X56821427Y-68126285D02*
X56726189Y-68078666D01*
X56726189Y-68078666D02*
X56488094Y-68078666D01*
X56488094Y-68078666D02*
X56392856Y-68031047D01*
X55011903Y-68459619D02*
X55107141Y-68412000D01*
X55107141Y-68412000D02*
X55154760Y-68364380D01*
X55154760Y-68364380D02*
X55202379Y-68269142D01*
X55202379Y-68269142D02*
X55202379Y-67983428D01*
X55202379Y-67983428D02*
X55154760Y-67888190D01*
X55154760Y-67888190D02*
X55107141Y-67840571D01*
X55107141Y-67840571D02*
X55011903Y-67792952D01*
X55011903Y-67792952D02*
X54869046Y-67792952D01*
X54869046Y-67792952D02*
X54773808Y-67840571D01*
X54773808Y-67840571D02*
X54726189Y-67888190D01*
X54726189Y-67888190D02*
X54678570Y-67983428D01*
X54678570Y-67983428D02*
X54678570Y-68269142D01*
X54678570Y-68269142D02*
X54726189Y-68364380D01*
X54726189Y-68364380D02*
X54773808Y-68412000D01*
X54773808Y-68412000D02*
X54869046Y-68459619D01*
X54869046Y-68459619D02*
X55011903Y-68459619D01*
X54249998Y-67792952D02*
X54249998Y-68792952D01*
X54249998Y-67840571D02*
X54154760Y-67792952D01*
X54154760Y-67792952D02*
X53964284Y-67792952D01*
X53964284Y-67792952D02*
X53869046Y-67840571D01*
X53869046Y-67840571D02*
X53821427Y-67888190D01*
X53821427Y-67888190D02*
X53773808Y-67983428D01*
X53773808Y-67983428D02*
X53773808Y-68269142D01*
X53773808Y-68269142D02*
X53821427Y-68364380D01*
X53821427Y-68364380D02*
X53869046Y-68412000D01*
X53869046Y-68412000D02*
X53964284Y-68459619D01*
X53964284Y-68459619D02*
X54154760Y-68459619D01*
X54154760Y-68459619D02*
X54249998Y-68412000D01*
X52964284Y-68412000D02*
X53059522Y-68459619D01*
X53059522Y-68459619D02*
X53249998Y-68459619D01*
X53249998Y-68459619D02*
X53345236Y-68412000D01*
X53345236Y-68412000D02*
X53392855Y-68316761D01*
X53392855Y-68316761D02*
X53392855Y-67935809D01*
X53392855Y-67935809D02*
X53345236Y-67840571D01*
X53345236Y-67840571D02*
X53249998Y-67792952D01*
X53249998Y-67792952D02*
X53059522Y-67792952D01*
X53059522Y-67792952D02*
X52964284Y-67840571D01*
X52964284Y-67840571D02*
X52916665Y-67935809D01*
X52916665Y-67935809D02*
X52916665Y-68031047D01*
X52916665Y-68031047D02*
X53392855Y-68126285D01*
X52488093Y-68459619D02*
X52488093Y-67792952D01*
X52488093Y-67983428D02*
X52440474Y-67888190D01*
X52440474Y-67888190D02*
X52392855Y-67840571D01*
X52392855Y-67840571D02*
X52297617Y-67792952D01*
X52297617Y-67792952D02*
X52202379Y-67792952D01*
X51726188Y-68459619D02*
X51821426Y-68412000D01*
X51821426Y-68412000D02*
X51869045Y-68364380D01*
X51869045Y-68364380D02*
X51916664Y-68269142D01*
X51916664Y-68269142D02*
X51916664Y-67983428D01*
X51916664Y-67983428D02*
X51869045Y-67888190D01*
X51869045Y-67888190D02*
X51821426Y-67840571D01*
X51821426Y-67840571D02*
X51726188Y-67792952D01*
X51726188Y-67792952D02*
X51583331Y-67792952D01*
X51583331Y-67792952D02*
X51488093Y-67840571D01*
X51488093Y-67840571D02*
X51440474Y-67888190D01*
X51440474Y-67888190D02*
X51392855Y-67983428D01*
X51392855Y-67983428D02*
X51392855Y-68269142D01*
X51392855Y-68269142D02*
X51440474Y-68364380D01*
X51440474Y-68364380D02*
X51488093Y-68412000D01*
X51488093Y-68412000D02*
X51583331Y-68459619D01*
X51583331Y-68459619D02*
X51726188Y-68459619D01*
X51011902Y-68412000D02*
X50916664Y-68459619D01*
X50916664Y-68459619D02*
X50726188Y-68459619D01*
X50726188Y-68459619D02*
X50630950Y-68412000D01*
X50630950Y-68412000D02*
X50583331Y-68316761D01*
X50583331Y-68316761D02*
X50583331Y-68269142D01*
X50583331Y-68269142D02*
X50630950Y-68173904D01*
X50630950Y-68173904D02*
X50726188Y-68126285D01*
X50726188Y-68126285D02*
X50869045Y-68126285D01*
X50869045Y-68126285D02*
X50964283Y-68078666D01*
X50964283Y-68078666D02*
X51011902Y-67983428D01*
X51011902Y-67983428D02*
X51011902Y-67935809D01*
X51011902Y-67935809D02*
X50964283Y-67840571D01*
X50964283Y-67840571D02*
X50869045Y-67792952D01*
X50869045Y-67792952D02*
X50726188Y-67792952D01*
X50726188Y-67792952D02*
X50630950Y-67840571D01*
X49726188Y-68459619D02*
X49726188Y-67935809D01*
X49726188Y-67935809D02*
X49773807Y-67840571D01*
X49773807Y-67840571D02*
X49869045Y-67792952D01*
X49869045Y-67792952D02*
X50059521Y-67792952D01*
X50059521Y-67792952D02*
X50154759Y-67840571D01*
X49726188Y-68412000D02*
X49821426Y-68459619D01*
X49821426Y-68459619D02*
X50059521Y-68459619D01*
X50059521Y-68459619D02*
X50154759Y-68412000D01*
X50154759Y-68412000D02*
X50202378Y-68316761D01*
X50202378Y-68316761D02*
X50202378Y-68221523D01*
X50202378Y-68221523D02*
X50154759Y-68126285D01*
X50154759Y-68126285D02*
X50059521Y-68078666D01*
X50059521Y-68078666D02*
X49821426Y-68078666D01*
X49821426Y-68078666D02*
X49726188Y-68031047D01*
D11*
X40415857Y-56166598D02*
X40460553Y-56448795D01*
X40576236Y-56083341D02*
X40014910Y-56374740D01*
X40014910Y-56374740D02*
X40638810Y-56478416D01*
X40129454Y-56732656D02*
X40105704Y-56765346D01*
X40105704Y-56765346D02*
X40086423Y-56826254D01*
X40086423Y-56826254D02*
X40108771Y-56967353D01*
X40108771Y-56967353D02*
X40145930Y-57019323D01*
X40145930Y-57019323D02*
X40178619Y-57043073D01*
X40178619Y-57043073D02*
X40239528Y-57062353D01*
X40239528Y-57062353D02*
X40295967Y-57053414D01*
X40295967Y-57053414D02*
X40376156Y-57011786D01*
X40376156Y-57011786D02*
X40661158Y-56619515D01*
X40661158Y-56619515D02*
X40719262Y-56986371D01*
X41050886Y-57801674D02*
X40204296Y-57935761D01*
X40818118Y-58706369D02*
X40862813Y-58988566D01*
X40978496Y-58623113D02*
X40417170Y-58914511D01*
X40417170Y-58914511D02*
X41041070Y-59018188D01*
X41121522Y-59526142D02*
X41067888Y-59187506D01*
X41094705Y-59356824D02*
X40502092Y-59450685D01*
X40502092Y-59450685D02*
X40577812Y-59380837D01*
X40577812Y-59380837D02*
X40625312Y-59315458D01*
X40625312Y-59315458D02*
X40644593Y-59254550D01*
X41453147Y-60341446D02*
X40606557Y-60475533D01*
X41115036Y-61494246D02*
X41156664Y-61574435D01*
X41156664Y-61574435D02*
X41189353Y-61598185D01*
X41189353Y-61598185D02*
X41250262Y-61617466D01*
X41250262Y-61617466D02*
X41334921Y-61604057D01*
X41334921Y-61604057D02*
X41386891Y-61566898D01*
X41386891Y-61566898D02*
X41410641Y-61534209D01*
X41410641Y-61534209D02*
X41429922Y-61473300D01*
X41429922Y-61473300D02*
X41394165Y-61247543D01*
X41394165Y-61247543D02*
X40801552Y-61341404D01*
X40801552Y-61341404D02*
X40832839Y-61538941D01*
X40832839Y-61538941D02*
X40869998Y-61590911D01*
X40869998Y-61590911D02*
X40902687Y-61614661D01*
X40902687Y-61614661D02*
X40963596Y-61633942D01*
X40963596Y-61633942D02*
X41020035Y-61625003D01*
X41020035Y-61625003D02*
X41072005Y-61587844D01*
X41072005Y-61587844D02*
X41095755Y-61555155D01*
X41095755Y-61555155D02*
X41115036Y-61494246D01*
X41115036Y-61494246D02*
X41083749Y-61296708D01*
X40947383Y-61896858D02*
X40923633Y-61929547D01*
X40923633Y-61929547D02*
X40904352Y-61990456D01*
X40904352Y-61990456D02*
X40926700Y-62131554D01*
X40926700Y-62131554D02*
X40963859Y-62183524D01*
X40963859Y-62183524D02*
X40996548Y-62207274D01*
X40996548Y-62207274D02*
X41057457Y-62226555D01*
X41057457Y-62226555D02*
X41113896Y-62217616D01*
X41113896Y-62217616D02*
X41194086Y-62175987D01*
X41194086Y-62175987D02*
X41479087Y-61783717D01*
X41479087Y-61783717D02*
X41537191Y-62150572D01*
X41868816Y-62965876D02*
X41022226Y-63099963D01*
X41530705Y-64118676D02*
X41572333Y-64198865D01*
X41572333Y-64198865D02*
X41605022Y-64222616D01*
X41605022Y-64222616D02*
X41665931Y-64241896D01*
X41665931Y-64241896D02*
X41750590Y-64228487D01*
X41750590Y-64228487D02*
X41802560Y-64191329D01*
X41802560Y-64191329D02*
X41826310Y-64158639D01*
X41826310Y-64158639D02*
X41845591Y-64097731D01*
X41845591Y-64097731D02*
X41809834Y-63871973D01*
X41809834Y-63871973D02*
X41217221Y-63965834D01*
X41217221Y-63965834D02*
X41248508Y-64163372D01*
X41248508Y-64163372D02*
X41285667Y-64215341D01*
X41285667Y-64215341D02*
X41318356Y-64239091D01*
X41318356Y-64239091D02*
X41379265Y-64258372D01*
X41379265Y-64258372D02*
X41435704Y-64249433D01*
X41435704Y-64249433D02*
X41487674Y-64212274D01*
X41487674Y-64212274D02*
X41511424Y-64179585D01*
X41511424Y-64179585D02*
X41530705Y-64118676D01*
X41530705Y-64118676D02*
X41499418Y-63921138D01*
X41952860Y-64775003D02*
X41899225Y-64436367D01*
X41926043Y-64605685D02*
X41333430Y-64699545D01*
X41333430Y-64699545D02*
X41409150Y-64629697D01*
X41409150Y-64629697D02*
X41456650Y-64564319D01*
X41456650Y-64564319D02*
X41475930Y-64503410D01*
X52442571Y-43614371D02*
X52242571Y-44214371D01*
X52242571Y-44214371D02*
X52042571Y-43614371D01*
X51871142Y-44042942D02*
X51585428Y-44042942D01*
X51928285Y-44214371D02*
X51728285Y-43614371D01*
X51728285Y-43614371D02*
X51528285Y-44214371D01*
X51042570Y-44214371D02*
X51328284Y-44214371D01*
X51328284Y-44214371D02*
X51328284Y-43614371D01*
X50928285Y-43614371D02*
X50585428Y-43614371D01*
X50756856Y-44214371D02*
X50756856Y-43614371D01*
X55261142Y-37010371D02*
X54918285Y-37010371D01*
X55089713Y-37610371D02*
X55089713Y-37010371D01*
X54718284Y-37610371D02*
X54718284Y-37010371D01*
X54718284Y-37296085D02*
X54375427Y-37296085D01*
X54375427Y-37610371D02*
X54375427Y-37010371D01*
X54089713Y-37381800D02*
X53632571Y-37381800D01*
X63751142Y-37038942D02*
X63808285Y-37010371D01*
X63808285Y-37010371D02*
X63893999Y-37010371D01*
X63893999Y-37010371D02*
X63979713Y-37038942D01*
X63979713Y-37038942D02*
X64036856Y-37096085D01*
X64036856Y-37096085D02*
X64065427Y-37153228D01*
X64065427Y-37153228D02*
X64093999Y-37267514D01*
X64093999Y-37267514D02*
X64093999Y-37353228D01*
X64093999Y-37353228D02*
X64065427Y-37467514D01*
X64065427Y-37467514D02*
X64036856Y-37524657D01*
X64036856Y-37524657D02*
X63979713Y-37581800D01*
X63979713Y-37581800D02*
X63893999Y-37610371D01*
X63893999Y-37610371D02*
X63836856Y-37610371D01*
X63836856Y-37610371D02*
X63751142Y-37581800D01*
X63751142Y-37581800D02*
X63722570Y-37553228D01*
X63722570Y-37553228D02*
X63722570Y-37353228D01*
X63722570Y-37353228D02*
X63836856Y-37353228D01*
X63465427Y-37610371D02*
X63465427Y-37010371D01*
X63465427Y-37010371D02*
X63122570Y-37610371D01*
X63122570Y-37610371D02*
X63122570Y-37010371D01*
X62836856Y-37610371D02*
X62836856Y-37010371D01*
X62836856Y-37010371D02*
X62693999Y-37010371D01*
X62693999Y-37010371D02*
X62608285Y-37038942D01*
X62608285Y-37038942D02*
X62551142Y-37096085D01*
X62551142Y-37096085D02*
X62522571Y-37153228D01*
X62522571Y-37153228D02*
X62493999Y-37267514D01*
X62493999Y-37267514D02*
X62493999Y-37353228D01*
X62493999Y-37353228D02*
X62522571Y-37467514D01*
X62522571Y-37467514D02*
X62551142Y-37524657D01*
X62551142Y-37524657D02*
X62608285Y-37581800D01*
X62608285Y-37581800D02*
X62693999Y-37610371D01*
X62693999Y-37610371D02*
X62836856Y-37610371D01*
X45928285Y-37610371D02*
X46128285Y-37324657D01*
X46271142Y-37610371D02*
X46271142Y-37010371D01*
X46271142Y-37010371D02*
X46042571Y-37010371D01*
X46042571Y-37010371D02*
X45985428Y-37038942D01*
X45985428Y-37038942D02*
X45956857Y-37067514D01*
X45956857Y-37067514D02*
X45928285Y-37124657D01*
X45928285Y-37124657D02*
X45928285Y-37210371D01*
X45928285Y-37210371D02*
X45956857Y-37267514D01*
X45956857Y-37267514D02*
X45985428Y-37296085D01*
X45985428Y-37296085D02*
X46042571Y-37324657D01*
X46042571Y-37324657D02*
X46271142Y-37324657D01*
X45356857Y-37038942D02*
X45414000Y-37010371D01*
X45414000Y-37010371D02*
X45499714Y-37010371D01*
X45499714Y-37010371D02*
X45585428Y-37038942D01*
X45585428Y-37038942D02*
X45642571Y-37096085D01*
X45642571Y-37096085D02*
X45671142Y-37153228D01*
X45671142Y-37153228D02*
X45699714Y-37267514D01*
X45699714Y-37267514D02*
X45699714Y-37353228D01*
X45699714Y-37353228D02*
X45671142Y-37467514D01*
X45671142Y-37467514D02*
X45642571Y-37524657D01*
X45642571Y-37524657D02*
X45585428Y-37581800D01*
X45585428Y-37581800D02*
X45499714Y-37610371D01*
X45499714Y-37610371D02*
X45442571Y-37610371D01*
X45442571Y-37610371D02*
X45356857Y-37581800D01*
X45356857Y-37581800D02*
X45328285Y-37553228D01*
X45328285Y-37553228D02*
X45328285Y-37353228D01*
X45328285Y-37353228D02*
X45442571Y-37353228D01*
X44871142Y-37296085D02*
X44785428Y-37324657D01*
X44785428Y-37324657D02*
X44756857Y-37353228D01*
X44756857Y-37353228D02*
X44728285Y-37410371D01*
X44728285Y-37410371D02*
X44728285Y-37496085D01*
X44728285Y-37496085D02*
X44756857Y-37553228D01*
X44756857Y-37553228D02*
X44785428Y-37581800D01*
X44785428Y-37581800D02*
X44842571Y-37610371D01*
X44842571Y-37610371D02*
X45071142Y-37610371D01*
X45071142Y-37610371D02*
X45071142Y-37010371D01*
X45071142Y-37010371D02*
X44871142Y-37010371D01*
X44871142Y-37010371D02*
X44814000Y-37038942D01*
X44814000Y-37038942D02*
X44785428Y-37067514D01*
X44785428Y-37067514D02*
X44756857Y-37124657D01*
X44756857Y-37124657D02*
X44756857Y-37181800D01*
X44756857Y-37181800D02*
X44785428Y-37238942D01*
X44785428Y-37238942D02*
X44814000Y-37267514D01*
X44814000Y-37267514D02*
X44871142Y-37296085D01*
X44871142Y-37296085D02*
X45071142Y-37296085D01*
X49393713Y-37610371D02*
X49393713Y-37010371D01*
X49393713Y-37010371D02*
X49165142Y-37010371D01*
X49165142Y-37010371D02*
X49107999Y-37038942D01*
X49107999Y-37038942D02*
X49079428Y-37067514D01*
X49079428Y-37067514D02*
X49050856Y-37124657D01*
X49050856Y-37124657D02*
X49050856Y-37210371D01*
X49050856Y-37210371D02*
X49079428Y-37267514D01*
X49079428Y-37267514D02*
X49107999Y-37296085D01*
X49107999Y-37296085D02*
X49165142Y-37324657D01*
X49165142Y-37324657D02*
X49393713Y-37324657D01*
X48450856Y-37553228D02*
X48479428Y-37581800D01*
X48479428Y-37581800D02*
X48565142Y-37610371D01*
X48565142Y-37610371D02*
X48622285Y-37610371D01*
X48622285Y-37610371D02*
X48707999Y-37581800D01*
X48707999Y-37581800D02*
X48765142Y-37524657D01*
X48765142Y-37524657D02*
X48793713Y-37467514D01*
X48793713Y-37467514D02*
X48822285Y-37353228D01*
X48822285Y-37353228D02*
X48822285Y-37267514D01*
X48822285Y-37267514D02*
X48793713Y-37153228D01*
X48793713Y-37153228D02*
X48765142Y-37096085D01*
X48765142Y-37096085D02*
X48707999Y-37038942D01*
X48707999Y-37038942D02*
X48622285Y-37010371D01*
X48622285Y-37010371D02*
X48565142Y-37010371D01*
X48565142Y-37010371D02*
X48479428Y-37038942D01*
X48479428Y-37038942D02*
X48450856Y-37067514D01*
X47993713Y-37296085D02*
X48193713Y-37296085D01*
X48193713Y-37610371D02*
X48193713Y-37010371D01*
X48193713Y-37010371D02*
X47907999Y-37010371D01*
X47679427Y-37381800D02*
X47222285Y-37381800D01*
D12*
X68224380Y-63316295D02*
X68605332Y-63316295D01*
X68605332Y-63316295D02*
X68643428Y-63697247D01*
X68643428Y-63697247D02*
X68605332Y-63659152D01*
X68605332Y-63659152D02*
X68529142Y-63621057D01*
X68529142Y-63621057D02*
X68338666Y-63621057D01*
X68338666Y-63621057D02*
X68262475Y-63659152D01*
X68262475Y-63659152D02*
X68224380Y-63697247D01*
X68224380Y-63697247D02*
X68186285Y-63773438D01*
X68186285Y-63773438D02*
X68186285Y-63963914D01*
X68186285Y-63963914D02*
X68224380Y-64040104D01*
X68224380Y-64040104D02*
X68262475Y-64078200D01*
X68262475Y-64078200D02*
X68338666Y-64116295D01*
X68338666Y-64116295D02*
X68529142Y-64116295D01*
X68529142Y-64116295D02*
X68605332Y-64078200D01*
X68605332Y-64078200D02*
X68643428Y-64040104D01*
X67957713Y-63316295D02*
X67691046Y-64116295D01*
X67691046Y-64116295D02*
X67424380Y-63316295D01*
D11*
X64380570Y-44214371D02*
X64380570Y-43614371D01*
X64380570Y-43900085D02*
X64037713Y-43900085D01*
X64037713Y-44214371D02*
X64037713Y-43614371D01*
X63751999Y-43900085D02*
X63551999Y-43900085D01*
X63466285Y-44214371D02*
X63751999Y-44214371D01*
X63751999Y-44214371D02*
X63751999Y-43614371D01*
X63751999Y-43614371D02*
X63466285Y-43614371D01*
X63009142Y-43900085D02*
X63209142Y-43900085D01*
X63209142Y-44214371D02*
X63209142Y-43614371D01*
X63209142Y-43614371D02*
X62923428Y-43614371D01*
X62780571Y-43614371D02*
X62437714Y-43614371D01*
X62609142Y-44214371D02*
X62609142Y-43614371D01*
X49494571Y-44042942D02*
X49208857Y-44042942D01*
X49551714Y-44214371D02*
X49351714Y-43614371D01*
X49351714Y-43614371D02*
X49151714Y-44214371D01*
X48951713Y-43614371D02*
X48951713Y-44100085D01*
X48951713Y-44100085D02*
X48923142Y-44157228D01*
X48923142Y-44157228D02*
X48894571Y-44185800D01*
X48894571Y-44185800D02*
X48837428Y-44214371D01*
X48837428Y-44214371D02*
X48723142Y-44214371D01*
X48723142Y-44214371D02*
X48665999Y-44185800D01*
X48665999Y-44185800D02*
X48637428Y-44157228D01*
X48637428Y-44157228D02*
X48608856Y-44100085D01*
X48608856Y-44100085D02*
X48608856Y-43614371D01*
X48380285Y-43614371D02*
X47980285Y-44214371D01*
X47980285Y-43614371D02*
X48380285Y-44214371D01*
X47808856Y-43614371D02*
X47437428Y-43614371D01*
X47437428Y-43614371D02*
X47637428Y-43842942D01*
X47637428Y-43842942D02*
X47551713Y-43842942D01*
X47551713Y-43842942D02*
X47494571Y-43871514D01*
X47494571Y-43871514D02*
X47465999Y-43900085D01*
X47465999Y-43900085D02*
X47437428Y-43957228D01*
X47437428Y-43957228D02*
X47437428Y-44100085D01*
X47437428Y-44100085D02*
X47465999Y-44157228D01*
X47465999Y-44157228D02*
X47494571Y-44185800D01*
X47494571Y-44185800D02*
X47551713Y-44214371D01*
X47551713Y-44214371D02*
X47723142Y-44214371D01*
X47723142Y-44214371D02*
X47780285Y-44185800D01*
X47780285Y-44185800D02*
X47808856Y-44157228D01*
X60900856Y-43900085D02*
X60815142Y-43928657D01*
X60815142Y-43928657D02*
X60786571Y-43957228D01*
X60786571Y-43957228D02*
X60757999Y-44014371D01*
X60757999Y-44014371D02*
X60757999Y-44100085D01*
X60757999Y-44100085D02*
X60786571Y-44157228D01*
X60786571Y-44157228D02*
X60815142Y-44185800D01*
X60815142Y-44185800D02*
X60872285Y-44214371D01*
X60872285Y-44214371D02*
X61100856Y-44214371D01*
X61100856Y-44214371D02*
X61100856Y-43614371D01*
X61100856Y-43614371D02*
X60900856Y-43614371D01*
X60900856Y-43614371D02*
X60843714Y-43642942D01*
X60843714Y-43642942D02*
X60815142Y-43671514D01*
X60815142Y-43671514D02*
X60786571Y-43728657D01*
X60786571Y-43728657D02*
X60786571Y-43785800D01*
X60786571Y-43785800D02*
X60815142Y-43842942D01*
X60815142Y-43842942D02*
X60843714Y-43871514D01*
X60843714Y-43871514D02*
X60900856Y-43900085D01*
X60900856Y-43900085D02*
X61100856Y-43900085D01*
X60529428Y-43671514D02*
X60500856Y-43642942D01*
X60500856Y-43642942D02*
X60443714Y-43614371D01*
X60443714Y-43614371D02*
X60300856Y-43614371D01*
X60300856Y-43614371D02*
X60243714Y-43642942D01*
X60243714Y-43642942D02*
X60215142Y-43671514D01*
X60215142Y-43671514D02*
X60186571Y-43728657D01*
X60186571Y-43728657D02*
X60186571Y-43785800D01*
X60186571Y-43785800D02*
X60215142Y-43871514D01*
X60215142Y-43871514D02*
X60557999Y-44214371D01*
X60557999Y-44214371D02*
X60186571Y-44214371D01*
X55047714Y-43614371D02*
X54704857Y-43614371D01*
X54876285Y-44214371D02*
X54876285Y-43614371D01*
X54504856Y-44214371D02*
X54504856Y-43614371D01*
X54504856Y-43900085D02*
X54161999Y-43900085D01*
X54161999Y-44214371D02*
X54161999Y-43614371D01*
D12*
X53917713Y-64116295D02*
X53917713Y-63316295D01*
X53917713Y-63697247D02*
X53460570Y-63697247D01*
X53460570Y-64116295D02*
X53460570Y-63316295D01*
X53079618Y-63697247D02*
X52812952Y-63697247D01*
X52698666Y-64116295D02*
X53079618Y-64116295D01*
X53079618Y-64116295D02*
X53079618Y-63316295D01*
X53079618Y-63316295D02*
X52698666Y-63316295D01*
X52355808Y-63811533D02*
X51746285Y-63811533D01*
X52051046Y-64116295D02*
X52051046Y-63506771D01*
D11*
X57880571Y-37438942D02*
X57594857Y-37438942D01*
X57937714Y-37610371D02*
X57737714Y-37010371D01*
X57737714Y-37010371D02*
X57537714Y-37610371D01*
X57023428Y-37610371D02*
X57366285Y-37610371D01*
X57194856Y-37610371D02*
X57194856Y-37010371D01*
X57194856Y-37010371D02*
X57251999Y-37096085D01*
X57251999Y-37096085D02*
X57309142Y-37153228D01*
X57309142Y-37153228D02*
X57366285Y-37181800D01*
D12*
X72053332Y-59544295D02*
X72053332Y-58744295D01*
X72053332Y-59125247D02*
X71596189Y-59125247D01*
X71596189Y-59544295D02*
X71596189Y-58744295D01*
X71215237Y-59125247D02*
X70948571Y-59125247D01*
X70834285Y-59544295D02*
X71215237Y-59544295D01*
X71215237Y-59544295D02*
X71215237Y-58744295D01*
X71215237Y-58744295D02*
X70834285Y-58744295D01*
X70224761Y-59125247D02*
X70491427Y-59125247D01*
X70491427Y-59544295D02*
X70491427Y-58744295D01*
X70491427Y-58744295D02*
X70110475Y-58744295D01*
D11*
X66456285Y-37010371D02*
X66741999Y-37010371D01*
X66741999Y-37010371D02*
X66770571Y-37296085D01*
X66770571Y-37296085D02*
X66741999Y-37267514D01*
X66741999Y-37267514D02*
X66684857Y-37238942D01*
X66684857Y-37238942D02*
X66541999Y-37238942D01*
X66541999Y-37238942D02*
X66484857Y-37267514D01*
X66484857Y-37267514D02*
X66456285Y-37296085D01*
X66456285Y-37296085D02*
X66427714Y-37353228D01*
X66427714Y-37353228D02*
X66427714Y-37496085D01*
X66427714Y-37496085D02*
X66456285Y-37553228D01*
X66456285Y-37553228D02*
X66484857Y-37581800D01*
X66484857Y-37581800D02*
X66541999Y-37610371D01*
X66541999Y-37610371D02*
X66684857Y-37610371D01*
X66684857Y-37610371D02*
X66741999Y-37581800D01*
X66741999Y-37581800D02*
X66770571Y-37553228D01*
X66256285Y-37010371D02*
X66056285Y-37610371D01*
X66056285Y-37610371D02*
X65856285Y-37010371D01*
D12*
X61690094Y-63316295D02*
X61423427Y-64116295D01*
X61423427Y-64116295D02*
X61156761Y-63316295D01*
X60928190Y-63887723D02*
X60547237Y-63887723D01*
X61004380Y-64116295D02*
X60737713Y-63316295D01*
X60737713Y-63316295D02*
X60471047Y-64116295D01*
X59823428Y-64116295D02*
X60204380Y-64116295D01*
X60204380Y-64116295D02*
X60204380Y-63316295D01*
X59671047Y-63316295D02*
X59213904Y-63316295D01*
X59442476Y-64116295D02*
X59442476Y-63316295D01*
D11*
X70314284Y-44214371D02*
X70314284Y-43614371D01*
X70314284Y-43900085D02*
X69971427Y-43900085D01*
X69971427Y-44214371D02*
X69971427Y-43614371D01*
X69685713Y-43900085D02*
X69485713Y-43900085D01*
X69399999Y-44214371D02*
X69685713Y-44214371D01*
X69685713Y-44214371D02*
X69685713Y-43614371D01*
X69685713Y-43614371D02*
X69399999Y-43614371D01*
X69142856Y-43985800D02*
X68685714Y-43985800D01*
X70314284Y-37610371D02*
X70314284Y-37010371D01*
X70314284Y-37296085D02*
X69971427Y-37296085D01*
X69971427Y-37610371D02*
X69971427Y-37010371D01*
X69685713Y-37296085D02*
X69485713Y-37296085D01*
X69399999Y-37610371D02*
X69685713Y-37610371D01*
X69685713Y-37610371D02*
X69685713Y-37010371D01*
X69685713Y-37010371D02*
X69399999Y-37010371D01*
X69142856Y-37381800D02*
X68685714Y-37381800D01*
X68914285Y-37610371D02*
X68914285Y-37153228D01*
X52427427Y-37610371D02*
X52427427Y-37010371D01*
X52427427Y-37296085D02*
X52084570Y-37296085D01*
X52084570Y-37610371D02*
X52084570Y-37010371D01*
X51798856Y-37296085D02*
X51598856Y-37296085D01*
X51513142Y-37610371D02*
X51798856Y-37610371D01*
X51798856Y-37610371D02*
X51798856Y-37010371D01*
X51798856Y-37010371D02*
X51513142Y-37010371D01*
X51055999Y-37296085D02*
X51255999Y-37296085D01*
X51255999Y-37610371D02*
X51255999Y-37010371D01*
X51255999Y-37010371D02*
X50970285Y-37010371D01*
X50741713Y-37381800D02*
X50284571Y-37381800D01*
X57852856Y-43900085D02*
X57767142Y-43928657D01*
X57767142Y-43928657D02*
X57738571Y-43957228D01*
X57738571Y-43957228D02*
X57709999Y-44014371D01*
X57709999Y-44014371D02*
X57709999Y-44100085D01*
X57709999Y-44100085D02*
X57738571Y-44157228D01*
X57738571Y-44157228D02*
X57767142Y-44185800D01*
X57767142Y-44185800D02*
X57824285Y-44214371D01*
X57824285Y-44214371D02*
X58052856Y-44214371D01*
X58052856Y-44214371D02*
X58052856Y-43614371D01*
X58052856Y-43614371D02*
X57852856Y-43614371D01*
X57852856Y-43614371D02*
X57795714Y-43642942D01*
X57795714Y-43642942D02*
X57767142Y-43671514D01*
X57767142Y-43671514D02*
X57738571Y-43728657D01*
X57738571Y-43728657D02*
X57738571Y-43785800D01*
X57738571Y-43785800D02*
X57767142Y-43842942D01*
X57767142Y-43842942D02*
X57795714Y-43871514D01*
X57795714Y-43871514D02*
X57852856Y-43900085D01*
X57852856Y-43900085D02*
X58052856Y-43900085D01*
X57138571Y-44214371D02*
X57481428Y-44214371D01*
X57309999Y-44214371D02*
X57309999Y-43614371D01*
X57309999Y-43614371D02*
X57367142Y-43700085D01*
X57367142Y-43700085D02*
X57424285Y-43757228D01*
X57424285Y-43757228D02*
X57481428Y-43785800D01*
X60928571Y-37438942D02*
X60642857Y-37438942D01*
X60985714Y-37610371D02*
X60785714Y-37010371D01*
X60785714Y-37010371D02*
X60585714Y-37610371D01*
X60414285Y-37067514D02*
X60385713Y-37038942D01*
X60385713Y-37038942D02*
X60328571Y-37010371D01*
X60328571Y-37010371D02*
X60185713Y-37010371D01*
X60185713Y-37010371D02*
X60128571Y-37038942D01*
X60128571Y-37038942D02*
X60099999Y-37067514D01*
X60099999Y-37067514D02*
X60071428Y-37124657D01*
X60071428Y-37124657D02*
X60071428Y-37181800D01*
X60071428Y-37181800D02*
X60099999Y-37267514D01*
X60099999Y-37267514D02*
X60442856Y-37610371D01*
X60442856Y-37610371D02*
X60071428Y-37610371D01*
X46446571Y-44042942D02*
X46160857Y-44042942D01*
X46503714Y-44214371D02*
X46303714Y-43614371D01*
X46303714Y-43614371D02*
X46103714Y-44214371D01*
X45903713Y-43614371D02*
X45903713Y-44100085D01*
X45903713Y-44100085D02*
X45875142Y-44157228D01*
X45875142Y-44157228D02*
X45846571Y-44185800D01*
X45846571Y-44185800D02*
X45789428Y-44214371D01*
X45789428Y-44214371D02*
X45675142Y-44214371D01*
X45675142Y-44214371D02*
X45617999Y-44185800D01*
X45617999Y-44185800D02*
X45589428Y-44157228D01*
X45589428Y-44157228D02*
X45560856Y-44100085D01*
X45560856Y-44100085D02*
X45560856Y-43614371D01*
X45332285Y-43614371D02*
X44932285Y-44214371D01*
X44932285Y-43614371D02*
X45332285Y-44214371D01*
X44732285Y-43671514D02*
X44703713Y-43642942D01*
X44703713Y-43642942D02*
X44646571Y-43614371D01*
X44646571Y-43614371D02*
X44503713Y-43614371D01*
X44503713Y-43614371D02*
X44446571Y-43642942D01*
X44446571Y-43642942D02*
X44417999Y-43671514D01*
X44417999Y-43671514D02*
X44389428Y-43728657D01*
X44389428Y-43728657D02*
X44389428Y-43785800D01*
X44389428Y-43785800D02*
X44417999Y-43871514D01*
X44417999Y-43871514D02*
X44760856Y-44214371D01*
X44760856Y-44214371D02*
X44389428Y-44214371D01*
X67528571Y-44042942D02*
X67242857Y-44042942D01*
X67585714Y-44214371D02*
X67385714Y-43614371D01*
X67385714Y-43614371D02*
X67185714Y-44214371D01*
X66985713Y-43614371D02*
X66985713Y-44100085D01*
X66985713Y-44100085D02*
X66957142Y-44157228D01*
X66957142Y-44157228D02*
X66928571Y-44185800D01*
X66928571Y-44185800D02*
X66871428Y-44214371D01*
X66871428Y-44214371D02*
X66757142Y-44214371D01*
X66757142Y-44214371D02*
X66699999Y-44185800D01*
X66699999Y-44185800D02*
X66671428Y-44157228D01*
X66671428Y-44157228D02*
X66642856Y-44100085D01*
X66642856Y-44100085D02*
X66642856Y-43614371D01*
X66414285Y-43614371D02*
X66014285Y-44214371D01*
X66014285Y-43614371D02*
X66414285Y-44214371D01*
X65471428Y-44214371D02*
X65814285Y-44214371D01*
X65642856Y-44214371D02*
X65642856Y-43614371D01*
X65642856Y-43614371D02*
X65699999Y-43700085D01*
X65699999Y-43700085D02*
X65757142Y-43757228D01*
X65757142Y-43757228D02*
X65814285Y-43785800D01*
D12*
X72072380Y-62084295D02*
X72072380Y-61284295D01*
X72072380Y-61284295D02*
X71767618Y-61284295D01*
X71767618Y-61284295D02*
X71691428Y-61322390D01*
X71691428Y-61322390D02*
X71653333Y-61360485D01*
X71653333Y-61360485D02*
X71615237Y-61436676D01*
X71615237Y-61436676D02*
X71615237Y-61550961D01*
X71615237Y-61550961D02*
X71653333Y-61627152D01*
X71653333Y-61627152D02*
X71691428Y-61665247D01*
X71691428Y-61665247D02*
X71767618Y-61703342D01*
X71767618Y-61703342D02*
X72072380Y-61703342D01*
X70815237Y-62008104D02*
X70853333Y-62046200D01*
X70853333Y-62046200D02*
X70967618Y-62084295D01*
X70967618Y-62084295D02*
X71043809Y-62084295D01*
X71043809Y-62084295D02*
X71158095Y-62046200D01*
X71158095Y-62046200D02*
X71234285Y-61970009D01*
X71234285Y-61970009D02*
X71272380Y-61893819D01*
X71272380Y-61893819D02*
X71310476Y-61741438D01*
X71310476Y-61741438D02*
X71310476Y-61627152D01*
X71310476Y-61627152D02*
X71272380Y-61474771D01*
X71272380Y-61474771D02*
X71234285Y-61398580D01*
X71234285Y-61398580D02*
X71158095Y-61322390D01*
X71158095Y-61322390D02*
X71043809Y-61284295D01*
X71043809Y-61284295D02*
X70967618Y-61284295D01*
X70967618Y-61284295D02*
X70853333Y-61322390D01*
X70853333Y-61322390D02*
X70815237Y-61360485D01*
X70205714Y-61665247D02*
X70472380Y-61665247D01*
X70472380Y-62084295D02*
X70472380Y-61284295D01*
X70472380Y-61284295D02*
X70091428Y-61284295D01*
D13*
%TO.C,G\u002A\u002A\u002A*%
G36*
X70315030Y-63189990D02*
G01*
X70358699Y-63190495D01*
X70389696Y-63192757D01*
X70414005Y-63198024D01*
X70437612Y-63207542D01*
X70466503Y-63222559D01*
X70491625Y-63237378D01*
X70556331Y-63289388D01*
X70606346Y-63352053D01*
X70640775Y-63423117D01*
X70658723Y-63500320D01*
X70659294Y-63581406D01*
X70641593Y-63664116D01*
X70619745Y-63730758D01*
X70644880Y-63793543D01*
X70667959Y-63857401D01*
X70697803Y-63960424D01*
X70723932Y-64074972D01*
X70745592Y-64196643D01*
X70762029Y-64321033D01*
X70772488Y-64443741D01*
X70776216Y-64560364D01*
X70776298Y-64643447D01*
X70845946Y-64649776D01*
X70888422Y-64654149D01*
X71026415Y-64676687D01*
X71152957Y-64711737D01*
X71271513Y-64760658D01*
X71385546Y-64824808D01*
X71498522Y-64905543D01*
X71581067Y-64979125D01*
X71662928Y-65069652D01*
X71735599Y-65168423D01*
X71794520Y-65269830D01*
X71802357Y-65285392D01*
X71812939Y-65306082D01*
X71817761Y-65315022D01*
X71818578Y-65314997D01*
X71832014Y-65311199D01*
X71859308Y-65302401D01*
X71897109Y-65289705D01*
X71942065Y-65274210D01*
X72006986Y-65252311D01*
X72150997Y-65209768D01*
X72287121Y-65178812D01*
X72419815Y-65158526D01*
X72553529Y-65147990D01*
X72683219Y-65142287D01*
X72729166Y-65099706D01*
X72758228Y-65074427D01*
X72800745Y-65045558D01*
X72845118Y-65027436D01*
X72896942Y-65018032D01*
X72961812Y-65015316D01*
X72997671Y-65015569D01*
X73033698Y-65017357D01*
X73061183Y-65021829D01*
X73086242Y-65030103D01*
X73114996Y-65043297D01*
X73176521Y-65081382D01*
X73235110Y-65138249D01*
X73279642Y-65207984D01*
X73287206Y-65223896D01*
X73297961Y-65251032D01*
X73304126Y-65277795D01*
X73306933Y-65310707D01*
X73307612Y-65356289D01*
X73307565Y-65371590D01*
X73306275Y-65413794D01*
X73302362Y-65445256D01*
X73294683Y-65472505D01*
X73282094Y-65502072D01*
X73277617Y-65511321D01*
X73232561Y-65581380D01*
X73174978Y-65637181D01*
X73105975Y-65677855D01*
X73026657Y-65702533D01*
X73021254Y-65703535D01*
X72946549Y-65707570D01*
X72872371Y-65694833D01*
X72802089Y-65667034D01*
X72739069Y-65625883D01*
X72686680Y-65573091D01*
X72648290Y-65510367D01*
X72625579Y-65460009D01*
X72545773Y-65466335D01*
X72493671Y-65471441D01*
X72356975Y-65492820D01*
X72213611Y-65525598D01*
X72068766Y-65568484D01*
X71927626Y-65620188D01*
X71923801Y-65622379D01*
X71918601Y-65629963D01*
X71915177Y-65644817D01*
X71913208Y-65669925D01*
X71912376Y-65708272D01*
X71912362Y-65762841D01*
X71912378Y-65770330D01*
X71904643Y-65915827D01*
X71881246Y-66051664D01*
X71841707Y-66179888D01*
X71785544Y-66302545D01*
X71768791Y-66333695D01*
X71733650Y-66398343D01*
X71703099Y-66453568D01*
X71678210Y-66497466D01*
X71660056Y-66528135D01*
X71649710Y-66543668D01*
X71635801Y-66552519D01*
X71612124Y-66557121D01*
X71607455Y-66556918D01*
X71595911Y-66554216D01*
X71582908Y-66547144D01*
X71566968Y-66534160D01*
X71546616Y-66513722D01*
X71520376Y-66484285D01*
X71486771Y-66444309D01*
X71444327Y-66392248D01*
X71391567Y-66326562D01*
X71373410Y-66303991D01*
X71280627Y-66193173D01*
X71191980Y-66095853D01*
X71104029Y-66008775D01*
X71013329Y-65928684D01*
X70916441Y-65852324D01*
X70809921Y-65776441D01*
X70808970Y-65775792D01*
X70704339Y-65706004D01*
X70608550Y-65645884D01*
X70517651Y-65593503D01*
X70427688Y-65546929D01*
X70334711Y-65504235D01*
X70234765Y-65463489D01*
X70123898Y-65422763D01*
X69998159Y-65380127D01*
X69977754Y-65373367D01*
X69920178Y-65353756D01*
X69869104Y-65335588D01*
X69827484Y-65319960D01*
X69798269Y-65307969D01*
X69784411Y-65300710D01*
X69779541Y-65296060D01*
X69768951Y-65275784D01*
X69773654Y-65251169D01*
X69794017Y-65219087D01*
X69824421Y-65179893D01*
X69896665Y-65090432D01*
X69962285Y-65015127D01*
X70023126Y-64952023D01*
X70081032Y-64899164D01*
X70137846Y-64854597D01*
X70139819Y-64853181D01*
X70186646Y-64822705D01*
X70242952Y-64790548D01*
X70302470Y-64759941D01*
X70358935Y-64734113D01*
X70406083Y-64716296D01*
X70462101Y-64698638D01*
X70455936Y-64549533D01*
X70454491Y-64517118D01*
X70446553Y-64393008D01*
X70435020Y-64282636D01*
X70419258Y-64181757D01*
X70398631Y-64086123D01*
X70372506Y-63991489D01*
X70344525Y-63899571D01*
X70277674Y-63889224D01*
X70277443Y-63889188D01*
X70193436Y-63868208D01*
X70120835Y-63833509D01*
X70061441Y-63785952D01*
X70021800Y-63738039D01*
X69983951Y-63669334D01*
X69962273Y-63596787D01*
X69956372Y-63522910D01*
X69965856Y-63450217D01*
X69990331Y-63381223D01*
X70029403Y-63318440D01*
X70082680Y-63264382D01*
X70149767Y-63221563D01*
X70179334Y-63207626D01*
X70205259Y-63198052D01*
X70231512Y-63192746D01*
X70264386Y-63190471D01*
X70310173Y-63189988D01*
X70315030Y-63189990D01*
G37*
G36*
X71577081Y-67209489D02*
G01*
X71638654Y-67409240D01*
X71682044Y-67611283D01*
X71707419Y-67814584D01*
X71714945Y-68018109D01*
X71704789Y-68220824D01*
X71677119Y-68421696D01*
X71632101Y-68619691D01*
X71569902Y-68813775D01*
X71490689Y-69002914D01*
X71464386Y-69053068D01*
X71394630Y-69186075D01*
X71281890Y-69362224D01*
X71152637Y-69530327D01*
X71007038Y-69689350D01*
X70928155Y-69764888D01*
X70768027Y-69898509D01*
X70598191Y-70015679D01*
X70419221Y-70116126D01*
X70231693Y-70199577D01*
X70036179Y-70265759D01*
X69833257Y-70314401D01*
X69623499Y-70345230D01*
X69605642Y-70346692D01*
X69557274Y-70348832D01*
X69496331Y-70349918D01*
X69427237Y-70350012D01*
X69354417Y-70349180D01*
X69282293Y-70347484D01*
X69215291Y-70344990D01*
X69157834Y-70341761D01*
X69114346Y-70337860D01*
X69039094Y-70327492D01*
X68899364Y-70302125D01*
X68758560Y-70269374D01*
X68623392Y-70230875D01*
X68500568Y-70188263D01*
X68489253Y-70183856D01*
X68450858Y-70167010D01*
X68427327Y-70150370D01*
X68415835Y-70129463D01*
X68413559Y-70099814D01*
X68417673Y-70056948D01*
X68418821Y-70048738D01*
X68427616Y-70003409D01*
X68442505Y-69941723D01*
X68463074Y-69865042D01*
X68488910Y-69774728D01*
X68519600Y-69672143D01*
X68554730Y-69558649D01*
X68593888Y-69435608D01*
X68636660Y-69304382D01*
X68682633Y-69166334D01*
X68715225Y-69070412D01*
X69405497Y-69070412D01*
X69411422Y-69175410D01*
X69435458Y-69280609D01*
X69457373Y-69341252D01*
X69489265Y-69406113D01*
X69530296Y-69466286D01*
X69584476Y-69528439D01*
X69589990Y-69534185D01*
X69667670Y-69603042D01*
X69752341Y-69655533D01*
X69847921Y-69694121D01*
X69859911Y-69697795D01*
X69965089Y-69719436D01*
X70069896Y-69723081D01*
X70172507Y-69709759D01*
X70271097Y-69680498D01*
X70363840Y-69636325D01*
X70448911Y-69578269D01*
X70524485Y-69507358D01*
X70588736Y-69424619D01*
X70639839Y-69331081D01*
X70675969Y-69227772D01*
X70682826Y-69195366D01*
X70690537Y-69126964D01*
X70692088Y-69053068D01*
X70687462Y-68981569D01*
X70676641Y-68920359D01*
X70665934Y-68883695D01*
X70623521Y-68782755D01*
X70565548Y-68691459D01*
X70493587Y-68611378D01*
X70409211Y-68544081D01*
X70313993Y-68491138D01*
X70209505Y-68454118D01*
X70174248Y-68446797D01*
X70106944Y-68439642D01*
X70033911Y-68438345D01*
X69962929Y-68442923D01*
X69901780Y-68453395D01*
X69886154Y-68457508D01*
X69784373Y-68494944D01*
X69692440Y-68547237D01*
X69611388Y-68612556D01*
X69542251Y-68689069D01*
X69486060Y-68774943D01*
X69443849Y-68868346D01*
X69416650Y-68967447D01*
X69405497Y-69070412D01*
X68715225Y-69070412D01*
X68731394Y-69022824D01*
X68732529Y-69019515D01*
X68754833Y-68954136D01*
X68774893Y-68894687D01*
X68791902Y-68843614D01*
X68805051Y-68803363D01*
X68813533Y-68776377D01*
X68816540Y-68765103D01*
X68816296Y-68764079D01*
X68809604Y-68764625D01*
X68793207Y-68773513D01*
X68766361Y-68791282D01*
X68728323Y-68818473D01*
X68678352Y-68855626D01*
X68615705Y-68903283D01*
X68539638Y-68961983D01*
X68449409Y-69032266D01*
X68384192Y-69083181D01*
X68267894Y-69173570D01*
X68165015Y-69252864D01*
X68074565Y-69321737D01*
X67995557Y-69380859D01*
X67926999Y-69430904D01*
X67867905Y-69472543D01*
X67817285Y-69506449D01*
X67774150Y-69533295D01*
X67737511Y-69553752D01*
X67706379Y-69568492D01*
X67679765Y-69578189D01*
X67656681Y-69583514D01*
X67636138Y-69585140D01*
X67623795Y-69584450D01*
X67610916Y-69580980D01*
X67597220Y-69572920D01*
X67580928Y-69558469D01*
X67560264Y-69535823D01*
X67533450Y-69503180D01*
X67498708Y-69458737D01*
X67454262Y-69400692D01*
X67346935Y-69248813D01*
X67239172Y-69067420D01*
X67148858Y-68880157D01*
X67076410Y-68688012D01*
X67022246Y-68491975D01*
X66986781Y-68293033D01*
X66980559Y-68230960D01*
X66975951Y-68154584D01*
X66973211Y-68070773D01*
X66972388Y-67984834D01*
X66973532Y-67902073D01*
X66976691Y-67827795D01*
X66981915Y-67767308D01*
X67014976Y-67568930D01*
X67067006Y-67367864D01*
X67122616Y-67210374D01*
X67769414Y-67210374D01*
X67773118Y-67279996D01*
X67793609Y-67386397D01*
X67830924Y-67486434D01*
X67883801Y-67578392D01*
X67950981Y-67660557D01*
X68031203Y-67731213D01*
X68123207Y-67788646D01*
X68225731Y-67831142D01*
X68258987Y-67840449D01*
X68333249Y-67854018D01*
X68411660Y-67860438D01*
X68487077Y-67859293D01*
X68552357Y-67850167D01*
X68624249Y-67829511D01*
X68725137Y-67785087D01*
X68816468Y-67725899D01*
X68896552Y-67653557D01*
X68963702Y-67569668D01*
X69016229Y-67475842D01*
X69052444Y-67373687D01*
X69059329Y-67340773D01*
X69066757Y-67273005D01*
X69068243Y-67199069D01*
X69063767Y-67126681D01*
X69054017Y-67067843D01*
X69836074Y-67067843D01*
X69849211Y-67176751D01*
X69853114Y-67192769D01*
X69855117Y-67199069D01*
X69867165Y-67236972D01*
X69886187Y-67286409D01*
X69907211Y-67333078D01*
X69947303Y-67402870D01*
X70014465Y-67487237D01*
X70095222Y-67558572D01*
X70188554Y-67616016D01*
X70293446Y-67658713D01*
X70326778Y-67667761D01*
X70392566Y-67679576D01*
X70462724Y-67686177D01*
X70529824Y-67686988D01*
X70586438Y-67681433D01*
X70594182Y-67679983D01*
X70689423Y-67655147D01*
X70774433Y-67618176D01*
X70853536Y-67566775D01*
X70931058Y-67498651D01*
X70940770Y-67488993D01*
X70979283Y-67448580D01*
X71008039Y-67413306D01*
X71031330Y-67377443D01*
X71053448Y-67335261D01*
X71061414Y-67318586D01*
X71090926Y-67248385D01*
X71109856Y-67183776D01*
X71119924Y-67117490D01*
X71122854Y-67042258D01*
X71122756Y-67027927D01*
X71118501Y-66953976D01*
X71106691Y-66887792D01*
X71085580Y-66822008D01*
X71053423Y-66749255D01*
X71037522Y-66719211D01*
X70981175Y-66638320D01*
X70910317Y-66565121D01*
X70828060Y-66502131D01*
X70737518Y-66451864D01*
X70641805Y-66416833D01*
X70606386Y-66408913D01*
X70528532Y-66400254D01*
X70445054Y-66400328D01*
X70363435Y-66408941D01*
X70291162Y-66425899D01*
X70228016Y-66449589D01*
X70130449Y-66501286D01*
X70045279Y-66566987D01*
X69973620Y-66645920D01*
X69966971Y-66654848D01*
X69907557Y-66751173D01*
X69865660Y-66853289D01*
X69841695Y-66959434D01*
X69836074Y-67067843D01*
X69054017Y-67067843D01*
X69053307Y-67063557D01*
X69030539Y-66988100D01*
X68994300Y-66910112D01*
X68944660Y-66836662D01*
X68878983Y-66763211D01*
X68862087Y-66746401D01*
X68822155Y-66708954D01*
X68787198Y-66680798D01*
X68751880Y-66657905D01*
X68710867Y-66636247D01*
X68670069Y-66617405D01*
X68588418Y-66588224D01*
X68506626Y-66571984D01*
X68416999Y-66566870D01*
X68347276Y-66570410D01*
X68241631Y-66590278D01*
X68142925Y-66626355D01*
X68052624Y-66677183D01*
X67972195Y-66741307D01*
X67903102Y-66817269D01*
X67846812Y-66903613D01*
X67804791Y-66998883D01*
X67778503Y-67101622D01*
X67769414Y-67210374D01*
X67122616Y-67210374D01*
X67136477Y-67171120D01*
X67222507Y-66980280D01*
X67324219Y-66796926D01*
X67440732Y-66622639D01*
X67571167Y-66458999D01*
X67714644Y-66307590D01*
X67870284Y-66169991D01*
X67907086Y-66140894D01*
X68081198Y-66017850D01*
X68263728Y-65911977D01*
X68454100Y-65823487D01*
X68651736Y-65752594D01*
X68856059Y-65699512D01*
X69066494Y-65664454D01*
X69282463Y-65647633D01*
X69479250Y-65648955D01*
X69686349Y-65668195D01*
X69889142Y-65705259D01*
X70086599Y-65759544D01*
X70277691Y-65830445D01*
X70461389Y-65917355D01*
X70636663Y-66019672D01*
X70802482Y-66136789D01*
X70957818Y-66268102D01*
X71101641Y-66413006D01*
X71232921Y-66570896D01*
X71350629Y-66741167D01*
X71453734Y-66923215D01*
X71497160Y-67013063D01*
X71509039Y-67042258D01*
X71577081Y-67209489D01*
G37*
D14*
%TO.C,JP4*%
X66672000Y-60722000D02*
X66672000Y-62722000D01*
X66672000Y-62722000D02*
X69472000Y-62722000D01*
X69472000Y-60722000D02*
X66672000Y-60722000D01*
X69472000Y-62722000D02*
X69472000Y-60722000D01*
%TO.C,MOTOR1*%
X33378649Y-55542643D02*
X39275149Y-54608730D01*
X34248183Y-56174396D02*
X35116394Y-61656067D01*
X35352852Y-68007270D02*
X33378649Y-55542643D01*
X35984605Y-67137737D02*
X35116394Y-61656067D01*
X37044537Y-54972148D02*
X37161863Y-55712915D01*
X37161863Y-55712915D02*
X34248183Y-56174396D01*
X38526070Y-54737497D02*
X39266836Y-54620171D01*
X38807652Y-56515336D02*
X38526070Y-54737497D01*
X38898286Y-66676255D02*
X35984605Y-67137737D01*
X39015612Y-67417021D02*
X38898286Y-66676255D01*
X39042304Y-57996868D02*
X39783070Y-57879542D01*
X39266836Y-54620171D02*
X39548418Y-56398010D01*
X39275149Y-54608730D02*
X41249353Y-67073356D01*
X39548418Y-56398010D02*
X38807652Y-56515336D01*
X39783070Y-57879542D02*
X40721677Y-63805672D01*
X39980910Y-63922998D02*
X39042304Y-57996868D01*
X40215562Y-65404531D02*
X40956328Y-65287205D01*
X40497144Y-67182370D02*
X40215562Y-65404531D01*
X40721677Y-63805672D02*
X39980910Y-63922998D01*
X40956328Y-65287205D02*
X41237910Y-67065044D01*
X41237910Y-67065044D02*
X40497144Y-67182370D01*
X41249353Y-67073356D02*
X35352852Y-68007270D01*
X41385604Y-66079810D02*
X41581147Y-67314420D01*
X41581147Y-67314420D02*
X40346537Y-67509963D01*
%TO.C,JP1*%
X66672000Y-58182000D02*
X66672000Y-60182000D01*
X66672000Y-60182000D02*
X69472000Y-60182000D01*
X69472000Y-58182000D02*
X66672000Y-58182000D01*
X69472000Y-60182000D02*
X69472000Y-58182000D01*
%TO.C,JP3*%
X51432000Y-58182000D02*
X51432000Y-60182000D01*
X51432000Y-60182000D02*
X54232000Y-60182000D01*
X54232000Y-58182000D02*
X51432000Y-58182000D01*
X54232000Y-60182000D02*
X54232000Y-58182000D01*
%TO.C,JP5*%
X59052000Y-60722000D02*
X59052000Y-62722000D01*
X59052000Y-62722000D02*
X61852000Y-62722000D01*
X61852000Y-60722000D02*
X59052000Y-60722000D01*
X61852000Y-62722000D02*
X61852000Y-60722000D01*
%TO.C,JP6*%
X51432000Y-60722000D02*
X51432000Y-62722000D01*
X51432000Y-62722000D02*
X54232000Y-62722000D01*
X54232000Y-60722000D02*
X51432000Y-60722000D01*
X54232000Y-62722000D02*
X54232000Y-60722000D01*
%TO.C,JP2*%
X59052000Y-58182000D02*
X59052000Y-60182000D01*
X59052000Y-60182000D02*
X61852000Y-60182000D01*
X61852000Y-58182000D02*
X59052000Y-58182000D01*
X61852000Y-60182000D02*
X61852000Y-58182000D01*
%TD*%
M02*
