%TF.GenerationSoftware,KiCad,Pcbnew,8.0.8*%
%TF.CreationDate,2025-01-29T22:29:46+01:00*%
%TF.ProjectId,xol-pcb,786f6c2d-7063-4622-9e6b-696361645f70,rev?*%
%TF.SameCoordinates,Original*%
%TF.FileFunction,Soldermask,Bot*%
%TF.FilePolarity,Negative*%
%FSLAX46Y46*%
G04 Gerber Fmt 4.6, Leading zero omitted, Abs format (unit mm)*
G04 Created by KiCad (PCBNEW 8.0.8) date 2025-01-29 22:29:46*
%MOMM*%
%LPD*%
G01*
G04 APERTURE LIST*
G04 Aperture macros list*
%AMRoundRect*
0 Rectangle with rounded corners*
0 $1 Rounding radius*
0 $2 $3 $4 $5 $6 $7 $8 $9 X,Y pos of 4 corners*
0 Add a 4 corners polygon primitive as box body*
4,1,4,$2,$3,$4,$5,$6,$7,$8,$9,$2,$3,0*
0 Add four circle primitives for the rounded corners*
1,1,$1+$1,$2,$3*
1,1,$1+$1,$4,$5*
1,1,$1+$1,$6,$7*
1,1,$1+$1,$8,$9*
0 Add four rect primitives between the rounded corners*
20,1,$1+$1,$2,$3,$4,$5,0*
20,1,$1+$1,$4,$5,$6,$7,0*
20,1,$1+$1,$6,$7,$8,$9,0*
20,1,$1+$1,$8,$9,$2,$3,0*%
%AMHorizOval*
0 Thick line with rounded ends*
0 $1 width*
0 $2 $3 position (X,Y) of the first rounded end (center of the circle)*
0 $4 $5 position (X,Y) of the second rounded end (center of the circle)*
0 Add line between two ends*
20,1,$1,$2,$3,$4,$5,0*
0 Add two circle primitives to create the rounded ends*
1,1,$1,$2,$3*
1,1,$1,$4,$5*%
%AMFreePoly0*
4,1,6,1.000000,0.000000,0.500000,-0.750000,-0.500000,-0.750000,-0.500000,0.750000,0.500000,0.750000,1.000000,0.000000,1.000000,0.000000,$1*%
%AMFreePoly1*
4,1,6,0.500000,-0.750000,-0.650000,-0.750000,-0.150000,0.000000,-0.650000,0.750000,0.500000,0.750000,0.500000,-0.750000,0.500000,-0.750000,$1*%
G04 Aperture macros list end*
%ADD10C,3.000000*%
%ADD11RoundRect,0.250001X0.499999X0.759999X-0.499999X0.759999X-0.499999X-0.759999X0.499999X-0.759999X0*%
%ADD12O,1.500000X2.020000*%
%ADD13RoundRect,0.250000X0.750000X-0.600000X0.750000X0.600000X-0.750000X0.600000X-0.750000X-0.600000X0*%
%ADD14O,2.000000X1.700000*%
%ADD15C,1.600000*%
%ADD16O,1.600000X1.600000*%
%ADD17C,6.400000*%
%ADD18RoundRect,0.250000X0.725000X-0.600000X0.725000X0.600000X-0.725000X0.600000X-0.725000X-0.600000X0*%
%ADD19O,1.950000X1.700000*%
%ADD20RoundRect,0.250001X-0.499999X-0.499999X0.499999X-0.499999X0.499999X0.499999X-0.499999X0.499999X0*%
%ADD21C,1.500000*%
%ADD22R,1.600000X1.600000*%
%ADD23FreePoly0,180.000000*%
%ADD24FreePoly1,180.000000*%
%ADD25RoundRect,0.250000X0.809935X-0.479198X0.622213X0.706028X-0.809935X0.479198X-0.622213X-0.706028X0*%
%ADD26HorizOval,1.700000X0.123461X0.019554X-0.123461X-0.019554X0*%
G04 APERTURE END LIST*
D10*
%TO.C,HE1*%
X74446000Y-61056000D03*
D11*
X75946000Y-56736000D03*
D12*
X72946000Y-56736000D03*
%TD*%
D13*
%TO.C,PCF1*%
X43180000Y-50292000D03*
D14*
X43180000Y-47792000D03*
%TD*%
D15*
%TO.C,R1*%
X48330000Y-52690000D03*
D16*
X48330000Y-45070000D03*
%TD*%
D10*
%TO.C,TH1*%
X47500000Y-61056000D03*
D11*
X49000000Y-56736000D03*
D12*
X46000000Y-56736000D03*
%TD*%
D17*
%TO.C,H1*%
X79559001Y-49376179D03*
%TD*%
%TO.C,H2*%
X35709001Y-49376179D03*
%TD*%
D18*
%TO.C,AUX1*%
X64245000Y-63206000D03*
D19*
X64245000Y-60706000D03*
X64245000Y-58206000D03*
%TD*%
D18*
%TO.C,RGB1*%
X52595000Y-51950000D03*
D19*
X52595000Y-49450000D03*
X52595000Y-46950000D03*
%TD*%
D13*
%TO.C,PCF2*%
X70866000Y-50292000D03*
D14*
X70866000Y-47792000D03*
%TD*%
D10*
%TO.C,J1*%
X47660000Y-34841000D03*
X67360000Y-34841000D03*
D20*
X45500000Y-39161000D03*
D21*
X48500000Y-39161000D03*
X51500000Y-39161000D03*
X54500000Y-39161000D03*
X57500000Y-39161000D03*
X60500000Y-39161000D03*
X63500000Y-39161000D03*
X66500000Y-39161000D03*
X69500000Y-39161000D03*
X45500000Y-42161000D03*
X48500000Y-42161000D03*
X51500000Y-42161000D03*
X54500000Y-42161000D03*
X57500000Y-42161000D03*
X60500000Y-42161000D03*
X63500000Y-42161000D03*
X66500000Y-42161000D03*
X69500000Y-42161000D03*
%TD*%
D18*
%TO.C,HEF1*%
X60440000Y-52000000D03*
D19*
X60440000Y-49500000D03*
X60440000Y-47000000D03*
%TD*%
D22*
%TO.C,D1*%
X66470000Y-53290000D03*
D16*
X66470000Y-45670000D03*
%TD*%
D18*
%TO.C,AUX2-3*%
X56475000Y-63206000D03*
D19*
X56475000Y-60706000D03*
X56475000Y-58206000D03*
%TD*%
D23*
%TO.C,JP4*%
X68797000Y-61722000D03*
D24*
X67347000Y-61722000D03*
%TD*%
D25*
%TO.C,MOTOR1*%
X38419166Y-64929703D03*
D26*
X38028080Y-62460482D03*
X37636994Y-59991261D03*
X37245908Y-57522040D03*
%TD*%
D23*
%TO.C,JP1*%
X68797000Y-59182000D03*
D24*
X67347000Y-59182000D03*
%TD*%
D23*
%TO.C,JP3*%
X53557000Y-59182000D03*
D24*
X52107000Y-59182000D03*
%TD*%
D23*
%TO.C,JP5*%
X61177000Y-61722000D03*
D24*
X59727000Y-61722000D03*
%TD*%
D23*
%TO.C,JP6*%
X53557000Y-61722000D03*
D24*
X52107000Y-61722000D03*
%TD*%
D23*
%TO.C,JP2*%
X61177000Y-59182000D03*
D24*
X59727000Y-59182000D03*
%TD*%
M02*
