%TF.GenerationSoftware,KiCad,Pcbnew,8.0.8*%
%TF.CreationDate,2025-01-29T22:29:45+01:00*%
%TF.ProjectId,xol-pcb,786f6c2d-7063-4622-9e6b-696361645f70,rev?*%
%TF.SameCoordinates,Original*%
%TF.FileFunction,Legend,Top*%
%TF.FilePolarity,Positive*%
%FSLAX46Y46*%
G04 Gerber Fmt 4.6, Leading zero omitted, Abs format (unit mm)*
G04 Created by KiCad (PCBNEW 8.0.8) date 2025-01-29 22:29:45*
%MOMM*%
%LPD*%
G01*
G04 APERTURE LIST*
%ADD10C,0.100000*%
%ADD11C,0.250000*%
%ADD12C,0.150000*%
%ADD13C,0.120000*%
G04 APERTURE END LIST*
D10*
X60700942Y-63814286D02*
X60672371Y-63871429D01*
X60672371Y-63871429D02*
X60672371Y-63957143D01*
X60672371Y-63957143D02*
X60700942Y-64042857D01*
X60700942Y-64042857D02*
X60758085Y-64100000D01*
X60758085Y-64100000D02*
X60815228Y-64128571D01*
X60815228Y-64128571D02*
X60929514Y-64157143D01*
X60929514Y-64157143D02*
X61015228Y-64157143D01*
X61015228Y-64157143D02*
X61129514Y-64128571D01*
X61129514Y-64128571D02*
X61186657Y-64100000D01*
X61186657Y-64100000D02*
X61243800Y-64042857D01*
X61243800Y-64042857D02*
X61272371Y-63957143D01*
X61272371Y-63957143D02*
X61272371Y-63900000D01*
X61272371Y-63900000D02*
X61243800Y-63814286D01*
X61243800Y-63814286D02*
X61215228Y-63785714D01*
X61215228Y-63785714D02*
X61015228Y-63785714D01*
X61015228Y-63785714D02*
X61015228Y-63900000D01*
X61272371Y-63528571D02*
X60672371Y-63528571D01*
X60672371Y-63528571D02*
X61272371Y-63185714D01*
X61272371Y-63185714D02*
X60672371Y-63185714D01*
X61272371Y-62900000D02*
X60672371Y-62900000D01*
X60672371Y-62900000D02*
X60672371Y-62757143D01*
X60672371Y-62757143D02*
X60700942Y-62671429D01*
X60700942Y-62671429D02*
X60758085Y-62614286D01*
X60758085Y-62614286D02*
X60815228Y-62585715D01*
X60815228Y-62585715D02*
X60929514Y-62557143D01*
X60929514Y-62557143D02*
X61015228Y-62557143D01*
X61015228Y-62557143D02*
X61129514Y-62585715D01*
X61129514Y-62585715D02*
X61186657Y-62614286D01*
X61186657Y-62614286D02*
X61243800Y-62671429D01*
X61243800Y-62671429D02*
X61272371Y-62757143D01*
X61272371Y-62757143D02*
X61272371Y-62900000D01*
X61472371Y-62157143D02*
X60615228Y-62157143D01*
X61100942Y-61757143D02*
X61100942Y-61471429D01*
X61272371Y-61814286D02*
X60672371Y-61614286D01*
X60672371Y-61614286D02*
X61272371Y-61414286D01*
X60672371Y-61214285D02*
X61158085Y-61214285D01*
X61158085Y-61214285D02*
X61215228Y-61185714D01*
X61215228Y-61185714D02*
X61243800Y-61157143D01*
X61243800Y-61157143D02*
X61272371Y-61100000D01*
X61272371Y-61100000D02*
X61272371Y-60985714D01*
X61272371Y-60985714D02*
X61243800Y-60928571D01*
X61243800Y-60928571D02*
X61215228Y-60900000D01*
X61215228Y-60900000D02*
X61158085Y-60871428D01*
X61158085Y-60871428D02*
X60672371Y-60871428D01*
X60672371Y-60642857D02*
X61272371Y-60242857D01*
X60672371Y-60242857D02*
X61272371Y-60642857D01*
X60729514Y-60042857D02*
X60700942Y-60014285D01*
X60700942Y-60014285D02*
X60672371Y-59957143D01*
X60672371Y-59957143D02*
X60672371Y-59814285D01*
X60672371Y-59814285D02*
X60700942Y-59757143D01*
X60700942Y-59757143D02*
X60729514Y-59728571D01*
X60729514Y-59728571D02*
X60786657Y-59700000D01*
X60786657Y-59700000D02*
X60843800Y-59700000D01*
X60843800Y-59700000D02*
X60929514Y-59728571D01*
X60929514Y-59728571D02*
X61272371Y-60071428D01*
X61272371Y-60071428D02*
X61272371Y-59700000D01*
X61472371Y-59299999D02*
X60615228Y-59299999D01*
X61100942Y-58899999D02*
X61100942Y-58614285D01*
X61272371Y-58957142D02*
X60672371Y-58757142D01*
X60672371Y-58757142D02*
X61272371Y-58557142D01*
X60672371Y-58357141D02*
X61158085Y-58357141D01*
X61158085Y-58357141D02*
X61215228Y-58328570D01*
X61215228Y-58328570D02*
X61243800Y-58299999D01*
X61243800Y-58299999D02*
X61272371Y-58242856D01*
X61272371Y-58242856D02*
X61272371Y-58128570D01*
X61272371Y-58128570D02*
X61243800Y-58071427D01*
X61243800Y-58071427D02*
X61215228Y-58042856D01*
X61215228Y-58042856D02*
X61158085Y-58014284D01*
X61158085Y-58014284D02*
X60672371Y-58014284D01*
X60672371Y-57785713D02*
X61272371Y-57385713D01*
X60672371Y-57385713D02*
X61272371Y-57785713D01*
X60672371Y-57214284D02*
X60672371Y-56842856D01*
X60672371Y-56842856D02*
X60900942Y-57042856D01*
X60900942Y-57042856D02*
X60900942Y-56957141D01*
X60900942Y-56957141D02*
X60929514Y-56899999D01*
X60929514Y-56899999D02*
X60958085Y-56871427D01*
X60958085Y-56871427D02*
X61015228Y-56842856D01*
X61015228Y-56842856D02*
X61158085Y-56842856D01*
X61158085Y-56842856D02*
X61215228Y-56871427D01*
X61215228Y-56871427D02*
X61243800Y-56899999D01*
X61243800Y-56899999D02*
X61272371Y-56957141D01*
X61272371Y-56957141D02*
X61272371Y-57128570D01*
X61272371Y-57128570D02*
X61243800Y-57185713D01*
X61243800Y-57185713D02*
X61215228Y-57214284D01*
X42787142Y-54302371D02*
X43130000Y-54302371D01*
X42958571Y-54902371D02*
X42958571Y-54302371D01*
X43330000Y-54902371D02*
X43330000Y-54302371D01*
X43330000Y-54588085D02*
X43672857Y-54588085D01*
X43672857Y-54902371D02*
X43672857Y-54302371D01*
X43958571Y-54673800D02*
X44415714Y-54673800D01*
X45301428Y-55102371D02*
X45301428Y-54245228D01*
X46101428Y-54302371D02*
X46444286Y-54302371D01*
X46272857Y-54902371D02*
X46272857Y-54302371D01*
X46644286Y-54902371D02*
X46644286Y-54302371D01*
X46644286Y-54588085D02*
X46987143Y-54588085D01*
X46987143Y-54902371D02*
X46987143Y-54302371D01*
X56520942Y-53285715D02*
X56492371Y-53342858D01*
X56492371Y-53342858D02*
X56492371Y-53428572D01*
X56492371Y-53428572D02*
X56520942Y-53514286D01*
X56520942Y-53514286D02*
X56578085Y-53571429D01*
X56578085Y-53571429D02*
X56635228Y-53600000D01*
X56635228Y-53600000D02*
X56749514Y-53628572D01*
X56749514Y-53628572D02*
X56835228Y-53628572D01*
X56835228Y-53628572D02*
X56949514Y-53600000D01*
X56949514Y-53600000D02*
X57006657Y-53571429D01*
X57006657Y-53571429D02*
X57063800Y-53514286D01*
X57063800Y-53514286D02*
X57092371Y-53428572D01*
X57092371Y-53428572D02*
X57092371Y-53371429D01*
X57092371Y-53371429D02*
X57063800Y-53285715D01*
X57063800Y-53285715D02*
X57035228Y-53257143D01*
X57035228Y-53257143D02*
X56835228Y-53257143D01*
X56835228Y-53257143D02*
X56835228Y-53371429D01*
X57092371Y-53000000D02*
X56492371Y-53000000D01*
X56492371Y-53000000D02*
X57092371Y-52657143D01*
X57092371Y-52657143D02*
X56492371Y-52657143D01*
X57092371Y-52371429D02*
X56492371Y-52371429D01*
X56492371Y-52371429D02*
X56492371Y-52228572D01*
X56492371Y-52228572D02*
X56520942Y-52142858D01*
X56520942Y-52142858D02*
X56578085Y-52085715D01*
X56578085Y-52085715D02*
X56635228Y-52057144D01*
X56635228Y-52057144D02*
X56749514Y-52028572D01*
X56749514Y-52028572D02*
X56835228Y-52028572D01*
X56835228Y-52028572D02*
X56949514Y-52057144D01*
X56949514Y-52057144D02*
X57006657Y-52085715D01*
X57006657Y-52085715D02*
X57063800Y-52142858D01*
X57063800Y-52142858D02*
X57092371Y-52228572D01*
X57092371Y-52228572D02*
X57092371Y-52371429D01*
X57292371Y-51171429D02*
X56435228Y-51171429D01*
X57092371Y-49942857D02*
X56806657Y-50142857D01*
X57092371Y-50285714D02*
X56492371Y-50285714D01*
X56492371Y-50285714D02*
X56492371Y-50057143D01*
X56492371Y-50057143D02*
X56520942Y-50000000D01*
X56520942Y-50000000D02*
X56549514Y-49971429D01*
X56549514Y-49971429D02*
X56606657Y-49942857D01*
X56606657Y-49942857D02*
X56692371Y-49942857D01*
X56692371Y-49942857D02*
X56749514Y-49971429D01*
X56749514Y-49971429D02*
X56778085Y-50000000D01*
X56778085Y-50000000D02*
X56806657Y-50057143D01*
X56806657Y-50057143D02*
X56806657Y-50285714D01*
X56520942Y-49371429D02*
X56492371Y-49428572D01*
X56492371Y-49428572D02*
X56492371Y-49514286D01*
X56492371Y-49514286D02*
X56520942Y-49600000D01*
X56520942Y-49600000D02*
X56578085Y-49657143D01*
X56578085Y-49657143D02*
X56635228Y-49685714D01*
X56635228Y-49685714D02*
X56749514Y-49714286D01*
X56749514Y-49714286D02*
X56835228Y-49714286D01*
X56835228Y-49714286D02*
X56949514Y-49685714D01*
X56949514Y-49685714D02*
X57006657Y-49657143D01*
X57006657Y-49657143D02*
X57063800Y-49600000D01*
X57063800Y-49600000D02*
X57092371Y-49514286D01*
X57092371Y-49514286D02*
X57092371Y-49457143D01*
X57092371Y-49457143D02*
X57063800Y-49371429D01*
X57063800Y-49371429D02*
X57035228Y-49342857D01*
X57035228Y-49342857D02*
X56835228Y-49342857D01*
X56835228Y-49342857D02*
X56835228Y-49457143D01*
X56778085Y-48885714D02*
X56806657Y-48800000D01*
X56806657Y-48800000D02*
X56835228Y-48771429D01*
X56835228Y-48771429D02*
X56892371Y-48742857D01*
X56892371Y-48742857D02*
X56978085Y-48742857D01*
X56978085Y-48742857D02*
X57035228Y-48771429D01*
X57035228Y-48771429D02*
X57063800Y-48800000D01*
X57063800Y-48800000D02*
X57092371Y-48857143D01*
X57092371Y-48857143D02*
X57092371Y-49085714D01*
X57092371Y-49085714D02*
X56492371Y-49085714D01*
X56492371Y-49085714D02*
X56492371Y-48885714D01*
X56492371Y-48885714D02*
X56520942Y-48828572D01*
X56520942Y-48828572D02*
X56549514Y-48800000D01*
X56549514Y-48800000D02*
X56606657Y-48771429D01*
X56606657Y-48771429D02*
X56663800Y-48771429D01*
X56663800Y-48771429D02*
X56720942Y-48800000D01*
X56720942Y-48800000D02*
X56749514Y-48828572D01*
X56749514Y-48828572D02*
X56778085Y-48885714D01*
X56778085Y-48885714D02*
X56778085Y-49085714D01*
X57292371Y-47885714D02*
X56435228Y-47885714D01*
X56492371Y-46714285D02*
X56492371Y-46999999D01*
X56492371Y-46999999D02*
X56778085Y-47028571D01*
X56778085Y-47028571D02*
X56749514Y-46999999D01*
X56749514Y-46999999D02*
X56720942Y-46942857D01*
X56720942Y-46942857D02*
X56720942Y-46799999D01*
X56720942Y-46799999D02*
X56749514Y-46742857D01*
X56749514Y-46742857D02*
X56778085Y-46714285D01*
X56778085Y-46714285D02*
X56835228Y-46685714D01*
X56835228Y-46685714D02*
X56978085Y-46685714D01*
X56978085Y-46685714D02*
X57035228Y-46714285D01*
X57035228Y-46714285D02*
X57063800Y-46742857D01*
X57063800Y-46742857D02*
X57092371Y-46799999D01*
X57092371Y-46799999D02*
X57092371Y-46942857D01*
X57092371Y-46942857D02*
X57063800Y-46999999D01*
X57063800Y-46999999D02*
X57035228Y-47028571D01*
X56492371Y-46514285D02*
X57092371Y-46314285D01*
X57092371Y-46314285D02*
X56492371Y-46114285D01*
X72025715Y-54892371D02*
X72025715Y-54292371D01*
X72025715Y-54578085D02*
X72368572Y-54578085D01*
X72368572Y-54892371D02*
X72368572Y-54292371D01*
X72654286Y-54578085D02*
X72854286Y-54578085D01*
X72940000Y-54892371D02*
X72654286Y-54892371D01*
X72654286Y-54892371D02*
X72654286Y-54292371D01*
X72654286Y-54292371D02*
X72940000Y-54292371D01*
X73197143Y-54663800D02*
X73654286Y-54663800D01*
X73425714Y-54892371D02*
X73425714Y-54435228D01*
X74540000Y-55092371D02*
X74540000Y-54235228D01*
X75425715Y-54892371D02*
X75425715Y-54292371D01*
X75425715Y-54578085D02*
X75768572Y-54578085D01*
X75768572Y-54892371D02*
X75768572Y-54292371D01*
X76054286Y-54578085D02*
X76254286Y-54578085D01*
X76340000Y-54892371D02*
X76054286Y-54892371D01*
X76054286Y-54892371D02*
X76054286Y-54292371D01*
X76054286Y-54292371D02*
X76340000Y-54292371D01*
X76597143Y-54663800D02*
X77054286Y-54663800D01*
X75456371Y-51825142D02*
X74856371Y-51825142D01*
X74856371Y-51825142D02*
X74856371Y-51596571D01*
X74856371Y-51596571D02*
X74884942Y-51539428D01*
X74884942Y-51539428D02*
X74913514Y-51510857D01*
X74913514Y-51510857D02*
X74970657Y-51482285D01*
X74970657Y-51482285D02*
X75056371Y-51482285D01*
X75056371Y-51482285D02*
X75113514Y-51510857D01*
X75113514Y-51510857D02*
X75142085Y-51539428D01*
X75142085Y-51539428D02*
X75170657Y-51596571D01*
X75170657Y-51596571D02*
X75170657Y-51825142D01*
X75399228Y-50882285D02*
X75427800Y-50910857D01*
X75427800Y-50910857D02*
X75456371Y-50996571D01*
X75456371Y-50996571D02*
X75456371Y-51053714D01*
X75456371Y-51053714D02*
X75427800Y-51139428D01*
X75427800Y-51139428D02*
X75370657Y-51196571D01*
X75370657Y-51196571D02*
X75313514Y-51225142D01*
X75313514Y-51225142D02*
X75199228Y-51253714D01*
X75199228Y-51253714D02*
X75113514Y-51253714D01*
X75113514Y-51253714D02*
X74999228Y-51225142D01*
X74999228Y-51225142D02*
X74942085Y-51196571D01*
X74942085Y-51196571D02*
X74884942Y-51139428D01*
X74884942Y-51139428D02*
X74856371Y-51053714D01*
X74856371Y-51053714D02*
X74856371Y-50996571D01*
X74856371Y-50996571D02*
X74884942Y-50910857D01*
X74884942Y-50910857D02*
X74913514Y-50882285D01*
X75142085Y-50425142D02*
X75142085Y-50625142D01*
X75456371Y-50625142D02*
X74856371Y-50625142D01*
X74856371Y-50625142D02*
X74856371Y-50339428D01*
X75227800Y-50110856D02*
X75227800Y-49653714D01*
X75456371Y-49882285D02*
X74999228Y-49882285D01*
X75656371Y-48767999D02*
X74799228Y-48767999D01*
X75456371Y-47882284D02*
X74856371Y-47882284D01*
X74856371Y-47882284D02*
X74856371Y-47653713D01*
X74856371Y-47653713D02*
X74884942Y-47596570D01*
X74884942Y-47596570D02*
X74913514Y-47567999D01*
X74913514Y-47567999D02*
X74970657Y-47539427D01*
X74970657Y-47539427D02*
X75056371Y-47539427D01*
X75056371Y-47539427D02*
X75113514Y-47567999D01*
X75113514Y-47567999D02*
X75142085Y-47596570D01*
X75142085Y-47596570D02*
X75170657Y-47653713D01*
X75170657Y-47653713D02*
X75170657Y-47882284D01*
X75399228Y-46939427D02*
X75427800Y-46967999D01*
X75427800Y-46967999D02*
X75456371Y-47053713D01*
X75456371Y-47053713D02*
X75456371Y-47110856D01*
X75456371Y-47110856D02*
X75427800Y-47196570D01*
X75427800Y-47196570D02*
X75370657Y-47253713D01*
X75370657Y-47253713D02*
X75313514Y-47282284D01*
X75313514Y-47282284D02*
X75199228Y-47310856D01*
X75199228Y-47310856D02*
X75113514Y-47310856D01*
X75113514Y-47310856D02*
X74999228Y-47282284D01*
X74999228Y-47282284D02*
X74942085Y-47253713D01*
X74942085Y-47253713D02*
X74884942Y-47196570D01*
X74884942Y-47196570D02*
X74856371Y-47110856D01*
X74856371Y-47110856D02*
X74856371Y-47053713D01*
X74856371Y-47053713D02*
X74884942Y-46967999D01*
X74884942Y-46967999D02*
X74913514Y-46939427D01*
X75142085Y-46482284D02*
X75142085Y-46682284D01*
X75456371Y-46682284D02*
X74856371Y-46682284D01*
X74856371Y-46682284D02*
X74856371Y-46396570D01*
X75227800Y-46167998D02*
X75227800Y-45710856D01*
D11*
X71041047Y-69791619D02*
X71041047Y-68791619D01*
X71041047Y-69172571D02*
X71136285Y-69124952D01*
X71136285Y-69124952D02*
X71326761Y-69124952D01*
X71326761Y-69124952D02*
X71421999Y-69172571D01*
X71421999Y-69172571D02*
X71469618Y-69220190D01*
X71469618Y-69220190D02*
X71517237Y-69315428D01*
X71517237Y-69315428D02*
X71517237Y-69601142D01*
X71517237Y-69601142D02*
X71469618Y-69696380D01*
X71469618Y-69696380D02*
X71421999Y-69744000D01*
X71421999Y-69744000D02*
X71326761Y-69791619D01*
X71326761Y-69791619D02*
X71136285Y-69791619D01*
X71136285Y-69791619D02*
X71041047Y-69744000D01*
X71850571Y-69124952D02*
X72088666Y-69791619D01*
X72326761Y-69124952D02*
X72088666Y-69791619D01*
X72088666Y-69791619D02*
X71993428Y-70029714D01*
X71993428Y-70029714D02*
X71945809Y-70077333D01*
X71945809Y-70077333D02*
X71850571Y-70124952D01*
X73374381Y-69124952D02*
X73612476Y-69791619D01*
X73612476Y-69791619D02*
X73850571Y-69124952D01*
X74660095Y-69791619D02*
X74660095Y-69267809D01*
X74660095Y-69267809D02*
X74612476Y-69172571D01*
X74612476Y-69172571D02*
X74517238Y-69124952D01*
X74517238Y-69124952D02*
X74326762Y-69124952D01*
X74326762Y-69124952D02*
X74231524Y-69172571D01*
X74660095Y-69744000D02*
X74564857Y-69791619D01*
X74564857Y-69791619D02*
X74326762Y-69791619D01*
X74326762Y-69791619D02*
X74231524Y-69744000D01*
X74231524Y-69744000D02*
X74183905Y-69648761D01*
X74183905Y-69648761D02*
X74183905Y-69553523D01*
X74183905Y-69553523D02*
X74231524Y-69458285D01*
X74231524Y-69458285D02*
X74326762Y-69410666D01*
X74326762Y-69410666D02*
X74564857Y-69410666D01*
X74564857Y-69410666D02*
X74660095Y-69363047D01*
X75279143Y-69791619D02*
X75183905Y-69744000D01*
X75183905Y-69744000D02*
X75136286Y-69648761D01*
X75136286Y-69648761D02*
X75136286Y-68791619D01*
X76041048Y-69744000D02*
X75945810Y-69791619D01*
X75945810Y-69791619D02*
X75755334Y-69791619D01*
X75755334Y-69791619D02*
X75660096Y-69744000D01*
X75660096Y-69744000D02*
X75612477Y-69648761D01*
X75612477Y-69648761D02*
X75612477Y-69267809D01*
X75612477Y-69267809D02*
X75660096Y-69172571D01*
X75660096Y-69172571D02*
X75755334Y-69124952D01*
X75755334Y-69124952D02*
X75945810Y-69124952D01*
X75945810Y-69124952D02*
X76041048Y-69172571D01*
X76041048Y-69172571D02*
X76088667Y-69267809D01*
X76088667Y-69267809D02*
X76088667Y-69363047D01*
X76088667Y-69363047D02*
X75612477Y-69458285D01*
X76517239Y-69124952D02*
X76517239Y-70124952D01*
X76517239Y-69172571D02*
X76612477Y-69124952D01*
X76612477Y-69124952D02*
X76802953Y-69124952D01*
X76802953Y-69124952D02*
X76898191Y-69172571D01*
X76898191Y-69172571D02*
X76945810Y-69220190D01*
X76945810Y-69220190D02*
X76993429Y-69315428D01*
X76993429Y-69315428D02*
X76993429Y-69601142D01*
X76993429Y-69601142D02*
X76945810Y-69696380D01*
X76945810Y-69696380D02*
X76898191Y-69744000D01*
X76898191Y-69744000D02*
X76802953Y-69791619D01*
X76802953Y-69791619D02*
X76612477Y-69791619D01*
X76612477Y-69791619D02*
X76517239Y-69744000D01*
X77802953Y-69744000D02*
X77707715Y-69791619D01*
X77707715Y-69791619D02*
X77517239Y-69791619D01*
X77517239Y-69791619D02*
X77422001Y-69744000D01*
X77422001Y-69744000D02*
X77374382Y-69648761D01*
X77374382Y-69648761D02*
X77374382Y-69267809D01*
X77374382Y-69267809D02*
X77422001Y-69172571D01*
X77422001Y-69172571D02*
X77517239Y-69124952D01*
X77517239Y-69124952D02*
X77707715Y-69124952D01*
X77707715Y-69124952D02*
X77802953Y-69172571D01*
X77802953Y-69172571D02*
X77850572Y-69267809D01*
X77850572Y-69267809D02*
X77850572Y-69363047D01*
X77850572Y-69363047D02*
X77374382Y-69458285D01*
D10*
X40272371Y-52057142D02*
X39672371Y-52057142D01*
X39672371Y-52057142D02*
X39672371Y-51828571D01*
X39672371Y-51828571D02*
X39700942Y-51771428D01*
X39700942Y-51771428D02*
X39729514Y-51742857D01*
X39729514Y-51742857D02*
X39786657Y-51714285D01*
X39786657Y-51714285D02*
X39872371Y-51714285D01*
X39872371Y-51714285D02*
X39929514Y-51742857D01*
X39929514Y-51742857D02*
X39958085Y-51771428D01*
X39958085Y-51771428D02*
X39986657Y-51828571D01*
X39986657Y-51828571D02*
X39986657Y-52057142D01*
X40215228Y-51114285D02*
X40243800Y-51142857D01*
X40243800Y-51142857D02*
X40272371Y-51228571D01*
X40272371Y-51228571D02*
X40272371Y-51285714D01*
X40272371Y-51285714D02*
X40243800Y-51371428D01*
X40243800Y-51371428D02*
X40186657Y-51428571D01*
X40186657Y-51428571D02*
X40129514Y-51457142D01*
X40129514Y-51457142D02*
X40015228Y-51485714D01*
X40015228Y-51485714D02*
X39929514Y-51485714D01*
X39929514Y-51485714D02*
X39815228Y-51457142D01*
X39815228Y-51457142D02*
X39758085Y-51428571D01*
X39758085Y-51428571D02*
X39700942Y-51371428D01*
X39700942Y-51371428D02*
X39672371Y-51285714D01*
X39672371Y-51285714D02*
X39672371Y-51228571D01*
X39672371Y-51228571D02*
X39700942Y-51142857D01*
X39700942Y-51142857D02*
X39729514Y-51114285D01*
X39958085Y-50657142D02*
X39958085Y-50857142D01*
X40272371Y-50857142D02*
X39672371Y-50857142D01*
X39672371Y-50857142D02*
X39672371Y-50571428D01*
X40043800Y-50342856D02*
X40043800Y-49885714D01*
X40272371Y-50114285D02*
X39815228Y-50114285D01*
X40472371Y-48999999D02*
X39615228Y-48999999D01*
X40272371Y-48114284D02*
X39672371Y-48114284D01*
X39672371Y-48114284D02*
X39672371Y-47885713D01*
X39672371Y-47885713D02*
X39700942Y-47828570D01*
X39700942Y-47828570D02*
X39729514Y-47799999D01*
X39729514Y-47799999D02*
X39786657Y-47771427D01*
X39786657Y-47771427D02*
X39872371Y-47771427D01*
X39872371Y-47771427D02*
X39929514Y-47799999D01*
X39929514Y-47799999D02*
X39958085Y-47828570D01*
X39958085Y-47828570D02*
X39986657Y-47885713D01*
X39986657Y-47885713D02*
X39986657Y-48114284D01*
X40215228Y-47171427D02*
X40243800Y-47199999D01*
X40243800Y-47199999D02*
X40272371Y-47285713D01*
X40272371Y-47285713D02*
X40272371Y-47342856D01*
X40272371Y-47342856D02*
X40243800Y-47428570D01*
X40243800Y-47428570D02*
X40186657Y-47485713D01*
X40186657Y-47485713D02*
X40129514Y-47514284D01*
X40129514Y-47514284D02*
X40015228Y-47542856D01*
X40015228Y-47542856D02*
X39929514Y-47542856D01*
X39929514Y-47542856D02*
X39815228Y-47514284D01*
X39815228Y-47514284D02*
X39758085Y-47485713D01*
X39758085Y-47485713D02*
X39700942Y-47428570D01*
X39700942Y-47428570D02*
X39672371Y-47342856D01*
X39672371Y-47342856D02*
X39672371Y-47285713D01*
X39672371Y-47285713D02*
X39700942Y-47199999D01*
X39700942Y-47199999D02*
X39729514Y-47171427D01*
X39958085Y-46714284D02*
X39958085Y-46914284D01*
X40272371Y-46914284D02*
X39672371Y-46914284D01*
X39672371Y-46914284D02*
X39672371Y-46628570D01*
X40043800Y-46399998D02*
X40043800Y-45942856D01*
X68280942Y-64334572D02*
X68252371Y-64391715D01*
X68252371Y-64391715D02*
X68252371Y-64477429D01*
X68252371Y-64477429D02*
X68280942Y-64563143D01*
X68280942Y-64563143D02*
X68338085Y-64620286D01*
X68338085Y-64620286D02*
X68395228Y-64648857D01*
X68395228Y-64648857D02*
X68509514Y-64677429D01*
X68509514Y-64677429D02*
X68595228Y-64677429D01*
X68595228Y-64677429D02*
X68709514Y-64648857D01*
X68709514Y-64648857D02*
X68766657Y-64620286D01*
X68766657Y-64620286D02*
X68823800Y-64563143D01*
X68823800Y-64563143D02*
X68852371Y-64477429D01*
X68852371Y-64477429D02*
X68852371Y-64420286D01*
X68852371Y-64420286D02*
X68823800Y-64334572D01*
X68823800Y-64334572D02*
X68795228Y-64306000D01*
X68795228Y-64306000D02*
X68595228Y-64306000D01*
X68595228Y-64306000D02*
X68595228Y-64420286D01*
X68852371Y-64048857D02*
X68252371Y-64048857D01*
X68252371Y-64048857D02*
X68852371Y-63706000D01*
X68852371Y-63706000D02*
X68252371Y-63706000D01*
X68852371Y-63420286D02*
X68252371Y-63420286D01*
X68252371Y-63420286D02*
X68252371Y-63277429D01*
X68252371Y-63277429D02*
X68280942Y-63191715D01*
X68280942Y-63191715D02*
X68338085Y-63134572D01*
X68338085Y-63134572D02*
X68395228Y-63106001D01*
X68395228Y-63106001D02*
X68509514Y-63077429D01*
X68509514Y-63077429D02*
X68595228Y-63077429D01*
X68595228Y-63077429D02*
X68709514Y-63106001D01*
X68709514Y-63106001D02*
X68766657Y-63134572D01*
X68766657Y-63134572D02*
X68823800Y-63191715D01*
X68823800Y-63191715D02*
X68852371Y-63277429D01*
X68852371Y-63277429D02*
X68852371Y-63420286D01*
X69052371Y-62220286D02*
X68195228Y-62220286D01*
X68680942Y-61363143D02*
X68680942Y-61077429D01*
X68852371Y-61420286D02*
X68252371Y-61220286D01*
X68252371Y-61220286D02*
X68852371Y-61020286D01*
X68252371Y-60820285D02*
X68738085Y-60820285D01*
X68738085Y-60820285D02*
X68795228Y-60791714D01*
X68795228Y-60791714D02*
X68823800Y-60763143D01*
X68823800Y-60763143D02*
X68852371Y-60706000D01*
X68852371Y-60706000D02*
X68852371Y-60591714D01*
X68852371Y-60591714D02*
X68823800Y-60534571D01*
X68823800Y-60534571D02*
X68795228Y-60506000D01*
X68795228Y-60506000D02*
X68738085Y-60477428D01*
X68738085Y-60477428D02*
X68252371Y-60477428D01*
X68252371Y-60248857D02*
X68852371Y-59848857D01*
X68252371Y-59848857D02*
X68852371Y-60248857D01*
X68852371Y-59306000D02*
X68852371Y-59648857D01*
X68852371Y-59477428D02*
X68252371Y-59477428D01*
X68252371Y-59477428D02*
X68338085Y-59534571D01*
X68338085Y-59534571D02*
X68395228Y-59591714D01*
X68395228Y-59591714D02*
X68423800Y-59648857D01*
X69052371Y-58448856D02*
X68195228Y-58448856D01*
X68252371Y-57277427D02*
X68252371Y-57563141D01*
X68252371Y-57563141D02*
X68538085Y-57591713D01*
X68538085Y-57591713D02*
X68509514Y-57563141D01*
X68509514Y-57563141D02*
X68480942Y-57505999D01*
X68480942Y-57505999D02*
X68480942Y-57363141D01*
X68480942Y-57363141D02*
X68509514Y-57305999D01*
X68509514Y-57305999D02*
X68538085Y-57277427D01*
X68538085Y-57277427D02*
X68595228Y-57248856D01*
X68595228Y-57248856D02*
X68738085Y-57248856D01*
X68738085Y-57248856D02*
X68795228Y-57277427D01*
X68795228Y-57277427D02*
X68823800Y-57305999D01*
X68823800Y-57305999D02*
X68852371Y-57363141D01*
X68852371Y-57363141D02*
X68852371Y-57505999D01*
X68852371Y-57505999D02*
X68823800Y-57563141D01*
X68823800Y-57563141D02*
X68795228Y-57591713D01*
X68252371Y-57077427D02*
X68852371Y-56877427D01*
X68852371Y-56877427D02*
X68252371Y-56677427D01*
D11*
X36756330Y-69791619D02*
X37280139Y-69124952D01*
X36756330Y-69124952D02*
X37280139Y-69791619D01*
X37803949Y-69791619D02*
X37708711Y-69744000D01*
X37708711Y-69744000D02*
X37661092Y-69696380D01*
X37661092Y-69696380D02*
X37613473Y-69601142D01*
X37613473Y-69601142D02*
X37613473Y-69315428D01*
X37613473Y-69315428D02*
X37661092Y-69220190D01*
X37661092Y-69220190D02*
X37708711Y-69172571D01*
X37708711Y-69172571D02*
X37803949Y-69124952D01*
X37803949Y-69124952D02*
X37946806Y-69124952D01*
X37946806Y-69124952D02*
X38042044Y-69172571D01*
X38042044Y-69172571D02*
X38089663Y-69220190D01*
X38089663Y-69220190D02*
X38137282Y-69315428D01*
X38137282Y-69315428D02*
X38137282Y-69601142D01*
X38137282Y-69601142D02*
X38089663Y-69696380D01*
X38089663Y-69696380D02*
X38042044Y-69744000D01*
X38042044Y-69744000D02*
X37946806Y-69791619D01*
X37946806Y-69791619D02*
X37803949Y-69791619D01*
X38708711Y-69791619D02*
X38613473Y-69744000D01*
X38613473Y-69744000D02*
X38565854Y-69648761D01*
X38565854Y-69648761D02*
X38565854Y-68791619D01*
X39851569Y-69124952D02*
X39851569Y-70124952D01*
X39851569Y-69172571D02*
X39946807Y-69124952D01*
X39946807Y-69124952D02*
X40137283Y-69124952D01*
X40137283Y-69124952D02*
X40232521Y-69172571D01*
X40232521Y-69172571D02*
X40280140Y-69220190D01*
X40280140Y-69220190D02*
X40327759Y-69315428D01*
X40327759Y-69315428D02*
X40327759Y-69601142D01*
X40327759Y-69601142D02*
X40280140Y-69696380D01*
X40280140Y-69696380D02*
X40232521Y-69744000D01*
X40232521Y-69744000D02*
X40137283Y-69791619D01*
X40137283Y-69791619D02*
X39946807Y-69791619D01*
X39946807Y-69791619D02*
X39851569Y-69744000D01*
X41184902Y-69744000D02*
X41089664Y-69791619D01*
X41089664Y-69791619D02*
X40899188Y-69791619D01*
X40899188Y-69791619D02*
X40803950Y-69744000D01*
X40803950Y-69744000D02*
X40756331Y-69696380D01*
X40756331Y-69696380D02*
X40708712Y-69601142D01*
X40708712Y-69601142D02*
X40708712Y-69315428D01*
X40708712Y-69315428D02*
X40756331Y-69220190D01*
X40756331Y-69220190D02*
X40803950Y-69172571D01*
X40803950Y-69172571D02*
X40899188Y-69124952D01*
X40899188Y-69124952D02*
X41089664Y-69124952D01*
X41089664Y-69124952D02*
X41184902Y-69172571D01*
X41613474Y-69791619D02*
X41613474Y-68791619D01*
X41613474Y-69172571D02*
X41708712Y-69124952D01*
X41708712Y-69124952D02*
X41899188Y-69124952D01*
X41899188Y-69124952D02*
X41994426Y-69172571D01*
X41994426Y-69172571D02*
X42042045Y-69220190D01*
X42042045Y-69220190D02*
X42089664Y-69315428D01*
X42089664Y-69315428D02*
X42089664Y-69601142D01*
X42089664Y-69601142D02*
X42042045Y-69696380D01*
X42042045Y-69696380D02*
X41994426Y-69744000D01*
X41994426Y-69744000D02*
X41899188Y-69791619D01*
X41899188Y-69791619D02*
X41708712Y-69791619D01*
X41708712Y-69791619D02*
X41613474Y-69744000D01*
X43280141Y-69791619D02*
X43280141Y-69124952D01*
X43280141Y-69315428D02*
X43327760Y-69220190D01*
X43327760Y-69220190D02*
X43375379Y-69172571D01*
X43375379Y-69172571D02*
X43470617Y-69124952D01*
X43470617Y-69124952D02*
X43565855Y-69124952D01*
X44280141Y-69744000D02*
X44184903Y-69791619D01*
X44184903Y-69791619D02*
X43994427Y-69791619D01*
X43994427Y-69791619D02*
X43899189Y-69744000D01*
X43899189Y-69744000D02*
X43851570Y-69648761D01*
X43851570Y-69648761D02*
X43851570Y-69267809D01*
X43851570Y-69267809D02*
X43899189Y-69172571D01*
X43899189Y-69172571D02*
X43994427Y-69124952D01*
X43994427Y-69124952D02*
X44184903Y-69124952D01*
X44184903Y-69124952D02*
X44280141Y-69172571D01*
X44280141Y-69172571D02*
X44327760Y-69267809D01*
X44327760Y-69267809D02*
X44327760Y-69363047D01*
X44327760Y-69363047D02*
X43851570Y-69458285D01*
X44661094Y-69124952D02*
X44899189Y-69791619D01*
X44899189Y-69791619D02*
X45137284Y-69124952D01*
X46184904Y-68791619D02*
X46851570Y-68791619D01*
X46851570Y-68791619D02*
X46422999Y-69791619D01*
D10*
X40606687Y-65098410D02*
X40621498Y-65009281D01*
X40621498Y-65009281D02*
X40645248Y-64976592D01*
X40645248Y-64976592D02*
X40697218Y-64939433D01*
X40697218Y-64939433D02*
X40781877Y-64926025D01*
X40781877Y-64926025D02*
X40842786Y-64945305D01*
X40842786Y-64945305D02*
X40875475Y-64969055D01*
X40875475Y-64969055D02*
X40912634Y-65021025D01*
X40912634Y-65021025D02*
X40948390Y-65246782D01*
X40948390Y-65246782D02*
X40355777Y-65340643D01*
X40355777Y-65340643D02*
X40324490Y-65143105D01*
X40324490Y-65143105D02*
X40343771Y-65082196D01*
X40343771Y-65082196D02*
X40367521Y-65049507D01*
X40367521Y-65049507D02*
X40419491Y-65012348D01*
X40419491Y-65012348D02*
X40475930Y-65003409D01*
X40475930Y-65003409D02*
X40536839Y-65022690D01*
X40536839Y-65022690D02*
X40569528Y-65046440D01*
X40569528Y-65046440D02*
X40606687Y-65098410D01*
X40606687Y-65098410D02*
X40637974Y-65295947D01*
X40805365Y-64343753D02*
X40858999Y-64682389D01*
X40832182Y-64513071D02*
X40239569Y-64606932D01*
X40239569Y-64606932D02*
X40333167Y-64649962D01*
X40333167Y-64649962D02*
X40398545Y-64697463D01*
X40398545Y-64697463D02*
X40435704Y-64749432D01*
X40868815Y-63465875D02*
X40022225Y-63599962D01*
X40191018Y-62473980D02*
X40205829Y-62384851D01*
X40205829Y-62384851D02*
X40229579Y-62352162D01*
X40229579Y-62352162D02*
X40281549Y-62315003D01*
X40281549Y-62315003D02*
X40366208Y-62301594D01*
X40366208Y-62301594D02*
X40427117Y-62320875D01*
X40427117Y-62320875D02*
X40459806Y-62344625D01*
X40459806Y-62344625D02*
X40496965Y-62396595D01*
X40496965Y-62396595D02*
X40532721Y-62622352D01*
X40532721Y-62622352D02*
X39940108Y-62716213D01*
X39940108Y-62716213D02*
X39908822Y-62518675D01*
X39908822Y-62518675D02*
X39928102Y-62457766D01*
X39928102Y-62457766D02*
X39951852Y-62425077D01*
X39951852Y-62425077D02*
X40003822Y-62387918D01*
X40003822Y-62387918D02*
X40060261Y-62378979D01*
X40060261Y-62378979D02*
X40121170Y-62398260D01*
X40121170Y-62398260D02*
X40153859Y-62422010D01*
X40153859Y-62422010D02*
X40191018Y-62473980D01*
X40191018Y-62473980D02*
X40222305Y-62671517D01*
X39907157Y-62142880D02*
X39874467Y-62119130D01*
X39874467Y-62119130D02*
X39837309Y-62067160D01*
X39837309Y-62067160D02*
X39814961Y-61926062D01*
X39814961Y-61926062D02*
X39834241Y-61865153D01*
X39834241Y-61865153D02*
X39857992Y-61832464D01*
X39857992Y-61832464D02*
X39909961Y-61795305D01*
X39909961Y-61795305D02*
X39966401Y-61786366D01*
X39966401Y-61786366D02*
X40055529Y-61801177D01*
X40055529Y-61801177D02*
X40447800Y-62086178D01*
X40447800Y-62086178D02*
X40389696Y-61719323D01*
X40453147Y-60841445D02*
X39606557Y-60975532D01*
X39952204Y-60052959D02*
X39907509Y-59770762D01*
X40130461Y-60082581D02*
X39506561Y-59978904D01*
X39506561Y-59978904D02*
X40067887Y-59687506D01*
X39987435Y-59179551D02*
X40041070Y-59518187D01*
X40014253Y-59348869D02*
X39421640Y-59442730D01*
X39421640Y-59442730D02*
X39515238Y-59485761D01*
X39515238Y-59485761D02*
X39580616Y-59533261D01*
X39580616Y-59533261D02*
X39617775Y-59585231D01*
X40050886Y-58301674D02*
X39204296Y-58435761D01*
X39549944Y-57513188D02*
X39505248Y-57230991D01*
X39728201Y-57542810D02*
X39104301Y-57439133D01*
X39104301Y-57439133D02*
X39665627Y-57147734D01*
X39102636Y-57063338D02*
X39069947Y-57039587D01*
X39069947Y-57039587D02*
X39032788Y-56987618D01*
X39032788Y-56987618D02*
X39010440Y-56846519D01*
X39010440Y-56846519D02*
X39029721Y-56785610D01*
X39029721Y-56785610D02*
X39053471Y-56752921D01*
X39053471Y-56752921D02*
X39105441Y-56715762D01*
X39105441Y-56715762D02*
X39161880Y-56706823D01*
X39161880Y-56706823D02*
X39251009Y-56721634D01*
X39251009Y-56721634D02*
X39643279Y-57006636D01*
X39643279Y-57006636D02*
X39585175Y-56639780D01*
X64862371Y-53447142D02*
X64262371Y-53447142D01*
X64548085Y-53447142D02*
X64548085Y-53104285D01*
X64862371Y-53104285D02*
X64262371Y-53104285D01*
X64548085Y-52818571D02*
X64548085Y-52618571D01*
X64862371Y-52532857D02*
X64862371Y-52818571D01*
X64862371Y-52818571D02*
X64262371Y-52818571D01*
X64262371Y-52818571D02*
X64262371Y-52532857D01*
X64548085Y-52075714D02*
X64548085Y-52275714D01*
X64862371Y-52275714D02*
X64262371Y-52275714D01*
X64262371Y-52275714D02*
X64262371Y-51990000D01*
X64633800Y-51761428D02*
X64633800Y-51304286D01*
X64862371Y-51532857D02*
X64405228Y-51532857D01*
X65062371Y-50875714D02*
X64205228Y-50875714D01*
X64262371Y-50532857D02*
X64262371Y-50190000D01*
X64862371Y-50361428D02*
X64262371Y-50361428D01*
X64690942Y-50018571D02*
X64690942Y-49732857D01*
X64862371Y-50075714D02*
X64262371Y-49875714D01*
X64262371Y-49875714D02*
X64862371Y-49675714D01*
X64805228Y-49132856D02*
X64833800Y-49161428D01*
X64833800Y-49161428D02*
X64862371Y-49247142D01*
X64862371Y-49247142D02*
X64862371Y-49304285D01*
X64862371Y-49304285D02*
X64833800Y-49389999D01*
X64833800Y-49389999D02*
X64776657Y-49447142D01*
X64776657Y-49447142D02*
X64719514Y-49475713D01*
X64719514Y-49475713D02*
X64605228Y-49504285D01*
X64605228Y-49504285D02*
X64519514Y-49504285D01*
X64519514Y-49504285D02*
X64405228Y-49475713D01*
X64405228Y-49475713D02*
X64348085Y-49447142D01*
X64348085Y-49447142D02*
X64290942Y-49389999D01*
X64290942Y-49389999D02*
X64262371Y-49304285D01*
X64262371Y-49304285D02*
X64262371Y-49247142D01*
X64262371Y-49247142D02*
X64290942Y-49161428D01*
X64290942Y-49161428D02*
X64319514Y-49132856D01*
X64862371Y-48875713D02*
X64262371Y-48875713D01*
X64548085Y-48875713D02*
X64548085Y-48532856D01*
X64862371Y-48532856D02*
X64262371Y-48532856D01*
X65062371Y-48104285D02*
X64205228Y-48104285D01*
X64862371Y-47675713D02*
X64262371Y-47675713D01*
X64548085Y-47675713D02*
X64548085Y-47332856D01*
X64862371Y-47332856D02*
X64262371Y-47332856D01*
X64548085Y-47047142D02*
X64548085Y-46847142D01*
X64862371Y-46761428D02*
X64862371Y-47047142D01*
X64862371Y-47047142D02*
X64262371Y-47047142D01*
X64262371Y-47047142D02*
X64262371Y-46761428D01*
X64548085Y-46304285D02*
X64548085Y-46504285D01*
X64862371Y-46504285D02*
X64262371Y-46504285D01*
X64262371Y-46504285D02*
X64262371Y-46218571D01*
X64633800Y-45989999D02*
X64633800Y-45532857D01*
D12*
X73231714Y-67310819D02*
X73231714Y-66310819D01*
X73231714Y-66787009D02*
X73803142Y-66787009D01*
X73803142Y-67310819D02*
X73803142Y-66310819D01*
X74279333Y-66787009D02*
X74612666Y-66787009D01*
X74755523Y-67310819D02*
X74279333Y-67310819D01*
X74279333Y-67310819D02*
X74279333Y-66310819D01*
X74279333Y-66310819D02*
X74755523Y-66310819D01*
X75707904Y-67310819D02*
X75136476Y-67310819D01*
X75422190Y-67310819D02*
X75422190Y-66310819D01*
X75422190Y-66310819D02*
X75326952Y-66453676D01*
X75326952Y-66453676D02*
X75231714Y-66548914D01*
X75231714Y-66548914D02*
X75136476Y-66596533D01*
X41997333Y-44490819D02*
X41997333Y-43490819D01*
X41997333Y-43490819D02*
X42378285Y-43490819D01*
X42378285Y-43490819D02*
X42473523Y-43538438D01*
X42473523Y-43538438D02*
X42521142Y-43586057D01*
X42521142Y-43586057D02*
X42568761Y-43681295D01*
X42568761Y-43681295D02*
X42568761Y-43824152D01*
X42568761Y-43824152D02*
X42521142Y-43919390D01*
X42521142Y-43919390D02*
X42473523Y-43967009D01*
X42473523Y-43967009D02*
X42378285Y-44014628D01*
X42378285Y-44014628D02*
X41997333Y-44014628D01*
X43568761Y-44395580D02*
X43521142Y-44443200D01*
X43521142Y-44443200D02*
X43378285Y-44490819D01*
X43378285Y-44490819D02*
X43283047Y-44490819D01*
X43283047Y-44490819D02*
X43140190Y-44443200D01*
X43140190Y-44443200D02*
X43044952Y-44347961D01*
X43044952Y-44347961D02*
X42997333Y-44252723D01*
X42997333Y-44252723D02*
X42949714Y-44062247D01*
X42949714Y-44062247D02*
X42949714Y-43919390D01*
X42949714Y-43919390D02*
X42997333Y-43728914D01*
X42997333Y-43728914D02*
X43044952Y-43633676D01*
X43044952Y-43633676D02*
X43140190Y-43538438D01*
X43140190Y-43538438D02*
X43283047Y-43490819D01*
X43283047Y-43490819D02*
X43378285Y-43490819D01*
X43378285Y-43490819D02*
X43521142Y-43538438D01*
X43521142Y-43538438D02*
X43568761Y-43586057D01*
X44330666Y-43967009D02*
X43997333Y-43967009D01*
X43997333Y-44490819D02*
X43997333Y-43490819D01*
X43997333Y-43490819D02*
X44473523Y-43490819D01*
X45378285Y-44490819D02*
X44806857Y-44490819D01*
X45092571Y-44490819D02*
X45092571Y-43490819D01*
X45092571Y-43490819D02*
X44997333Y-43633676D01*
X44997333Y-43633676D02*
X44902095Y-43728914D01*
X44902095Y-43728914D02*
X44806857Y-43776533D01*
X48784819Y-49046666D02*
X48308628Y-49379999D01*
X48784819Y-49618094D02*
X47784819Y-49618094D01*
X47784819Y-49618094D02*
X47784819Y-49237142D01*
X47784819Y-49237142D02*
X47832438Y-49141904D01*
X47832438Y-49141904D02*
X47880057Y-49094285D01*
X47880057Y-49094285D02*
X47975295Y-49046666D01*
X47975295Y-49046666D02*
X48118152Y-49046666D01*
X48118152Y-49046666D02*
X48213390Y-49094285D01*
X48213390Y-49094285D02*
X48261009Y-49141904D01*
X48261009Y-49141904D02*
X48308628Y-49237142D01*
X48308628Y-49237142D02*
X48308628Y-49618094D01*
X48784819Y-48094285D02*
X48784819Y-48665713D01*
X48784819Y-48379999D02*
X47784819Y-48379999D01*
X47784819Y-48379999D02*
X47927676Y-48475237D01*
X47927676Y-48475237D02*
X48022914Y-48570475D01*
X48022914Y-48570475D02*
X48070533Y-48665713D01*
X46214286Y-66310819D02*
X46785714Y-66310819D01*
X46500000Y-67310819D02*
X46500000Y-66310819D01*
X47119048Y-67310819D02*
X47119048Y-66310819D01*
X47119048Y-66787009D02*
X47690476Y-66787009D01*
X47690476Y-67310819D02*
X47690476Y-66310819D01*
X48690476Y-67310819D02*
X48119048Y-67310819D01*
X48404762Y-67310819D02*
X48404762Y-66310819D01*
X48404762Y-66310819D02*
X48309524Y-66453676D01*
X48309524Y-66453676D02*
X48214286Y-66548914D01*
X48214286Y-66548914D02*
X48119048Y-66596533D01*
X63055714Y-67225104D02*
X63531904Y-67225104D01*
X62960476Y-67510819D02*
X63293809Y-66510819D01*
X63293809Y-66510819D02*
X63627142Y-67510819D01*
X63960476Y-66510819D02*
X63960476Y-67320342D01*
X63960476Y-67320342D02*
X64008095Y-67415580D01*
X64008095Y-67415580D02*
X64055714Y-67463200D01*
X64055714Y-67463200D02*
X64150952Y-67510819D01*
X64150952Y-67510819D02*
X64341428Y-67510819D01*
X64341428Y-67510819D02*
X64436666Y-67463200D01*
X64436666Y-67463200D02*
X64484285Y-67415580D01*
X64484285Y-67415580D02*
X64531904Y-67320342D01*
X64531904Y-67320342D02*
X64531904Y-66510819D01*
X64912857Y-66510819D02*
X65579523Y-67510819D01*
X65579523Y-66510819D02*
X64912857Y-67510819D01*
X66484285Y-67510819D02*
X65912857Y-67510819D01*
X66198571Y-67510819D02*
X66198571Y-66510819D01*
X66198571Y-66510819D02*
X66103333Y-66653676D01*
X66103333Y-66653676D02*
X66008095Y-66748914D01*
X66008095Y-66748914D02*
X65912857Y-66796533D01*
X51453333Y-44204819D02*
X51120000Y-43728628D01*
X50881905Y-44204819D02*
X50881905Y-43204819D01*
X50881905Y-43204819D02*
X51262857Y-43204819D01*
X51262857Y-43204819D02*
X51358095Y-43252438D01*
X51358095Y-43252438D02*
X51405714Y-43300057D01*
X51405714Y-43300057D02*
X51453333Y-43395295D01*
X51453333Y-43395295D02*
X51453333Y-43538152D01*
X51453333Y-43538152D02*
X51405714Y-43633390D01*
X51405714Y-43633390D02*
X51358095Y-43681009D01*
X51358095Y-43681009D02*
X51262857Y-43728628D01*
X51262857Y-43728628D02*
X50881905Y-43728628D01*
X52405714Y-43252438D02*
X52310476Y-43204819D01*
X52310476Y-43204819D02*
X52167619Y-43204819D01*
X52167619Y-43204819D02*
X52024762Y-43252438D01*
X52024762Y-43252438D02*
X51929524Y-43347676D01*
X51929524Y-43347676D02*
X51881905Y-43442914D01*
X51881905Y-43442914D02*
X51834286Y-43633390D01*
X51834286Y-43633390D02*
X51834286Y-43776247D01*
X51834286Y-43776247D02*
X51881905Y-43966723D01*
X51881905Y-43966723D02*
X51929524Y-44061961D01*
X51929524Y-44061961D02*
X52024762Y-44157200D01*
X52024762Y-44157200D02*
X52167619Y-44204819D01*
X52167619Y-44204819D02*
X52262857Y-44204819D01*
X52262857Y-44204819D02*
X52405714Y-44157200D01*
X52405714Y-44157200D02*
X52453333Y-44109580D01*
X52453333Y-44109580D02*
X52453333Y-43776247D01*
X52453333Y-43776247D02*
X52262857Y-43776247D01*
X53215238Y-43681009D02*
X53358095Y-43728628D01*
X53358095Y-43728628D02*
X53405714Y-43776247D01*
X53405714Y-43776247D02*
X53453333Y-43871485D01*
X53453333Y-43871485D02*
X53453333Y-44014342D01*
X53453333Y-44014342D02*
X53405714Y-44109580D01*
X53405714Y-44109580D02*
X53358095Y-44157200D01*
X53358095Y-44157200D02*
X53262857Y-44204819D01*
X53262857Y-44204819D02*
X52881905Y-44204819D01*
X52881905Y-44204819D02*
X52881905Y-43204819D01*
X52881905Y-43204819D02*
X53215238Y-43204819D01*
X53215238Y-43204819D02*
X53310476Y-43252438D01*
X53310476Y-43252438D02*
X53358095Y-43300057D01*
X53358095Y-43300057D02*
X53405714Y-43395295D01*
X53405714Y-43395295D02*
X53405714Y-43490533D01*
X53405714Y-43490533D02*
X53358095Y-43585771D01*
X53358095Y-43585771D02*
X53310476Y-43633390D01*
X53310476Y-43633390D02*
X53215238Y-43681009D01*
X53215238Y-43681009D02*
X52881905Y-43681009D01*
X54405714Y-44204819D02*
X53834286Y-44204819D01*
X54120000Y-44204819D02*
X54120000Y-43204819D01*
X54120000Y-43204819D02*
X54024762Y-43347676D01*
X54024762Y-43347676D02*
X53929524Y-43442914D01*
X53929524Y-43442914D02*
X53834286Y-43490533D01*
X69683333Y-44490819D02*
X69683333Y-43490819D01*
X69683333Y-43490819D02*
X70064285Y-43490819D01*
X70064285Y-43490819D02*
X70159523Y-43538438D01*
X70159523Y-43538438D02*
X70207142Y-43586057D01*
X70207142Y-43586057D02*
X70254761Y-43681295D01*
X70254761Y-43681295D02*
X70254761Y-43824152D01*
X70254761Y-43824152D02*
X70207142Y-43919390D01*
X70207142Y-43919390D02*
X70159523Y-43967009D01*
X70159523Y-43967009D02*
X70064285Y-44014628D01*
X70064285Y-44014628D02*
X69683333Y-44014628D01*
X71254761Y-44395580D02*
X71207142Y-44443200D01*
X71207142Y-44443200D02*
X71064285Y-44490819D01*
X71064285Y-44490819D02*
X70969047Y-44490819D01*
X70969047Y-44490819D02*
X70826190Y-44443200D01*
X70826190Y-44443200D02*
X70730952Y-44347961D01*
X70730952Y-44347961D02*
X70683333Y-44252723D01*
X70683333Y-44252723D02*
X70635714Y-44062247D01*
X70635714Y-44062247D02*
X70635714Y-43919390D01*
X70635714Y-43919390D02*
X70683333Y-43728914D01*
X70683333Y-43728914D02*
X70730952Y-43633676D01*
X70730952Y-43633676D02*
X70826190Y-43538438D01*
X70826190Y-43538438D02*
X70969047Y-43490819D01*
X70969047Y-43490819D02*
X71064285Y-43490819D01*
X71064285Y-43490819D02*
X71207142Y-43538438D01*
X71207142Y-43538438D02*
X71254761Y-43586057D01*
X72016666Y-43967009D02*
X71683333Y-43967009D01*
X71683333Y-44490819D02*
X71683333Y-43490819D01*
X71683333Y-43490819D02*
X72159523Y-43490819D01*
X72492857Y-43586057D02*
X72540476Y-43538438D01*
X72540476Y-43538438D02*
X72635714Y-43490819D01*
X72635714Y-43490819D02*
X72873809Y-43490819D01*
X72873809Y-43490819D02*
X72969047Y-43538438D01*
X72969047Y-43538438D02*
X73016666Y-43586057D01*
X73016666Y-43586057D02*
X73064285Y-43681295D01*
X73064285Y-43681295D02*
X73064285Y-43776533D01*
X73064285Y-43776533D02*
X73016666Y-43919390D01*
X73016666Y-43919390D02*
X72445238Y-44490819D01*
X72445238Y-44490819D02*
X73064285Y-44490819D01*
X57166666Y-28495819D02*
X57166666Y-29210104D01*
X57166666Y-29210104D02*
X57119047Y-29352961D01*
X57119047Y-29352961D02*
X57023809Y-29448200D01*
X57023809Y-29448200D02*
X56880952Y-29495819D01*
X56880952Y-29495819D02*
X56785714Y-29495819D01*
X58166666Y-29495819D02*
X57595238Y-29495819D01*
X57880952Y-29495819D02*
X57880952Y-28495819D01*
X57880952Y-28495819D02*
X57785714Y-28638676D01*
X57785714Y-28638676D02*
X57690476Y-28733914D01*
X57690476Y-28733914D02*
X57595238Y-28781533D01*
X59047143Y-44254819D02*
X59047143Y-43254819D01*
X59047143Y-43731009D02*
X59618571Y-43731009D01*
X59618571Y-44254819D02*
X59618571Y-43254819D01*
X60094762Y-43731009D02*
X60428095Y-43731009D01*
X60570952Y-44254819D02*
X60094762Y-44254819D01*
X60094762Y-44254819D02*
X60094762Y-43254819D01*
X60094762Y-43254819D02*
X60570952Y-43254819D01*
X61332857Y-43731009D02*
X60999524Y-43731009D01*
X60999524Y-44254819D02*
X60999524Y-43254819D01*
X60999524Y-43254819D02*
X61475714Y-43254819D01*
X62380476Y-44254819D02*
X61809048Y-44254819D01*
X62094762Y-44254819D02*
X62094762Y-43254819D01*
X62094762Y-43254819D02*
X61999524Y-43397676D01*
X61999524Y-43397676D02*
X61904286Y-43492914D01*
X61904286Y-43492914D02*
X61809048Y-43540533D01*
X66924819Y-50218094D02*
X65924819Y-50218094D01*
X65924819Y-50218094D02*
X65924819Y-49979999D01*
X65924819Y-49979999D02*
X65972438Y-49837142D01*
X65972438Y-49837142D02*
X66067676Y-49741904D01*
X66067676Y-49741904D02*
X66162914Y-49694285D01*
X66162914Y-49694285D02*
X66353390Y-49646666D01*
X66353390Y-49646666D02*
X66496247Y-49646666D01*
X66496247Y-49646666D02*
X66686723Y-49694285D01*
X66686723Y-49694285D02*
X66781961Y-49741904D01*
X66781961Y-49741904D02*
X66877200Y-49837142D01*
X66877200Y-49837142D02*
X66924819Y-49979999D01*
X66924819Y-49979999D02*
X66924819Y-50218094D01*
X66924819Y-48694285D02*
X66924819Y-49265713D01*
X66924819Y-48979999D02*
X65924819Y-48979999D01*
X65924819Y-48979999D02*
X66067676Y-49075237D01*
X66067676Y-49075237D02*
X66162914Y-49170475D01*
X66162914Y-49170475D02*
X66210533Y-49265713D01*
X68864819Y-54261904D02*
X67864819Y-54261904D01*
X68864819Y-53690476D02*
X68293390Y-54119047D01*
X67864819Y-53690476D02*
X68436247Y-54261904D01*
X53690476Y-67169104D02*
X54166666Y-67169104D01*
X53595238Y-67454819D02*
X53928571Y-66454819D01*
X53928571Y-66454819D02*
X54261904Y-67454819D01*
X54595238Y-66454819D02*
X54595238Y-67264342D01*
X54595238Y-67264342D02*
X54642857Y-67359580D01*
X54642857Y-67359580D02*
X54690476Y-67407200D01*
X54690476Y-67407200D02*
X54785714Y-67454819D01*
X54785714Y-67454819D02*
X54976190Y-67454819D01*
X54976190Y-67454819D02*
X55071428Y-67407200D01*
X55071428Y-67407200D02*
X55119047Y-67359580D01*
X55119047Y-67359580D02*
X55166666Y-67264342D01*
X55166666Y-67264342D02*
X55166666Y-66454819D01*
X55547619Y-66454819D02*
X56214285Y-67454819D01*
X56214285Y-66454819D02*
X55547619Y-67454819D01*
X56547619Y-66550057D02*
X56595238Y-66502438D01*
X56595238Y-66502438D02*
X56690476Y-66454819D01*
X56690476Y-66454819D02*
X56928571Y-66454819D01*
X56928571Y-66454819D02*
X57023809Y-66502438D01*
X57023809Y-66502438D02*
X57071428Y-66550057D01*
X57071428Y-66550057D02*
X57119047Y-66645295D01*
X57119047Y-66645295D02*
X57119047Y-66740533D01*
X57119047Y-66740533D02*
X57071428Y-66883390D01*
X57071428Y-66883390D02*
X56500000Y-67454819D01*
X56500000Y-67454819D02*
X57119047Y-67454819D01*
X57547619Y-67073866D02*
X58309524Y-67073866D01*
X58690476Y-66454819D02*
X59309523Y-66454819D01*
X59309523Y-66454819D02*
X58976190Y-66835771D01*
X58976190Y-66835771D02*
X59119047Y-66835771D01*
X59119047Y-66835771D02*
X59214285Y-66883390D01*
X59214285Y-66883390D02*
X59261904Y-66931009D01*
X59261904Y-66931009D02*
X59309523Y-67026247D01*
X59309523Y-67026247D02*
X59309523Y-67264342D01*
X59309523Y-67264342D02*
X59261904Y-67359580D01*
X59261904Y-67359580D02*
X59214285Y-67407200D01*
X59214285Y-67407200D02*
X59119047Y-67454819D01*
X59119047Y-67454819D02*
X58833333Y-67454819D01*
X58833333Y-67454819D02*
X58738095Y-67407200D01*
X58738095Y-67407200D02*
X58690476Y-67359580D01*
X36377551Y-64133234D02*
X35389863Y-64289669D01*
X35389863Y-64289669D02*
X36043210Y-63848701D01*
X36043210Y-63848701D02*
X35285573Y-63631210D01*
X35285573Y-63631210D02*
X36273262Y-63474776D01*
X35181284Y-62972751D02*
X35151487Y-62784620D01*
X35151487Y-62784620D02*
X35183621Y-62683105D01*
X35183621Y-62683105D02*
X35262788Y-62574141D01*
X35262788Y-62574141D02*
X35443470Y-62497311D01*
X35443470Y-62497311D02*
X35772699Y-62445167D01*
X35772699Y-62445167D02*
X35968280Y-62462402D01*
X35968280Y-62462402D02*
X36077244Y-62541569D01*
X36077244Y-62541569D02*
X36139175Y-62628186D01*
X36139175Y-62628186D02*
X36168972Y-62816317D01*
X36168972Y-62816317D02*
X36136838Y-62917832D01*
X36136838Y-62917832D02*
X36057671Y-63026796D01*
X36057671Y-63026796D02*
X35876989Y-63103625D01*
X35876989Y-63103625D02*
X35547760Y-63155770D01*
X35547760Y-63155770D02*
X35352179Y-63138535D01*
X35352179Y-63138535D02*
X35243215Y-63059368D01*
X35243215Y-63059368D02*
X35181284Y-62972751D01*
X35069545Y-62267260D02*
X34980154Y-61702866D01*
X36012538Y-61828628D02*
X35024849Y-61985063D01*
X34898212Y-61185505D02*
X34868415Y-60997374D01*
X34868415Y-60997374D02*
X34900549Y-60895860D01*
X34900549Y-60895860D02*
X34979716Y-60786895D01*
X34979716Y-60786895D02*
X35160398Y-60710066D01*
X35160398Y-60710066D02*
X35489627Y-60657921D01*
X35489627Y-60657921D02*
X35685208Y-60675157D01*
X35685208Y-60675157D02*
X35794172Y-60754324D01*
X35794172Y-60754324D02*
X35856103Y-60840940D01*
X35856103Y-60840940D02*
X35885900Y-61029071D01*
X35885900Y-61029071D02*
X35853766Y-61130586D01*
X35853766Y-61130586D02*
X35774599Y-61239550D01*
X35774599Y-61239550D02*
X35593917Y-61316380D01*
X35593917Y-61316380D02*
X35264688Y-61368525D01*
X35264688Y-61368525D02*
X35069107Y-61351289D01*
X35069107Y-61351289D02*
X34960143Y-61272122D01*
X34960143Y-61272122D02*
X34898212Y-61185505D01*
X35662422Y-59618088D02*
X35244239Y-60021810D01*
X35751813Y-60182481D02*
X34764125Y-60338916D01*
X34764125Y-60338916D02*
X34704531Y-59962653D01*
X34704531Y-59962653D02*
X34736665Y-59861138D01*
X34736665Y-59861138D02*
X34776249Y-59806656D01*
X34776249Y-59806656D02*
X34862865Y-59744725D01*
X34862865Y-59744725D02*
X35003963Y-59722377D01*
X35003963Y-59722377D02*
X35105478Y-59754512D01*
X35105478Y-59754512D02*
X35159960Y-59794095D01*
X35159960Y-59794095D02*
X35221892Y-59880711D01*
X35221892Y-59880711D02*
X35281486Y-60256974D01*
X35513437Y-58677432D02*
X35602828Y-59241825D01*
X35558133Y-58959629D02*
X34570444Y-59116063D01*
X34570444Y-59116063D02*
X34726441Y-59187781D01*
X34726441Y-59187781D02*
X34835405Y-59266948D01*
X34835405Y-59266948D02*
X34897337Y-59353564D01*
D13*
%TO.C,HE1*%
X69511000Y-55646000D02*
X72294233Y-55646000D01*
X69511000Y-64766000D02*
X69511000Y-55646000D01*
X70511000Y-65766000D02*
X69511000Y-64766000D01*
X74936000Y-55646000D02*
X73597767Y-55646000D01*
X78381000Y-65766000D02*
X70511000Y-65766000D01*
X79381000Y-55646000D02*
X76956000Y-55646000D01*
X79381000Y-55646000D02*
X79381000Y-64766000D01*
X79381000Y-64766000D02*
X78381000Y-65766000D01*
%TO.C,PCF1*%
X40430000Y-51892000D02*
X40430000Y-53142000D01*
X40430000Y-53142000D02*
X41680000Y-53142000D01*
X40720000Y-45232000D02*
X40720000Y-52852000D01*
X40720000Y-52852000D02*
X46690000Y-52852000D01*
X40730000Y-45242000D02*
X40730000Y-47042000D01*
X40730000Y-47042000D02*
X41480000Y-47042000D01*
X40730000Y-48542000D02*
X40730000Y-49542000D01*
X40730000Y-49542000D02*
X41480000Y-49542000D01*
X40730000Y-51042000D02*
X40730000Y-52842000D01*
X40730000Y-52842000D02*
X41480000Y-52842000D01*
X41480000Y-45242000D02*
X40730000Y-45242000D01*
X41480000Y-47042000D02*
X41480000Y-45242000D01*
X41480000Y-48542000D02*
X40730000Y-48542000D01*
X41480000Y-49542000D02*
X41480000Y-48542000D01*
X41480000Y-51042000D02*
X40730000Y-51042000D01*
X41480000Y-52842000D02*
X41480000Y-51042000D01*
X42980000Y-45242000D02*
X42980000Y-45992000D01*
X42980000Y-45992000D02*
X45930000Y-45992000D01*
X42980000Y-52092000D02*
X45930000Y-52092000D01*
X42980000Y-52842000D02*
X42980000Y-52092000D01*
X45930000Y-45992000D02*
X45930000Y-49042000D01*
X45930000Y-52092000D02*
X45930000Y-49042000D01*
X46690000Y-45232000D02*
X40720000Y-45232000D01*
X46690000Y-52852000D02*
X46690000Y-45232000D01*
%TO.C,R1*%
X46960000Y-45610000D02*
X47290000Y-45610000D01*
X46960000Y-52150000D02*
X46960000Y-45610000D01*
X47290000Y-52150000D02*
X46960000Y-52150000D01*
X49370000Y-52150000D02*
X49700000Y-52150000D01*
X49700000Y-45610000D02*
X49370000Y-45610000D01*
X49700000Y-52150000D02*
X49700000Y-45610000D01*
%TO.C,TH1*%
X42565000Y-55646000D02*
X45348233Y-55646000D01*
X42565000Y-64766000D02*
X42565000Y-55646000D01*
X43565000Y-65766000D02*
X42565000Y-64766000D01*
X47990000Y-55646000D02*
X46651767Y-55646000D01*
X51435000Y-65766000D02*
X43565000Y-65766000D01*
X52435000Y-55646000D02*
X50010000Y-55646000D01*
X52435000Y-55646000D02*
X52435000Y-64766000D01*
X52435000Y-64766000D02*
X51435000Y-65766000D01*
%TO.C,AUX1*%
X61495000Y-64806000D02*
X61495000Y-66056000D01*
X61495000Y-66056000D02*
X62745000Y-66056000D01*
X61785000Y-55646000D02*
X61785000Y-65766000D01*
X61785000Y-65766000D02*
X67755000Y-65766000D01*
X61795000Y-55656000D02*
X61795000Y-57456000D01*
X61795000Y-57456000D02*
X62545000Y-57456000D01*
X61795000Y-58956000D02*
X61795000Y-62456000D01*
X61795000Y-62456000D02*
X62545000Y-62456000D01*
X61795000Y-63956000D02*
X61795000Y-65756000D01*
X61795000Y-65756000D02*
X62545000Y-65756000D01*
X62545000Y-55656000D02*
X61795000Y-55656000D01*
X62545000Y-57456000D02*
X62545000Y-55656000D01*
X62545000Y-58956000D02*
X61795000Y-58956000D01*
X62545000Y-62456000D02*
X62545000Y-58956000D01*
X62545000Y-63956000D02*
X61795000Y-63956000D01*
X62545000Y-65756000D02*
X62545000Y-63956000D01*
X64045000Y-55656000D02*
X64045000Y-56406000D01*
X64045000Y-56406000D02*
X66995000Y-56406000D01*
X64045000Y-65006000D02*
X66995000Y-65006000D01*
X64045000Y-65756000D02*
X64045000Y-65006000D01*
X66995000Y-56406000D02*
X66995000Y-60706000D01*
X66995000Y-65006000D02*
X66995000Y-60706000D01*
X67755000Y-55646000D02*
X61785000Y-55646000D01*
X67755000Y-65766000D02*
X67755000Y-55646000D01*
%TO.C,RGB1*%
X49845000Y-53550000D02*
X49845000Y-54800000D01*
X49845000Y-54800000D02*
X51095000Y-54800000D01*
X50135000Y-44390000D02*
X50135000Y-54510000D01*
X50135000Y-54510000D02*
X56105000Y-54510000D01*
X50145000Y-44400000D02*
X50145000Y-46200000D01*
X50145000Y-46200000D02*
X50895000Y-46200000D01*
X50145000Y-47700000D02*
X50145000Y-51200000D01*
X50145000Y-51200000D02*
X50895000Y-51200000D01*
X50145000Y-52700000D02*
X50145000Y-54500000D01*
X50145000Y-54500000D02*
X50895000Y-54500000D01*
X50895000Y-44400000D02*
X50145000Y-44400000D01*
X50895000Y-46200000D02*
X50895000Y-44400000D01*
X50895000Y-47700000D02*
X50145000Y-47700000D01*
X50895000Y-51200000D02*
X50895000Y-47700000D01*
X50895000Y-52700000D02*
X50145000Y-52700000D01*
X50895000Y-54500000D02*
X50895000Y-52700000D01*
X52395000Y-44400000D02*
X52395000Y-45150000D01*
X52395000Y-45150000D02*
X55345000Y-45150000D01*
X52395000Y-53750000D02*
X55345000Y-53750000D01*
X52395000Y-54500000D02*
X52395000Y-53750000D01*
X55345000Y-45150000D02*
X55345000Y-49450000D01*
X55345000Y-53750000D02*
X55345000Y-49450000D01*
X56105000Y-44390000D02*
X50135000Y-44390000D01*
X56105000Y-54510000D02*
X56105000Y-44390000D01*
%TO.C,PCF2*%
X68116000Y-51892000D02*
X68116000Y-53142000D01*
X68116000Y-53142000D02*
X69366000Y-53142000D01*
X68406000Y-45232000D02*
X68406000Y-52852000D01*
X68406000Y-52852000D02*
X74376000Y-52852000D01*
X68416000Y-45242000D02*
X68416000Y-47042000D01*
X68416000Y-47042000D02*
X69166000Y-47042000D01*
X68416000Y-48542000D02*
X68416000Y-49542000D01*
X68416000Y-49542000D02*
X69166000Y-49542000D01*
X68416000Y-51042000D02*
X68416000Y-52842000D01*
X68416000Y-52842000D02*
X69166000Y-52842000D01*
X69166000Y-45242000D02*
X68416000Y-45242000D01*
X69166000Y-47042000D02*
X69166000Y-45242000D01*
X69166000Y-48542000D02*
X68416000Y-48542000D01*
X69166000Y-49542000D02*
X69166000Y-48542000D01*
X69166000Y-51042000D02*
X68416000Y-51042000D01*
X69166000Y-52842000D02*
X69166000Y-51042000D01*
X70666000Y-45242000D02*
X70666000Y-45992000D01*
X70666000Y-45992000D02*
X73616000Y-45992000D01*
X70666000Y-52092000D02*
X73616000Y-52092000D01*
X70666000Y-52842000D02*
X70666000Y-52092000D01*
X73616000Y-45992000D02*
X73616000Y-49042000D01*
X73616000Y-52092000D02*
X73616000Y-49042000D01*
X74376000Y-45232000D02*
X68406000Y-45232000D01*
X74376000Y-52852000D02*
X74376000Y-45232000D01*
%TO.C,J1*%
X41815000Y-31131000D02*
X42815000Y-30131000D01*
X41815000Y-40261000D02*
X41815000Y-31131000D01*
X42815000Y-30131000D02*
X72185000Y-30131000D01*
X72185000Y-30131000D02*
X73185000Y-31131000D01*
X73185000Y-31131000D02*
X73185000Y-40261000D01*
X73185000Y-40261000D02*
X41815000Y-40261000D01*
%TO.C,HEF1*%
X57690000Y-53600000D02*
X57690000Y-54850000D01*
X57690000Y-54850000D02*
X58940000Y-54850000D01*
X57980000Y-44440000D02*
X57980000Y-54560000D01*
X57980000Y-54560000D02*
X63950000Y-54560000D01*
X57990000Y-44450000D02*
X57990000Y-46250000D01*
X57990000Y-46250000D02*
X58740000Y-46250000D01*
X57990000Y-47750000D02*
X57990000Y-51250000D01*
X57990000Y-51250000D02*
X58740000Y-51250000D01*
X57990000Y-52750000D02*
X57990000Y-54550000D01*
X57990000Y-54550000D02*
X58740000Y-54550000D01*
X58740000Y-44450000D02*
X57990000Y-44450000D01*
X58740000Y-46250000D02*
X58740000Y-44450000D01*
X58740000Y-47750000D02*
X57990000Y-47750000D01*
X58740000Y-51250000D02*
X58740000Y-47750000D01*
X58740000Y-52750000D02*
X57990000Y-52750000D01*
X58740000Y-54550000D02*
X58740000Y-52750000D01*
X60240000Y-44450000D02*
X60240000Y-45200000D01*
X60240000Y-45200000D02*
X63190000Y-45200000D01*
X60240000Y-53800000D02*
X63190000Y-53800000D01*
X60240000Y-54550000D02*
X60240000Y-53800000D01*
X63190000Y-45200000D02*
X63190000Y-49500000D01*
X63190000Y-53800000D02*
X63190000Y-49500000D01*
X63950000Y-44440000D02*
X57980000Y-44440000D01*
X63950000Y-54560000D02*
X63950000Y-44440000D01*
%TO.C,D1*%
X65350000Y-47360000D02*
X65350000Y-51600000D01*
X65350000Y-50760000D02*
X67590000Y-50760000D01*
X65350000Y-50880000D02*
X67590000Y-50880000D01*
X65350000Y-51000000D02*
X67590000Y-51000000D01*
X65350000Y-51600000D02*
X67590000Y-51600000D01*
X66470000Y-46710000D02*
X66470000Y-47360000D01*
X66470000Y-52250000D02*
X66470000Y-51600000D01*
X67590000Y-47360000D02*
X65350000Y-47360000D01*
X67590000Y-51600000D02*
X67590000Y-47360000D01*
%TO.C,AUX2-3*%
X53725000Y-64806000D02*
X53725000Y-66056000D01*
X53725000Y-66056000D02*
X54975000Y-66056000D01*
X54015000Y-55646000D02*
X54015000Y-65766000D01*
X54015000Y-65766000D02*
X59985000Y-65766000D01*
X54025000Y-55656000D02*
X54025000Y-57456000D01*
X54025000Y-57456000D02*
X54775000Y-57456000D01*
X54025000Y-58956000D02*
X54025000Y-62456000D01*
X54025000Y-62456000D02*
X54775000Y-62456000D01*
X54025000Y-63956000D02*
X54025000Y-65756000D01*
X54025000Y-65756000D02*
X54775000Y-65756000D01*
X54775000Y-55656000D02*
X54025000Y-55656000D01*
X54775000Y-57456000D02*
X54775000Y-55656000D01*
X54775000Y-58956000D02*
X54025000Y-58956000D01*
X54775000Y-62456000D02*
X54775000Y-58956000D01*
X54775000Y-63956000D02*
X54025000Y-63956000D01*
X54775000Y-65756000D02*
X54775000Y-63956000D01*
X56275000Y-55656000D02*
X56275000Y-56406000D01*
X56275000Y-56406000D02*
X59225000Y-56406000D01*
X56275000Y-65006000D02*
X59225000Y-65006000D01*
X56275000Y-65756000D02*
X56275000Y-65006000D01*
X59225000Y-56406000D02*
X59225000Y-60706000D01*
X59225000Y-65006000D02*
X59225000Y-60706000D01*
X59985000Y-55646000D02*
X54015000Y-55646000D01*
X59985000Y-65766000D02*
X59985000Y-55646000D01*
%TD*%
M02*
